<?xml version="1.0" standalone="no"?>
<!DOCTYPE svg PUBLIC "-//W3C//DTD SVG 1.1//EN" "http://www.w3.org/Graphics/SVG/1.1/DTD/svg11.dtd" >
<svg xmlns="http://www.w3.org/2000/svg" xmlns:xlink="http://www.w3.org/1999/xlink" version="1.1">
<metadata></metadata>
<defs>
<font id="db_helvethaica_x47_licond" horiz-adv-x="0" >
<font-face units-per-em="2048" ascent="1638" descent="-410" />
<missing-glyph horiz-adv-x="501" />
<glyph unicode="&#x2b;&#x2d;" horiz-adv-x="1001" d="M104 16v99h797v-99h-797zM104 551v97h345v345h107v-345h345v-97h-345v-354h-107v354h-345z" />
<glyph unicode="&#x2e;&#x2e;&#x2e;" horiz-adv-x="2008" d="M252 0v171h166v-171h-166zM921 0v171h167v-171h-167zM1591 0v171h163v-171h-163z" />
<glyph unicode="&#x3c;&#x3d;" horiz-adv-x="1017" d="M101 45v92h806v-92h-806zM101 699v101l806 395v-102l-704 -341l704 -345v-101q-103 52 -203.5 100.5t-200 96.5t-199.5 96q-98 48 -203 100z" />
<glyph unicode="&#x3e;&#x3d;" horiz-adv-x="1023" d="M101 45v92h806v-92h-806zM101 306v101l702 345l-702 341v102l806 -395v-101q-203 -102 -404 -197q-199 -95 -402 -196z" />
<glyph unicode="&#xe4f;&#x22;" horiz-adv-x="1391" d="M107 586q0 83 20.5 157.5t59 139.5t92 118.5t118.5 92t139.5 59t156.5 20.5t157 -20.5t140 -59t118.5 -92t91.5 -118.5t59 -139.5t21 -157.5q0 -82 -21 -156.5t-59 -139.5t-91.5 -118.5t-118.5 -92t-140 -59t-157 -20.5t-156.5 20.5t-139.5 59t-118.5 92t-92 118.5 t-59 139.5t-20.5 156.5zM227 589q0 -63 16.5 -123t47.5 -111.5t73.5 -94t94 -73.5t111.5 -47.5t123 -16.5t122.5 16.5t111 47.5t94.5 73.5t74 94t47.5 111.5t16.5 123t-16.5 123.5t-47.5 111.5t-74 93.5t-94.5 73.5t-111 47.5t-122.5 16.5t-123 -16.5t-111.5 -47.5 t-94 -73.5t-73.5 -93.5t-47.5 -111.5t-16.5 -123.5zM392 589q0 63 24 117t64.5 94.5t95 64.5t117.5 24q62 0 116.5 -24t95 -64.5t64.5 -94.5t24 -117t-24 -117t-64.5 -94.5t-95 -64.5t-116.5 -24q-63 0 -117.5 24t-95 64.5t-64.5 94.5t-24 117zM482 1666h143l-19 -317h-105z M493 589q0 -41 16.5 -77.5t43.5 -63t63 -43t77 -16.5t77 16.5t63 43t43.5 63t16.5 77.5t-16.5 77.5t-43.5 63t-63 43t-77 16.5t-77 -16.5t-63 -43t-43.5 -63t-16.5 -77.5zM771 1666h144l-19 -317h-104z" />
<glyph unicode="&#xe0e;&#xe3a;" horiz-adv-x="1085" d="M38 0v96h115v742q0 55 -15 96t-50 59q33 63 79.5 107.5t105.5 73.5t125 42t138 13q74 0 146.5 -21.5t130.5 -62.5t94 -100t36 -135v-1302h-126q-18 22 -40.5 44t-52 40.5t-69 30t-88.5 11.5q-35 0 -69.5 -11t-66.5 -28.5t-61.5 -41t-57.5 -49.5v130q24 19 50.5 37.5 t58 34.5t67.5 25q38 10 79 10q49 0 89 -9.5t71.5 -23.5t56 -30t41.5 -30v1162q0 49 -22 90t-62 72.5t-92 49.5t-113 18q-55 0 -105 -12.5t-92 -34.5t-74 -52t-49 -66q10 -11 19 -27t17 -35.5t12.5 -41.5t4.5 -41v-830h-231zM766 -597q0 19 7.5 35.5t21 28.5t30.5 21 q16 8 35.5 8t36.5 -8.5t30 -20.5t20 -28.5t7 -35.5t-7 -36.5t-20 -30.5t-30 -21t-36.5 -8t-36 8t-30 21t-21 30.5t-7.5 36.5z" />
<glyph unicode="&#xe0f;&#xe3a;" horiz-adv-x="1085" d="M38 0v96h115v742q0 55 -15 96t-50 59q33 63 79.5 107.5t105.5 73.5t125 42t138 13q74 0 146.5 -21.5t130.5 -62.5t94 -100t36 -135v-1302h-121q-8 26 -23 48.5t-34.5 40t-42.5 27.5t-51 10q-26 0 -50 -13t-41.5 -31.5t-30.5 -40.5q-12 -22 -16 -41h-92q-4 17 -14.5 38.5 t-27.5 41t-41 33t-55 13.5q-28 0 -51 -11.5t-40 -30t-27.5 -40.5t-13.5 -44h-104q3 48 22 88.5t50 70t69.5 46t83.5 16.5q29 0 57 -6.5t53 -20t48 -36.5q21 -22 38 -55q16 33 36.5 55.5t44 37.5t46.5 21t48 6q47 0 88.5 -17t73.5 -52v1145q0 47 -20.5 88.5t-59 73.5 t-92 51.5t-117.5 19.5q-55 0 -105 -12.5t-92 -34.5t-74 -52t-49 -66q10 -11 19 -27t17 -35.5t12.5 -41.5t4.5 -41v-830h-231zM766 -597q0 19 7.5 35.5t21 28.5t30.5 21q16 8 35.5 8t36.5 -8.5t30 -20.5t20 -28.5t7 -35.5t-7 -36.5t-20 -30.5t-30 -21t-36.5 -8t-36 8t-30 21 t-21 30.5t-7.5 36.5z" />
<glyph unicode="&#xe0e;&#xe38;" horiz-adv-x="1085" d="M38 0v96h115v742q0 55 -15 96t-50 59q33 63 79.5 107.5t105.5 73.5t125 42t138 13q74 0 146.5 -21.5t130.5 -62.5t94 -100t36 -135v-1302h-126q-18 22 -40.5 44t-52 40.5t-69 30t-88.5 11.5q-35 0 -69.5 -11t-66.5 -28.5t-61.5 -41t-57.5 -49.5v130q24 19 50.5 37.5 t58 34.5t67.5 25q38 10 79 10q49 0 89 -9.5t71.5 -23.5t56 -30t41.5 -30v1162q0 49 -22 90t-62 72.5t-92 49.5t-113 18q-55 0 -105 -12.5t-92 -34.5t-74 -52t-49 -66q10 -11 19 -27t17 -35.5t12.5 -41.5t4.5 -41v-830h-231zM740 -519h203v-374h-113v274h-90v100z" />
<glyph unicode="&#xe0f;&#xe38;" horiz-adv-x="1085" d="M38 0v96h115v742q0 55 -15 96t-50 59q33 63 79.5 107.5t105.5 73.5t125 42t138 13q74 0 146.5 -21.5t130.5 -62.5t94 -100t36 -135v-1302h-121q-8 26 -23 48.5t-34.5 40t-42.5 27.5t-51 10q-26 0 -50 -13t-41.5 -31.5t-30.5 -40.5q-12 -22 -16 -41h-92q-4 17 -14.5 38.5 t-27.5 41t-41 33t-55 13.5q-28 0 -51 -11.5t-40 -30t-27.5 -40.5t-13.5 -44h-104q3 48 22 88.5t50 70t69.5 46t83.5 16.5q29 0 57 -6.5t53 -20t48 -36.5q21 -22 38 -55q16 33 36.5 55.5t44 37.5t46.5 21t48 6q47 0 88.5 -17t73.5 -52v1145q0 47 -20.5 88.5t-59 73.5 t-92 51.5t-117.5 19.5q-55 0 -105 -12.5t-92 -34.5t-74 -52t-49 -66q10 -11 19 -27t17 -35.5t12.5 -41.5t4.5 -41v-830h-231zM740 -519h203v-374h-113v274h-90v100z" />
<glyph unicode="&#xe0e;&#xe39;" horiz-adv-x="1085" d="M38 0v96h115v742q0 55 -15 96t-50 59q33 63 79.5 107.5t105.5 73.5t125 42t138 13q74 0 146.5 -21.5t130.5 -62.5t94 -100t36 -135v-1302h-126q-18 22 -40.5 44t-52 40.5t-69 30t-88.5 11.5q-35 0 -69.5 -11t-66.5 -28.5t-61.5 -41t-57.5 -49.5v130q24 19 50.5 37.5 t58 34.5t67.5 25q38 10 79 10q49 0 89 -9.5t71.5 -23.5t56 -30t41.5 -30v1162q0 49 -22 90t-62 72.5t-92 49.5t-113 18q-55 0 -105 -12.5t-92 -34.5t-74 -52t-49 -66q10 -11 19 -27t17 -35.5t12.5 -41.5t4.5 -41v-830h-231zM386 -519h203v-182q0 -137 121 -137 q120 0 120 137v182h113v-182q-2 -44 -14 -84.5t-39.5 -71.5t-71.5 -48.5t-108 -17.5q-65 0 -108.5 17.5t-71 48.5t-40.5 71.5t-13 84.5v85h-91v97z" />
<glyph unicode="&#xe0f;&#xe39;" horiz-adv-x="1085" d="M38 0v96h115v742q0 55 -15 96t-50 59q33 63 79.5 107.5t105.5 73.5t125 42t138 13q74 0 146.5 -21.5t130.5 -62.5t94 -100t36 -135v-1302h-121q-8 26 -23 48.5t-34.5 40t-42.5 27.5t-51 10q-26 0 -50 -13t-41.5 -31.5t-30.5 -40.5q-12 -22 -16 -41h-92q-4 17 -14.5 38.5 t-27.5 41t-41 33t-55 13.5q-28 0 -51 -11.5t-40 -30t-27.5 -40.5t-13.5 -44h-104q3 48 22 88.5t50 70t69.5 46t83.5 16.5q29 0 57 -6.5t53 -20t48 -36.5q21 -22 38 -55q16 33 36.5 55.5t44 37.5t46.5 21t48 6q47 0 88.5 -17t73.5 -52v1145q0 47 -20.5 88.5t-59 73.5 t-92 51.5t-117.5 19.5q-55 0 -105 -12.5t-92 -34.5t-74 -52t-49 -66q10 -11 19 -27t17 -35.5t12.5 -41.5t4.5 -41v-830h-231zM386 -519h203v-182q0 -137 121 -137q120 0 120 137v182h113v-182q-2 -44 -14 -84.5t-39.5 -71.5t-71.5 -48.5t-108 -17.5q-65 0 -108.5 17.5 t-71 48.5t-40.5 71.5t-13 84.5v85h-91v97z" />
<glyph unicode="&#xd;" horiz-adv-x="568" />
<glyph unicode=" "  horiz-adv-x="501" />
<glyph unicode="&#x09;" horiz-adv-x="501" />
<glyph unicode="&#xa0;" horiz-adv-x="501" />
<glyph unicode="!" horiz-adv-x="669" d="M266 0v142h138v-142h-138zM266 991v439h138v-439v2q-5 -76 -11.5 -157.5t-12.5 -164.5t-12 -164.5t-12 -158.5h-44l-46 645v-2z" />
<glyph unicode="&#x22;" horiz-adv-x="501" d="M101 1028v402h78v-402h-78zM326 1028v402h78v-402h-78z" />
<glyph unicode="#" horiz-adv-x="1119" d="M107 460l27 91h206l75 241h-207l30 89h206l151 460h87l-149 -460h188l146 460h89l-148 -460h211l-28 -89h-217l-70 -241h208q-8 -25 -12 -46t-11 -45h-218l-146 -460h-89l145 460h-182l-152 -460h-88l151 460h-203zM430 551h184l76 241h-186z" />
<glyph unicode="$" horiz-adv-x="1001" d="M62 433h117q0 -77 12.5 -140t43.5 -109t83 -74t131 -33v613q-52 22 -101 44t-101 47q-46 25 -78 56.5t-52 69.5t-29 84q-9 45 -9 97q0 82 27.5 149t77 116t116.5 77t149 32v171h96v-171q81 -8 146 -35.5t110.5 -74t69.5 -112.5q25 -67 25 -149h-122q0 53 -14.5 100 t-43 82t-71.5 57q-42 22 -100 28v-572l63 -26q103 -38 168 -79t101.5 -87t49.5 -99.5t13 -116.5q0 -93 -27.5 -165.5t-79.5 -123.5t-125 -80q-72 -28 -163 -36v-173h-96v173q-197 11 -292 124.5t-95 335.5zM208 1085q0 -88 41 -142q39 -55 118 -83l82 -33v531 q-74 -9 -122 -35.5t-74 -65t-35.5 -83.5t-9.5 -89zM545 77q59 5 107.5 27t84.5 57.5t55 86.5t19 114t-15 106.5t-42 74t-65 50.5q-40 21 -86 39l-58 19v-574z" />
<glyph unicode="%" horiz-adv-x="1587" d="M170 1052q0 60 11.5 116.5t41 99t79 68.5t123.5 26q71 0 117.5 -27.5t72.5 -72.5t37 -102t11 -116q0 -88 -15 -151t-46.5 -101t-80.5 -55q-47 -16 -113 -11q-57 4 -101 21t-75 54t-46.5 98t-15.5 153zM279 1022q0 -22 1.5 -46.5t5.5 -49.5t14 -46.5t25 -39.5t38 -27.5 t56 -9.5q30 0 52 9.5t38 27.5t25 39.5t14 46.5t6.5 49.5t1.5 46.5q0 23 -0.5 51t-4.5 57t-13 56.5t-24 48.5t-40 34t-60 13q-33 0 -56.5 -13t-38.5 -34t-23 -48.5t-12.5 -56.5t-4.5 -57.5v-50.5zM430 0l625 1373h107l-617 -1373h-115zM923 329q0 60 12 115t41.5 96.5 t78.5 66.5t123 25q48 0 84.5 -12.5t64 -34t45 -50.5t28.5 -63.5t15 -72t4 -76.5q0 -91 -19 -153.5t-54.5 -101.5t-85 -55.5t-106.5 -15.5q-44 0 -86.5 18t-74 56.5t-51 101.5t-19.5 156zM1030 292q0 -32 4 -69.5t19.5 -69.5t44 -54t75 -22t74 22t41.5 54t18 69.5t4 69.5 q0 24 -1 52.5t-4 57t-12 56t-25 48.5t-39 34t-59 13t-59 -13t-39.5 -34t-25 -48.5t-12.5 -56t-4 -57.5v-52z" />
<glyph unicode="&#x26;" horiz-adv-x="1338" d="M166 386q0 81 25 143.5t69 111.5t104.5 91.5t128.5 86.5q-33 41 -60 80t-48 78.5t-33 80.5t-12 90q0 58 17.5 108.5t52 89.5t82.5 61.5t108 22.5q63 0 118 -17.5t94.5 -52.5t61.5 -85t22 -113q0 -58 -23.5 -108.5t-61 -96t-85.5 -83.5t-97 -71l327 -452q36 87 54 159 q20 71 26 135h101q-5 -45 -15 -93t-23 -97t-31.5 -98.5t-42.5 -96.5l198 -260h-146l-126 153q-73 -90 -162.5 -134t-196.5 -44q-96 0 -175.5 29t-135 82.5t-85.5 130t-30 169.5zM295 384q0 -72 23.5 -128t65.5 -95.5t100.5 -60.5t126.5 -21q40 0 79 12.5t74.5 34.5t68.5 52 t60 63l-357 506q-54 -41 -98.5 -77.5t-76.5 -77.5t-49 -91q-17 -52 -17 -117zM449 1167q0 -38 8.5 -71t23 -64t33 -59t37.5 -55l30 -43q38 31 73.5 59.5t63 62t44 73.5t16.5 92q0 35 -11 69.5t-32 60.5t-52 41.5t-72 15.5q-38 0 -68.5 -15.5t-51 -41t-31.5 -57.5t-11 -68z " />
<glyph unicode="'" horiz-adv-x="501" d="M211 1028v402h78v-402h-78z" />
<glyph unicode="(" horiz-adv-x="669" d="M171 496q0 96 9 179.5t27 160t44 149.5t60 144t77 146q42 73 92 155h65q-27 -53 -56 -109t-56 -120t-50.5 -135t-42.5 -155t-29.5 -181.5t-10.5 -213.5q0 -132 14.5 -250t44.5 -229t76.5 -220.5t112.5 -226.5h-68q-66 107 -122.5 214t-97.5 218.5t-65 229.5t-24 244z" />
<glyph unicode=")" horiz-adv-x="669" d="M121 -410q65 115 111.5 225.5t77 221.5t44 229t13.5 250q0 116 -10 213.5t-28.5 181.5t-42.5 155t-51.5 135t-55.5 120.5t-56 108.5h65q49 -82 91.5 -156t76.5 -145t61 -144t45 -149.5t26 -160t8 -179.5q0 -127 -23.5 -244.5t-65 -229t-98.5 -219t-121 -213.5h-67z" />
<glyph unicode="*" horiz-adv-x="1001" d="M214 1218l22 59l233 -91v247h76v-238l229 82l23 -62l-235 -78l153 -186l-59 -47l-155 189l-150 -186l-62 44l155 178z" />
<glyph unicode="+" horiz-adv-x="1001" d="M104 436v97h345v351h107v-351h345v-97h-345v-348h-107v348h-345z" />
<glyph unicode="," horiz-adv-x="501" d="M156 0v177h181v-196q0 -39 -11 -78.5t-31.5 -74.5t-52 -61.5t-73.5 -40.5v74q30 11 48.5 34.5t28.5 51.5t13.5 58t3.5 56h-107z" />
<glyph unicode="-" horiz-adv-x="695" d="M99 436v97h498v-97h-498z" />
<glyph unicode="." horiz-adv-x="501" d="M171 0v171h163v-171h-163z" />
<glyph unicode="/" horiz-adv-x="557" d="M-8 -51l485 1481h93l-491 -1481h-87z" />
<glyph unicode="0" horiz-adv-x="953" d="M99 680v104.5t4 114.5t13.5 118.5t27.5 113.5t44.5 101.5t67 82t95.5 54.5t126 20t126 -20t94.5 -54.5t67 -82t44.5 -101.5t26 -113.5t13 -118.5t4 -115v-104q0 -77 -2.5 -159.5t-14.5 -160.5t-36 -146.5t-65 -120.5t-104 -82t-153 -30q-91 0 -154 30t-104.5 82 t-65.5 120.5t-36.5 146.5t-15 160.5t-2.5 159.5zM222 701q0 -68 1.5 -140.5t8 -141t22 -129.5t44 -107t72.5 -72t107 -26t106.5 26t72 72t43.5 107t21.5 129.5t7.5 141t1 140.5q0 63 -1.5 131t-9.5 133t-23 123.5t-44 103t-71.5 70.5t-102.5 26q-65 0 -109.5 -29t-71.5 -77 t-42.5 -109.5t-22 -127t-8 -128.5t-1.5 -116z" />
<glyph unicode="1" horiz-adv-x="950" d="M156 1017v94q77 0 134.5 13t99.5 43t68.5 79.5t37.5 123.5h90v-1370h-120v1093q-50 -44 -128 -60t-182 -16z" />
<glyph unicode="2" horiz-adv-x="950" d="M96 0q0 55 7 108.5t24 105.5t48 101t83 97l287 259q40 39 69.5 76t48.5 78.5t28.5 89t9.5 107.5q0 58 -12 105t-41 82t-74 54t-111 19q-49 0 -85.5 -13.5t-62 -38t-42.5 -57.5t-26 -70t-13 -77t-4 -78h-123q-2 107 22 190t70 139.5t114 85.5t156 29q89 0 156.5 -27.5 t112 -77.5t67 -119t22.5 -151q0 -74 -15 -137t-43.5 -116.5t-71 -100.5t-94.5 -90l-269 -236q-46 -44 -76.5 -101.5t-35.5 -134.5h619v-101h-745z" />
<glyph unicode="3" horiz-adv-x="950" d="M85 392h118q-4 -60 6 -113.5t40 -95.5t82.5 -66t131.5 -24q66 0 114 19.5t79.5 55t46.5 84.5t15 107q0 94 -20.5 155t-64 95.5t-109.5 48t-157 16.5v104q39 2 77 6t72.5 15.5t64.5 30.5t52 50t34.5 75.5t12.5 104.5q0 46 -13.5 86t-40 71.5t-69 49.5t-102.5 18 q-69 0 -112 -23.5t-68.5 -61t-36.5 -86t-13 -97.5h-115q-2 79 18.5 147.5t64 119t109 79.5t156.5 29q79 0 142 -24t108.5 -67t70 -105t24.5 -138q0 -52 -11 -99t-37 -88t-70 -75t-112 -62q74 -19 126 -52.5t83.5 -78t45 -96t13.5 -106.5q0 -94 -22 -171.5t-69 -132.5 t-121 -84q-73 -29 -177 -29q-101 0 -172.5 30t-115 83.5t-63 128.5t-16.5 166z" />
<glyph unicode="4" horiz-adv-x="919" d="M59 351v126l544 893h115v-910h131v-109h-131v-351h-123v351h-536zM153 452h442v544l8 190l-107 -190z" />
<glyph unicode="5" horiz-adv-x="950" d="M96 342h126q3 -52 16.5 -97.5t42.5 -79t72.5 -53t104.5 -19.5q68 0 117.5 30t81 79.5t46.5 114.5q15 67 15 135q0 63 -11.5 126t-42.5 114t-82 82q-50 32 -130 32q-36 0 -68.5 -8t-61.5 -23.5t-52 -40t-40 -57.5h-109l79 693h589v-107h-489l-59 -446q38 42 98.5 67.5 t142.5 25.5q93 0 161.5 -37t112.5 -97.5t64.5 -138.5t20.5 -160q0 -61 -8 -119.5t-27.5 -114t-49 -103t-71.5 -83t-97.5 -54.5t-127.5 -19q-87 0 -155.5 24.5t-115.5 71t-71.5 113t-21.5 149.5z" />
<glyph unicode="6" horiz-adv-x="950" d="M99 619v129.5t5.5 131.5t15 128t28.5 119.5t48 104.5t70.5 82t98.5 53t131 19q279 0 326 -301h-126q-8 58 -27.5 95.5t-47.5 60t-65 32t-82 9.5q-63 0 -107 -26t-72.5 -71t-44.5 -106t-23.5 -129t-8.5 -140q-2 -70 -2 -139l22 47q22 41 53.5 70t67.5 47.5t73 26.5t72 8 q92 0 160 -35t111.5 -92.5t64 -133t20.5 -157.5q0 -107 -27 -194t-76.5 -148t-116.5 -93.5t-147 -32.5q-93 0 -157.5 27t-109 75t-69.5 111t-39 134.5t-16.5 145.5t-2.5 142zM233 460q-4 -104 13.5 -174.5t52.5 -113.5t84.5 -61t106.5 -18q50 0 87.5 15t64.5 42.5t44.5 63 t27 74t14 79.5t4.5 77q0 60 -12 117.5t-40.5 103t-77.5 72t-122 26.5t-119.5 -28.5t-74.5 -73.5t-39 -98t-14 -103z" />
<glyph unicode="7" horiz-adv-x="950" d="M96 1263v107h771v-112q-98 -136 -181 -287.5t-144.5 -312.5t-103 -327.5t-57.5 -330.5h-143q22 167 65.5 332t108.5 325.5t151 313t195 292.5h-662z" />
<glyph unicode="8" horiz-adv-x="950" d="M104 381q0 77 20.5 137t57.5 104t86.5 72.5t106.5 45.5q-63 19 -106 50.5t-69.5 72.5t-39 89.5t-12.5 102.5q0 60 18 120.5t58 108.5t105.5 78t160.5 30q72 0 131 -22t100 -65t64 -107t23 -149q0 -46 -10 -92t-34 -86.5t-64 -73.5t-97 -57q63 -19 110 -54t78 -81 t44.5 -99.5t13.5 -106.5q0 -88 -17.5 -165.5t-60 -135t-112.5 -90.5t-174 -33q-101 0 -173 26t-118 78.5t-68 127.5t-22 174zM230 389q0 -62 12.5 -118t42.5 -99t79.5 -68t123.5 -25q53 0 96 20t74 59t47 98q16 56 16 133q0 58 -13 111t-42.5 93t-76 64.5t-112.5 24.5 q-63 0 -109.5 -24.5t-77 -65t-45.5 -93t-15 -110.5zM274 1044q0 -58 12.5 -104.5t38.5 -80.5t65.5 -53.5t94.5 -19.5t93 20.5t61.5 56.5t33 82t9.5 96q0 47 -9.5 92t-32 80t-60 56.5t-95.5 21.5t-97.5 -18.5t-65 -51.5t-37 -78.5t-11.5 -98.5z" />
<glyph unicode="9" horiz-adv-x="950" d="M99 918q0 107 27 193t76.5 148t116.5 94.5t147 32.5q93 0 158 -28t109 -75t69 -111t39 -134.5t16.5 -144.5t2.5 -144v-129.5t-5.5 -132t-15 -128t-28.5 -119t-48 -103.5t-70 -81t-98.5 -53t-131.5 -19q-279 0 -326 300h126q8 -58 27.5 -95.5t47.5 -59.5t65.5 -31.5 t81.5 -9.5q63 0 107 26t72.5 71t44.5 105.5t23.5 129t9 139.5t1.5 140l-22 -48q-22 -41 -53.5 -70t-67.5 -47.5t-73 -26.5t-72 -8q-92 0 -159 35t-111.5 93t-65 133.5t-20.5 157.5zM227 926q0 -60 12.5 -118.5t41.5 -103t77 -71.5t122 -27q72 0 119.5 28.5t74.5 74t39 98.5 q10 53 13 103q4 104 -13 174t-52 113t-84.5 61.5t-107.5 18.5q-50 0 -87 -16t-64.5 -42.5t-45 -62t-27 -74t-14 -79.5t-4.5 -77z" />
<glyph unicode=":" horiz-adv-x="501" d="M171 0v171h163v-171h-163zM171 864v172h163v-172h-163z" />
<glyph unicode=";" horiz-adv-x="501" d="M169 0v177h168v-196q0 -39 -11 -78.5t-31.5 -74.5t-52 -61.5t-73.5 -40.5v74q30 11 48.5 34.5t28.5 51.5t13.5 58t3.5 56h-94zM171 864v172h163v-172h-163z" />
<glyph unicode="&#x3c;" horiz-adv-x="1001" d="M101 433v103l806 423v-101l-701 -373l701 -370v-107z" />
<glyph unicode="=" horiz-adv-x="1001" d="M104 255v98h797v-98h-797zM104 616v99h797v-99h-797z" />
<glyph unicode="&#x3e;" horiz-adv-x="1001" d="M101 8v107l702 370l-702 373v101l806 -423v-103z" />
<glyph unicode="?" horiz-adv-x="1001" d="M142 1025q-1 81 20.5 155.5t66.5 133.5t116 93t171 34q88 0 160 -24t122.5 -69.5t79.5 -110t29 -146.5q0 -68 -15 -122t-40 -99t-57.5 -85.5t-71.5 -80.5q-42 -44 -75 -83.5t-55.5 -82t-33.5 -90t-8 -106.5h-130q0 44 3 80t9.5 64.5t17.5 53t28 51.5t40.5 56.5t55.5 64.5 q36 37 69.5 77.5t60.5 85t44 96t17 109.5q0 49 -14.5 98.5t-43 87.5t-74 62t-107.5 24q-54 0 -94.5 -13t-69.5 -36t-46.5 -54t-27.5 -67.5t-14 -76.5q-4 -39 -4 -80h-129zM415 0v148h138v-148h-138z" />
<glyph unicode="@" horiz-adv-x="1789" d="M197 712q0 100 25.5 192.5t72.5 173.5t113 147t147 113t172.5 72.5t193.5 25.5q85 0 168.5 -20.5t158 -58.5t138 -92t110.5 -120.5t73 -144t26 -164.5q0 -72 -16 -137.5t-45.5 -126t-72 -109.5t-96 -86t-117.5 -57t-137 -20q-26 0 -52 6t-46.5 21t-33.5 42q-15 26 -15 64 q-30 -38 -60 -63t-59.5 -40t-59 -21t-59.5 -6q-57 0 -101 21t-74 56.5t-47 84.5q-16 50 -16 105q0 60 14 124t41 125t64.5 115t86.5 94.5t107.5 64.5t124.5 24q30 0 61.5 -9t60.5 -29t53 -52q25 -32 39 -79l49 140h85l-189 -552q-8 -22 -12 -37t-7 -27.5t-4.5 -23 t-1.5 -18.5q0 -16 9 -27t22 -16t29.5 -7t30.5 -2q52 0 98 22t83.5 57.5t67.5 82t50.5 97.5t31.5 103t11 98q0 77 -22.5 143.5t-61.5 121.5t-93 98t-118 72t-134 44q-69 16 -143 16q-88 0 -169 -22.5t-150.5 -62.5t-127.5 -96.5t-99 -126t-63.5 -149t-22.5 -164.5 q0 -87 23.5 -166.5t65 -149t100 -126t129 -96.5t150 -62t164.5 -22q71 0 145 14t142.5 42t128.5 71t107 101h127q-53 -82 -127 -144t-159 -103t-179 -61q-92 -21 -185 -21q-103 0 -197 26t-174 72.5t-145 112.5t-111.5 146.5t-71.5 173t-25 192.5zM592 578q0 -41 9.5 -76.5 t29.5 -64.5t50 -45.5t71 -16.5t77.5 20.5t66.5 50t53 62.5q22 35 36 59q16 33 34 72t32.5 81.5t24 85.5t9.5 83q0 33 -11 61t-31.5 48t-48.5 31.5t-60 11.5q-52 0 -97 -22t-83.5 -59t-68.5 -85t-50.5 -98.5t-31.5 -102.5t-11 -96z" />
<glyph unicode="A" horiz-adv-x="1130" d="M53 0l424 1430h176l418 -1430h-137l-117 423h-514l-115 -423h-135zM332 530h463l-228 819h-5z" />
<glyph unicode="B" horiz-adv-x="1113" d="M177 0v1430h418q94 0 162 -24.5t111.5 -69.5t64.5 -108.5t21 -139.5q0 -59 -10 -108.5t-37 -90.5t-75 -73t-122 -58q82 -14 136 -45.5t86 -76t45.5 -101.5t13.5 -120v-8q0 -205 -100 -309q-95 -98 -286 -99q-15 0 -30 1h-398zM297 99h298q74 0 125 17.5t83.5 54.5 t46.5 94.5t14 135.5q0 74 -13 125.5t-37.5 84.5t-58 51t-72.5 25.5t-83 8t-86 0.5h-217v-597zM297 800h183q80 0 144 9t107.5 40t65.5 87t22 152q-1 66 -17 113t-54 77t-100 42q-54 11 -132 10h-26h-193v-530z" />
<glyph unicode="C" horiz-adv-x="1116" d="M123 732q0 80 5.5 166t23.5 166.5t49.5 152t83 125.5t126 85.5t175.5 31.5q99 0 174.5 -32t126.5 -89.5t78 -136t28 -168.5h-120q-3 66 -20 125t-53 103.5t-91.5 70.5t-135.5 26q-58 0 -103 -18.5t-78.5 -50t-57 -74t-39.5 -92t-24 -101.5t-12 -102.5t-5.5 -98.5 t-1.5 -87q0 -57 1.5 -128.5t9.5 -144t26.5 -141t53.5 -122t91 -85t139 -31.5q87 0 144.5 34.5t92 93.5t49 134t14.5 157h120q0 -68 -9 -134t-30 -123.5t-53 -106.5t-78 -85t-105 -55t-132 -19q-111 0 -188 31.5t-128.5 87.5t-81 130t-44 158t-18 173t-3.5 174z" />
<glyph unicode="D" horiz-adv-x="1223" d="M177 0v1430h401q112 0 193 -27.5t137 -76.5t89 -116t51 -146t23.5 -167.5t5.5 -178.5q0 -88 -7.5 -175t-27.5 -167t-54 -148.5t-86.5 -119t-125 -79.5t-170.5 -29h-429zM297 99h300q99 0 167.5 36t110.5 115t60.5 201.5t18.5 295.5q0 71 -3.5 141.5t-15.5 135t-36 120 t-63 96.5t-97.5 65t-141.5 25h-300v-1231z" />
<glyph unicode="E" horiz-adv-x="1009" d="M179 0v1430h722v-104h-601v-531h564v-102h-564v-592h604v-101h-725z" />
<glyph unicode="F" horiz-adv-x="923" d="M179 0v1430h673v-104h-552v-526h517v-104h-517v-696h-121z" />
<glyph unicode="G" horiz-adv-x="1231" d="M126 723q0 84 7 171t25.5 168t52 152t87 124.5t129.5 84.5q74 31 179 31q98 0 177.5 -29.5t134.5 -83t86.5 -127.5t33.5 -165h-126q-2 66 -21.5 121.5t-55.5 96t-91 62.5q-56 22 -130 23h-11q-81 0 -137 -26q-60 -29 -100.5 -77.5t-63.5 -113t-33.5 -135t-13.5 -143.5 t-3 -139q0 -55 3 -121.5t12.5 -135.5t28.5 -135t54.5 -118t87.5 -86t129 -40q71 0 126 21.5t95.5 59t68 89t44.5 110.5t24 122.5t7 126.5h-337v99h457v-710h-90v292q-30 -88 -67 -149t-84 -97t-101.5 -52t-117.5 -16q-107 0 -183.5 31.5t-128 87.5t-82.5 129.5t-46.5 156.5 t-20.5 170.5t-5 169.5z" />
<glyph unicode="H" horiz-adv-x="1234" d="M179 0v1430h121v-616h634v616h121v-1430h-121v712h-634v-712h-121z" />
<glyph unicode="I" horiz-adv-x="560" d="M219 0v1430h123v-1430h-123z" />
<glyph unicode="J" horiz-adv-x="894" d="M67 370v51h121v-68q0 -52 4.5 -102.5t25 -90t60.5 -63.5t108 -24q72 0 113 24t63 63.5t27.5 90t5.5 102.5v1077h120v-1090q0 -110 -24 -181t-67.5 -112.5t-104.5 -57.5t-135 -16q-43 0 -82 5.5t-73 19.5t-63 38t-51 63q-16 30 -26 63.5t-15.5 68.5t-6 70.5t-0.5 68.5z " />
<glyph unicode="K" horiz-adv-x="1122" d="M179 0v1430h118v-767l610 767h142l-468 -597l496 -833h-137l-439 740l-198 -241v-499h-124z" />
<glyph unicode="L" horiz-adv-x="995" d="M179 0v1430h121v-1326h623v-104h-744z" />
<glyph unicode="M" horiz-adv-x="1585" d="M179 0v1430h213l348 -1124l49 -196h3l52 196l348 1124h214v-1430h-124v1195v157l-53 -177l-365 -1175h-149l-364 1195l-48 163v-169v-1189h-124z" />
<glyph unicode="N" horiz-adv-x="1239" d="M179 0v1430h199l495 -1181l67 -176v176v1181h120v-1430h-205l-488 1159l-70 188v-191v-1156h-118z" />
<glyph unicode="O" horiz-adv-x="1231" d="M140 747q0 82 6 166t23 163.5t50 149.5t86.5 121.5t130 81.5t183.5 30q104 0 180 -30t128.5 -81.5t84 -121.5t48.5 -149.5t22.5 -163.5t5.5 -166q0 -100 -6.5 -196t-23.5 -184t-50 -160.5t-85 -126t-128 -83.5q-77 -30 -181 -30q-108 0 -184.5 30t-129.5 83.5t-84 126 t-47.5 160.5t-22.5 184.5t-6 195.5zM269 743q0 -168 14 -292.5t52 -209.5t105 -128t174 -43q105 0 173 43t106.5 128t52 209.5t13.5 292.5q0 84 -5.5 163t-20.5 147.5t-41 124t-64.5 96t-92 62.5t-124.5 22q-68 0 -119.5 -22t-90 -62.5t-64 -96t-41 -124t-21.5 -147.5 t-6 -163z" />
<glyph unicode="P" horiz-adv-x="1111" d="M179 0v1430h388q104 -2 187 -23.5t142 -67.5t91 -118.5t32 -176.5q0 -96 -22 -164.5t-61.5 -114.5t-93.5 -72.5t-119 -41t-139 -18.5t-151 -4h-130v-629h-124zM303 729h196q90 0 164 11t125.5 44t79.5 94.5t28 162.5q0 93 -30 149.5t-82 86.5t-123.5 39.5t-153.5 9.5 h-204v-597z" />
<glyph unicode="Q" horiz-adv-x="1226" d="M140 747q0 82 6 166t23 163.5t50 149.5t86.5 121.5t130 81.5t183.5 30q104 0 180 -30t128.5 -81.5t84 -121.5t48.5 -149.5t22.5 -163.5t5.5 -166q-2 -84 -5 -165t-15 -156t-31.5 -142.5t-51.5 -124.5l163 -132q-16 -22 -31.5 -37t-31.5 -31l-156 126q-52 -58 -130 -88 t-185 -30q-108 0 -184.5 30t-129.5 83.5t-84 126t-47.5 160.5t-22.5 184.5t-6 195.5zM269 743q0 -168 14 -292.5t52 -209.5t105 -128t174 -43h6q141 0 218 86l-156 128l61 72l146 -120q41 87 55.5 212t14.5 295q0 84 -5.5 163t-20.5 147.5t-41 124t-64.5 96t-92 62.5 t-124.5 22q-68 0 -119.5 -22t-90 -62.5t-64 -96t-41 -124t-21.5 -147.5t-6 -163z" />
<glyph unicode="R" horiz-adv-x="1215" d="M179 0v1430h380q74 0 139 -6t119 -23t95.5 -44.5t70 -71.5t43.5 -103t15 -138q0 -60 -19 -117.5t-54.5 -104.5t-87 -77t-114.5 -35q68 -9 115.5 -33.5t79 -65t46.5 -94.5t21 -118q1 -24 1.5 -58.5t2 -75t5.5 -82t11 -78.5t18 -64t27 -41h-142q-11 36 -19.5 86t-14 100.5 t-8 95.5t-2.5 71q-1 61 -15 114.5t-46 93t-84 63.5t-133 24h-326v-648h-124zM303 752h294q22 0 54.5 2t67.5 11.5t70.5 29t63.5 52.5t45 82t17 120q-1 69 -19 117t-46 78.5t-63.5 48t-74 25.5t-75.5 10t-67 2h-267v-578z" />
<glyph unicode="S" horiz-adv-x="1116" d="M121 433h117q0 -82 15.5 -148t52 -114t96.5 -73q61 -25 149 -25q68 0 126.5 18.5t101.5 55.5t67 90t24 125q0 53 -10.5 92t-33 68t-56 51t-80.5 41l-350 155q-47 21 -85.5 54t-64.5 75t-39 90q-14 48 -14 100q0 86 31 156t85 118.5t128 75.5t162 27q94 0 170 -24 t129.5 -71t82.5 -116.5t29 -162.5h-121q0 58 -17 108t-50.5 86t-84.5 56.5t-117 20.5q-93 0 -150.5 -25t-90.5 -64.5t-45 -89t-12 -98.5q0 -44 11 -77.5t31.5 -60t50.5 -48.5t68 -39l305 -134q65 -29 115 -62.5t83.5 -76t51 -94.5t17.5 -115q0 -100 -32.5 -176t-91 -128 t-142.5 -78t-185 -26q-219 0 -323 115t-104 348z" />
<glyph unicode="T" horiz-adv-x="1001" d="M51 1330v100h903v-100h-390v-1330h-123v1330h-390z" />
<glyph unicode="U" horiz-adv-x="1228" d="M179 378v1052h124v-1046q0 -31 4.5 -65t17 -68.5t34.5 -64.5t57 -53t83.5 -37t114.5 -14t115 13t84 35.5t57.5 53t35 63t18 67t5.5 64.5v1052h120v-1057q0 -95 -31.5 -168t-89 -124t-137.5 -77q-81 -26 -177 -26t-176 27t-138 78t-89.5 126.5t-31.5 168.5z" />
<glyph unicode="V" horiz-adv-x="1146" d="M59 1430h136l319 -1133l53 -204h6l49 204l321 1133h139l-434 -1430h-160z" />
<glyph unicode="W" horiz-adv-x="1694" d="M67 1430h139l212 -1012l51 -322h5l62 322l227 1012h169l208 -1012l52 -322h5l66 322l228 1012h137q-44 -183 -88.5 -360.5t-89 -353.5t-88.5 -354t-88 -362h-163l-204 985l-60 356h-6l-63 -356l-225 -985h-164z" />
<glyph unicode="X" horiz-adv-x="1116" d="M67 0l426 737l-408 693h140l339 -594l335 594h142l-407 -687l418 -743h-151l-342 640l-345 -640h-147z" />
<glyph unicode="Y" horiz-adv-x="1135" d="M48 1430h131l385 -774l384 774h134l-457 -877v-553h-124v553z" />
<glyph unicode="Z" horiz-adv-x="1031" d="M73 0v110l760 1220h-729v100h844v-112l-760 -1219h757v-99h-872z" />
<glyph unicode="[" horiz-adv-x="669" d="M216 -401v1831h317v-81h-191v-1664h191v-86h-317z" />
<glyph unicode="\" horiz-adv-x="501" d="M-45 1430h81l512 -1430h-82z" />
<glyph unicode="]" horiz-adv-x="669" d="M137 -315h192v1664h-192v81h318v-1831h-318v86z" />
<glyph unicode="^" horiz-adv-x="1001" d="M151 645l307 777h87l310 -777h-89l-265 662l-263 -662h-87z" />
<glyph unicode="_" horiz-adv-x="1001" d="M0 -132h1001v-79h-1001v79z" />
<glyph unicode="`" horiz-adv-x="669" d="M112 1441h169q40 -63 79 -118q40 -57 81 -117h-101q-61 60 -115.5 119t-112.5 116z" />
<glyph unicode="a" horiz-adv-x="889" d="M77 278q0 14 2.5 35t9.5 46t18 51t29.5 50t44 44.5t57.5 33.5l332 136q16 8 26 19t14.5 25t5 30t0.5 36v13q0 54 -10.5 90t-35.5 59.5t-64 34t-94 10.5q-52 0 -88 -14t-58 -39.5t-33 -60.5q-11 -33 -11 -77l-99 8q4 137 84.5 201.5t233.5 64.5q75 0 125 -18.5t82 -48 t48 -63t21.5 -64.5t5.5 -52.5v-24.5v-618q0 -11 1.5 -28t5.5 -33.5t14 -29t25 -12.5q11 -3 26.5 -1.5t26.5 4.5v-77q-23 -5 -44.5 -8t-40.5 -3q-26 0 -46 5.5t-35 23.5t-24 50q-10 32 -13 87q-19 -47 -49 -81.5t-67 -57.5t-77 -33t-78 -10q-77 0 -128 20t-83.5 57.5 t-46 93.5t-13.5 126zM197 274q0 -47 8.5 -84t29 -63.5t56 -40t90.5 -13.5q16 0 40 6t49 18.5t49 32t43 46.5t30 62.5t11 79.5v285l-288 -121q-30 -13 -53.5 -35t-37 -49.5t-20.5 -59t-7 -64.5z" />
<glyph unicode="b" horiz-adv-x="1001" d="M166 0v1430h115v-518q26 55 58 88t67 49.5t70.5 20.5t68.5 4q66 0 116.5 -20.5t88.5 -56t63 -83.5t40.5 -101.5t21.5 -110.5t6 -110q0 -77 -5 -151t-17 -142.5t-35.5 -126t-59 -100.5t-87.5 -67t-121 -24q-37 0 -76 5.5t-76 22.5t-71 49t-62 87v-145h-105zM271 501 q0 -43 3 -91t10.5 -96t23 -92t43 -78t70 -54t101.5 -20q68 0 114 31t73.5 91t39 150.5t11.5 208.5q0 38 -2 85.5t-10 96t-24 95t-42.5 83t-66.5 58.5t-96 22q-61 0 -103.5 -24t-70 -64.5t-42.5 -92t-22 -105.5t-8.5 -107t-1.5 -97z" />
<glyph unicode="c" horiz-adv-x="889" d="M104 516q0 65 5.5 131.5t19 128.5t40 116.5t67.5 95t100 63.5t138 23q77 0 133.5 -26t96 -70t60.5 -103q22 -58 25 -126h-104q-3 46 -16.5 89t-38 76.5t-64 55t-92.5 21.5q-49 0 -85 -15.5t-63 -40.5t-45 -61t-29 -75.5t-16.5 -82t-8 -83.5t-2.5 -79.5v-71.5 q0 -38 2.5 -83.5t10 -90.5t23.5 -87.5t43.5 -75.5t67 -52.5t97.5 -19.5q60 0 101 24t67 63t38.5 89.5t14.5 103.5h107q-5 -72 -25 -140t-57.5 -119.5t-96 -82t-138.5 -30.5q-81 0 -141 20.5t-101 57t-67 86.5t-41 110t-20.5 126.5t-5.5 134.5z" />
<glyph unicode="d" horiz-adv-x="998" d="M118 592q0 53 7 110t22 110.5t39.5 101.5t62 83.5t89 56t117.5 20.5q33 0 69 -4t72 -20.5t68 -49.5t54 -88v518h115v-1430h-107v145q-27 -55 -60.5 -87t-70.5 -49t-76 -22.5t-75 -5.5q-70 0 -121.5 24t-88.5 67t-59 100.5t-35 126t-17.5 142.5t-4.5 151zM238 551 q0 -118 12 -208.5t40 -150.5t73 -91t114 -31q60 0 101 20t69 54t44 78t24 92t9.5 96t1.5 91t-0.5 96.5t-7.5 107.5t-22 105.5t-42.5 92t-70 64.5t-103.5 24q-57 0 -96 -22t-66.5 -58.5t-43 -83t-23 -95t-10.5 -96t-3 -85.5z" />
<glyph unicode="e" horiz-adv-x="889" d="M104 525q0 55 5.5 117t19 123t37 116.5t62 98t92 67t127.5 24.5q79 0 134 -23t92 -64t57.5 -94.5t30 -114t12.5 -123.5q5 -63 5 -122h-553v-48q0 -38 2.5 -82.5t9.5 -90.5t22 -88.5t39.5 -75.5t61.5 -52.5t92 -19.5q56 0 96.5 21t68 56t39.5 79q11 37 11 74q0 9 -1 18 h103q-2 -72 -22.5 -134t-60 -107.5t-99.5 -70.5q-58 -25 -138 -25q-74 0 -137.5 26t-109.5 87.5t-72 165.5t-26 262zM225 614h431v46q-1 35 -4 72.5t-11 73t-21.5 69t-36.5 59t-56.5 40t-79.5 14.5q-48 0 -83 -18.5t-59 -49t-39 -69.5t-24 -80.5t-13 -82.5q-3 -41 -4 -74z " />
<glyph unicode="f" horiz-adv-x="557" d="M48 975v85h158v137q0 65 16 111t47 74.5t73 40.5q44 13 96 13h28t30 -3v-81q-38 0 -70.5 -6t-55 -23t-34.5 -48q-13 -31 -13 -78v-137h173v-85h-173v-975h-112v975h-163z" />
<glyph unicode="g" horiz-adv-x="1006" d="M110 543q0 54 6 115t21 120.5t40.5 114t64.5 95.5t93 65t125 24q37 0 74 -7t72 -26t66 -53q29 -35 54 -90v159h115v-978q0 -61 -7.5 -119.5t-24.5 -108.5t-46 -91.5t-70 -70.5t-97 -45.5t-130 -16.5q-58 0 -108.5 14t-91.5 42.5t-70 69.5t-43 96h110q19 -68 72.5 -102 t127.5 -34q63 0 107.5 17.5t74 46t46 66.5t24 78t9.5 81.5t2 76.5v81q-23 -56 -55.5 -91t-69.5 -55t-76 -27q-37 -6 -73 -6q-74 0 -137 26.5t-109 91t-71 172t-25 269.5zM230 530q0 -104 12.5 -189t39 -144.5t70.5 -91.5t108 -32q66 0 111 22.5t75.5 61t47 89t24.5 104 t9 107.5q2 55 2 102q0 57 -5 110.5t-16.5 102.5t-31.5 89t-48 69.5t-65 46t-86 16.5q-59 0 -100 -23t-68.5 -61t-43.5 -87t-23.5 -100.5t-9.5 -101.5t-2 -90z" />
<glyph unicode="h" horiz-adv-x="1006" d="M166 0v1430h115v-520q33 50 68.5 81t74 49t80 23.5t85.5 5.5q58 0 104.5 -17.5t80.5 -51t52 -84t18 -116.5v-800h-112v774q0 45 -7 83.5t-27 67.5t-55 44.5t-87 15.5q-64 0 -115.5 -24.5t-87 -65t-54 -92t-18.5 -104.5v-699h-115z" />
<glyph unicode="i" horiz-adv-x="460" d="M174 0v1060h115v-1060h-115zM174 1285v145h115v-145h-115z" />
<glyph unicode="j" horiz-adv-x="465" d="M56 -266q12 -1 27.5 -0.5t29 4.5t26 12.5t20.5 22.5q8 16 13 32.5t6 35t1 38.5v42v1139h116v-1137q0 -85 -10.5 -140.5t-38 -88t-73.5 -45.5t-117 -13v98zM179 1285v145h116v-145h-116z" />
<glyph unicode="k" horiz-adv-x="908" d="M166 0v1430h112v-914l440 544h134l-336 -407l357 -653h-130l-302 570l-163 -192v-378h-112z" />
<glyph unicode="l" horiz-adv-x="457" d="M171 0v1430h115v-1430h-115z" />
<glyph unicode="m" horiz-adv-x="1565" d="M166 0v1060h108v-171q29 55 62.5 91.5t71 57t78 28.5t84.5 8q93 0 156 -50t93 -143q55 104 133 148.5t185 44.5q64 0 113.5 -16.5t83 -52t51.5 -91.5q18 -54 18 -133v-781h-115v778q0 49 -9.5 89t-31.5 67.5t-60.5 42t-95.5 14.5q-53 0 -98 -25t-79 -65.5t-53.5 -93.5 t-19.5 -108v-699h-112v778q0 48 -11.5 87t-36.5 67t-62 43.5t-86 15.5q-58 0 -103.5 -27t-78.5 -69.5t-51.5 -93t-18.5 -97.5v-704h-115z" />
<glyph unicode="n" horiz-adv-x="1009" d="M166 0v1060h112v-159q30 53 63.5 86.5t70.5 53t80.5 28t93.5 8.5q58 0 106 -16.5t82 -51t53.5 -85t19.5 -116.5v-808h-113v792q0 48 -9.5 85.5t-32.5 63.5t-60 39t-89 13q-55 0 -103 -24.5t-83.5 -65.5t-55.5 -94t-20 -110v-699h-115z" />
<glyph unicode="o" horiz-adv-x="1001" d="M118 543q0 73 7.5 142t24.5 128.5t46 108t71.5 82.5t100.5 53.5t133 19.5q80 0 139 -20.5t101.5 -58.5t70.5 -89t45 -111t23 -126t6 -134q-2 -164 -30.5 -271.5t-77.5 -171t-119 -89t-158 -25.5q-56 0 -105 11t-91.5 37t-76 68.5t-58.5 104.5t-38 146.5t-14 194.5z M233 533q0 -101 13.5 -187t44.5 -147t82.5 -95t127.5 -34q79 0 131 34t82.5 95t43.5 146t13 188q0 123 -18.5 210t-54 143.5t-85 81.5t-112.5 25q-61 0 -111 -25t-84.5 -80t-53.5 -142.5t-19 -212.5z" />
<glyph unicode="p" horiz-adv-x="1004" d="M166 -370v1430h105v-145q28 55 62 87t71 49.5t75.5 23t76.5 5.5q69 0 119 -23t86 -63t59.5 -93.5t37 -116.5t18.5 -131.5t5 -136.5q0 -63 -6 -127t-22 -123t-41.5 -110.5t-62.5 -88.5t-87.5 -59t-116.5 -22q-33 0 -68.5 3.5t-70.5 19.5t-67 46t-58 85v-510h-115zM271 559 q0 -44 1.5 -96.5t8.5 -107t22 -105.5t42.5 -91.5t70 -64.5t103.5 -24q56 0 96 22t66.5 58t42.5 82.5t24 95.5t10 96t2 86q0 117 -11.5 207.5t-39 151t-73.5 91.5t-114 31q-60 0 -102 -20t-69.5 -54.5t-43 -78t-23 -91.5t-10.5 -97t-3 -91z" />
<glyph unicode="q" horiz-adv-x="1004" d="M123 516q0 69 5.5 137t19.5 131t37 116.5t58.5 93.5t86.5 63t119 23q37 0 75.5 -5.5t75.5 -23t70.5 -49.5t61.5 -87v145h106v-1430h-115v510q-27 -55 -58.5 -85t-66 -46t-70 -19.5t-68.5 -3.5q-65 0 -116 22t-88 59t-63 88.5t-41 110.5t-22 122.5t-7 127.5zM244 510 q0 -39 2.5 -86t11 -96t23.5 -95.5t42.5 -82.5t67 -58t94.5 -22q62 0 104.5 24t69.5 64.5t42.5 91.5t22 105.5t7.5 107t1 96.5q0 42 -1.5 91t-10 97t-24 91.5t-43 78t-69 54.5t-102.5 20q-68 0 -113.5 -31t-73.5 -91.5t-39.5 -151t-11.5 -207.5z" />
<glyph unicode="r" horiz-adv-x="664" d="M174 0v1060h107v-190q30 59 65 98.5t78 63.5t93 33q32 6 68 5q20 0 40 -1v-105q-31 4 -59 4q-44 0 -82 -10q-62 -17 -106 -56.5t-68 -100.5q-24 -58 -24 -135v-666h-112z" />
<glyph unicode="s" horiz-adv-x="889" d="M82 284h103q3 -50 18.5 -89t45.5 -67t75 -43q46 -15 103 -15q54 0 97 14.5t74 41t48 67t17 91.5q0 52 -20.5 85.5t-58 58.5t-90.5 45t-116 43.5t-111.5 47.5t-83.5 56t-53 76t-18 107q0 66 23 116.5t63 86t96.5 53.5t123.5 18q148 0 231 -68q83 -66 91 -206h-111 q0 49 -16 84.5t-44 59t-67 35t-87 11.5q-44 0 -77.5 -13t-58 -36t-37 -57.5t-12.5 -78.5q0 -50 18 -83t49.5 -56.5t76.5 -40.5t100 -36q63 -25 119 -49t97.5 -56t66 -77.5t24.5 -112.5q0 -74 -24 -132t-69 -99t-111 -63q-65 -22 -150 -22q-74 0 -137 17.5t-109.5 54.5 t-72.5 94t-26 137z" />
<glyph unicode="t" horiz-adv-x="549" d="M48 975v85h152v289h115v-289h184v-85h-184v-806q0 -17 1.5 -32t9 -26t24.5 -17t49 -6h94v-88h-151q-30 -1 -56 5t-45 22.5t-30 48.5q-11 31 -11 83v816h-152z" />
<glyph unicode="u" horiz-adv-x="990" d="M166 252v808h112v-791q0 -50 8.5 -87t29.5 -63t56 -39t88 -13q55 0 101 24.5t79 66t51.5 94t18.5 110.5v698h115v-1060h-113v156q-30 -52 -61.5 -85t-67 -52.5t-76.5 -27t-92 -7.5q-57 0 -103 17t-78.5 50.5t-50 84t-17.5 116.5z" />
<glyph unicode="v" horiz-adv-x="894" d="M51 1060h118l212 -739l66 -239l63 236l213 742h118l-327 -1060h-139z" />
<glyph unicode="w" horiz-adv-x="1338" d="M67 1060h115l177 -731l45 -197l37 197l165 731h126l175 -731l38 -197l43 197l174 731h115l-273 -1060h-126l-177 755l-27 157l-31 -157l-174 -755h-129z" />
<glyph unicode="x" horiz-adv-x="886" d="M33 0l334 536l-326 524h125l272 -441l274 441h121l-332 -524l340 -536h-120l-283 449l-282 -449h-123z" />
<glyph unicode="y" horiz-adv-x="889" d="M48 1060h118l218 -739l60 -217l57 217l222 739h118q-66 -205 -116.5 -368t-91 -290.5t-70.5 -221.5t-52 -161.5t-36.5 -113.5t-25.5 -75.5t-17 -46t-11 -27.5q-39 -74 -100 -105.5t-142 -31.5q-21 0 -44 2q-23 4 -47 9v92q23 -6 48.5 -11.5t45.5 -5.5q51 0 84 14t54 38 t34 55.5t24 66.5l23 70z" />
<glyph unicode="z" horiz-adv-x="782" d="M64 0v93l544 887h-518v80h625v-101l-546 -874h549v-85h-654z" />
<glyph unicode="{" horiz-adv-x="549" d="M79 625q22 8 42.5 21.5t37.5 30.5q19 19 30.5 37t16.5 35.5t6.5 37t1.5 40.5v373q0 25 1 51.5t9.5 50.5t23.5 45q15 23 41 37q36 23 71 34q35 10 78 12q-30 -16 -49 -36.5t-30 -44t-15 -52t-4 -63.5v-374q0 -41 -7 -78t-28 -67.5t-59 -53.5t-98 -36v-3q63 -14 100.5 -38 t57.5 -56.5t27 -74.5t7 -89v-350q0 -33 4.5 -62t16.5 -52t32.5 -43t53.5 -36q-65 5 -109.5 23t-72 50t-39.5 80t-12 111v327q0 28 -1.5 52t-7 46t-20.5 41.5t-43 37.5q-15 11 -30.5 20.5t-32.5 15.5z" />
<glyph unicode="|" horiz-adv-x="501" d="M206 0v1430h91v-1430h-91z" />
<glyph unicode="}" horiz-adv-x="549" d="M107 -179q31 16 51.5 36t32.5 43t17.5 52t5.5 62v350q0 47 6 89t26 74.5t58 56.5t100 38v3q-60 13 -97.5 36t-58.5 53.5t-27.5 67.5t-6.5 78v374q0 33 -4 62.5t-15 53t-30.5 44t-49.5 36.5q43 -2 77.5 -13t70.5 -33q26 -14 42 -36t23.5 -46t9.5 -50q2 -27 2 -52v-373 q0 -21 0.5 -40.5t5.5 -37t16 -35.5t30 -37q16 -15 38 -29q22 -15 44 -23q-16 -6 -32.5 -15.5t-31.5 -20.5q-28 -18 -42.5 -37.5t-20.5 -41.5t-6.5 -46t-0.5 -52v-327q0 -63 -12.5 -111t-40 -80t-72 -50.5t-108.5 -22.5z" />
<glyph unicode="~" horiz-adv-x="1001" d="M110 410q17 33 39 69t49 66t58.5 49.5t66.5 19.5q22 0 45.5 -5.5t50 -16.5t57.5 -26t69 -33q43 -22 79 -36.5t64 -14.5q26 0 50 13t45 33.5t38 46t31 50.5l44 -63q-16 -36 -38 -70t-49 -59.5t-57.5 -41.5t-66.5 -16q-21 0 -50 10t-60 23.5t-60.5 28t-51.5 23.5 q-15 6 -31 14t-33.5 15.5t-37 12.5t-38.5 5q-33 0 -59 -13t-46.5 -35t-37 -49.5t-29.5 -56.5z" />
<glyph unicode="&#xa2;" horiz-adv-x="1001" d="M151 723q0 57 4 116.5t15 115.5t31.5 106.5t53.5 91t81 67.5t113 35v175h89v-175q63 -8 112 -35.5t82.5 -70t50.5 -98t20 -119.5h-99q-3 43 -13 82.5t-30 71t-50 52.5t-73 29v-907q47 11 78.5 40t51.5 69.5t28 90.5t8 104h99q1 -72 -14 -140t-47 -121.5t-83 -88.5 t-121 -43v-171h-89v171q-71 7 -121.5 34t-83.5 68t-51.5 93.5t-27.5 111.5t-11.5 122t-2.5 123zM258 723q0 -41 0.5 -87.5t5.5 -96t15.5 -97t31.5 -86t54 -64.5q35 -26 84 -34v912q-46 -8 -78.5 -35t-53.5 -65t-33.5 -84t-18 -92.5t-6.5 -91t-1 -79.5z" />
<glyph unicode="&#xa3;" horiz-adv-x="1001" d="M82 653v62h159q-25 47 -45.5 90.5t-35.5 86t-23 85t-8 86.5q0 91 33 160.5t87.5 117t128.5 71.5t158 24q79 0 147 -23.5t118.5 -67t80.5 -106.5q30 -62 33 -139v-70h-120v43t-3 46q-11 55 -34.5 95.5t-59 68t-79.5 40.5t-97 13q-67 0 -117 -21.5t-83.5 -60.5t-50 -92.5 t-16.5 -117.5q0 -44 9 -86.5t23 -84t33.5 -81.5t41.5 -77h326v-62h-299q15 -32 29.5 -74t14.5 -83q0 -60 -13.5 -120.5t-40 -114t-64.5 -97t-85 -74.5q66 36 142 43t153 -10q38 -8 73 -19t79 -19q126 -25 230 44l38 -91q-27 -22 -51.5 -34t-50 -19t-53.5 -8.5t-67 -1.5 q-16 0 -40.5 5.5t-55 15t-64.5 19.5t-70 18q-27 5 -57 10t-63 5q-69 0 -122.5 -20t-105.5 -53q-9 11 -15.5 21.5t-12.5 20t-12 20t-15 19.5q50 40 91 83t72 91.5t48 105.5t17 124q0 47 -12.5 95t-34.5 98h-189z" />
<glyph unicode="&#xa5;" horiz-adv-x="1135" d="M48 1430h131l385 -774l384 774h134l-455 -871h294v-82h-296v-159h296v-85h-296v-233h-124v233h-298v85h298v159h-298v82h296z" />
<glyph unicode="&#xa9;" horiz-adv-x="1448" d="M99 680q0 86 21.5 165.5t63 149t98 126.5t126.5 98t150 63t165 22q87 0 167 -22t150 -63t126.5 -98t97 -126.5t63 -150t22.5 -164.5q0 -87 -22.5 -167t-63 -150t-97 -127t-126.5 -97t-149.5 -63t-167.5 -23q-86 0 -165.5 23t-149.5 63t-126.5 97t-98 127t-63 150 t-21.5 167zM185 680q0 -74 19 -143.5t54 -129t84.5 -109t109.5 -85t128.5 -54.5t142.5 -19t143.5 19t129 54.5t109 85t85 109t54.5 129t19 143.5t-19 142t-54.5 128.5t-85 110t-109 84.5t-129 54t-143.5 19t-142.5 -19t-128.5 -54t-109.5 -84.5t-84.5 -110t-54 -128.5 t-19 -142zM421 682q0 78 21 144.5t60 116t95 76.5q55 28 126 28q47 0 88 -16.5t74.5 -47.5t57.5 -75.5t37 -99.5h-70q-9 40 -26.5 71t-42 53t-54.5 32q-31 11 -64 11q-54 0 -97.5 -23t-73 -63t-44.5 -93t-15 -114q0 -59 15 -113.5t45.5 -96.5t74 -68t101.5 -26q33 0 63 12.5 t54 35t40 54.5q18 32 24 71h70q-9 -58 -31.5 -103t-56.5 -76t-75.5 -46.5t-87.5 -15.5q-71 0 -127.5 28t-97 78t-61.5 118q-22 69 -22 148z" />
<glyph unicode="&#xab;" horiz-adv-x="1001" d="M188 543v105l270 259v-115l-206 -200l206 -200v-118zM548 543v105l269 259v-115l-209 -200l209 -203v-115z" />
<glyph unicode="&#xad;" horiz-adv-x="695" d="M99 436v97h498v-97h-498z" />
<glyph unicode="&#xae;" horiz-adv-x="1448" d="M99 680q0 86 21.5 165.5t63 149t98 126.5t126.5 98t150 63t165 22q87 0 167 -22t150 -63t126.5 -98t97 -126.5t63 -150t22.5 -164.5q0 -87 -22.5 -167t-63 -150t-97 -127t-126.5 -97t-149.5 -63t-167.5 -23q-86 0 -165.5 23t-149.5 63t-126.5 97t-98 127t-63 150 t-21.5 167zM185 680q0 -74 19 -143.5t54 -129t84.5 -109t109.5 -85t128.5 -54.5t142.5 -19t143.5 19t129 54.5t109 85t85 109t54.5 129t19 143.5t-19 142t-54.5 128.5t-85 110t-109 84.5t-129 54t-143.5 19t-142.5 -19t-128.5 -54t-109.5 -84.5t-84.5 -110t-54 -128.5 t-19 -142zM501 326v707h280q19 0 37 -1.5t37 -5.5t38 -11.5t39 -21.5q16 -11 29 -27.5t22 -36t14.5 -41.5t3.5 -44q0 -47 -16 -82t-44.5 -58.5t-65.5 -36t-75 -16.5l191 -325h-87l-183 327h-146v-327h-74zM575 712h143q36 0 72.5 1.5t67.5 14t51 40.5q20 27 20 79 q0 41 -14.5 67t-38.5 39t-54 16.5t-62 3.5h-185v-261z" />
<glyph unicode="&#xbb;" horiz-adv-x="1001" d="M188 274v118l204 200l-204 200v115l270 -264v-107zM548 274v118l207 200l-207 200v115l269 -264v-107z" />
<glyph unicode="&#xbc;" horiz-adv-x="1430" d="M85 1154v72q47 3 82.5 9t63 21t45 42.5t30.5 71.5h72v-795h-94v622q-42 -27 -93 -35t-106 -8zM292 0l851 1370h91l-845 -1370h-97zM849 195v83l340 517h93v-535h73v-65h-73v-195h-90v195h-343zM923 260h269v420z" />
<glyph unicode="&#xbd;" horiz-adv-x="1430" d="M85 1154v72q47 3 82.5 9t63 21t45 42.5t30.5 71.5h72v-795h-94v622q-42 -27 -93 -35t-106 -8zM192 0l849 1370h93l-845 -1370h-97zM864 0q3 40 9.5 77.5t20 72t37 67t57.5 61.5l152 123q90 72 89 177q0 30 -5 55.5t-19 44t-38 28t-64 9.5q-41 0 -68 -15t-41 -40.5 t-20.5 -57t-6.5 -64.5h-94v40q0 47 17 86.5t47 68.5t72.5 45.5t93.5 16.5q57 0 100.5 -16.5t72 -45.5t43 -68.5t14.5 -86.5q0 -41 -10.5 -75t-29.5 -63t-46 -56q-28 -25 -61 -52l-131 -102q-19 -16 -33 -35.5t-25 -40t-17 -41.5q-7 -21 -10 -40h371v-73h-477z" />
<glyph unicode="&#xbe;" horiz-adv-x="1430" d="M53 795h87q-3 -33 5 -63.5t26.5 -52t48 -34.5t72.5 -13q70 0 108 39q38 41 38 113q0 46 -11 77.5t-34 51t-61.5 27.5t-93.5 8v80h25q27 -2 54 1.5t47.5 18t33 42.5t12.5 74q0 31 -6.5 55.5t-20 42.5t-35.5 27.5t-56 9.5q-39 0 -65 -12.5t-41 -32.5t-22 -46q-8 -27 -8 -54 h-89q0 46 13 86t40.5 68.5t70 45t101.5 16.5q48 0 88.5 -13.5t69 -39t44.5 -60.5t16 -79q0 -27 -7 -57t-25 -56.5t-46.5 -46t-69.5 -27.5q44 -9 76 -27.5t54 -44.5t33 -56t11 -60q0 -54 -14.5 -98.5t-44.5 -76t-77 -48t-111 -16.5q-63 0 -107.5 17.5t-73.5 48t-42 73 t-13 92.5zM318 0l849 1370h93l-845 -1370h-97zM875 195v83l340 517h92v-535h74v-65h-74v-195h-89v195h-343zM948 260h270v420z" />
<glyph unicode="&#xd7;" horiz-adv-x="1049" d="M129 90l331 368l-331 375l74 66l322 -366l324 366l72 -69l-332 -372l332 -368l-77 -74l-319 365l-322 -362z" />
<glyph unicode="&#xf7;" horiz-adv-x="1001" d="M104 436v97h797v-97h-797zM415 107q0 18 6 33.5t17 26.5t26.5 18t31.5 7q18 0 33.5 -7t26.5 -18t18 -26.5t7 -33.5q0 -36 -24 -59q-25 -23 -61 -23t-58.5 23t-22.5 59zM415 854.5q0 35.5 22.5 60.5t58.5 25q18 0 33.5 -7t26.5 -18t18 -26t7 -34q0 -18 -7 -32.5t-18 -25.5 t-26 -17t-34 -6q-36 0 -58.5 22.5t-22.5 58z" />
<glyph unicode="&#xe01;" horiz-adv-x="1057" d="M85 991q33 63 77.5 107.5t100 73t120.5 41.5t136 13q74 0 146 -18.5t127 -56t89 -94.5t34 -134v-923h-118v918q0 44 -19 83.5t-54.5 69.5t-87.5 48t-117 18q-53 0 -101 -12.5t-88 -34t-70 -52t-49 -65.5q11 -10 19 -25.5t15 -35t11 -41.5t4 -44v-827h-118v836 q0 52 -12 93.5t-45 61.5z" />
<glyph unicode="&#xe02;" horiz-adv-x="911" d="M62 1122v89h230l190 -1123h3l189 1123h118l-217 -1211h-186l-201 1122h-126z" />
<glyph unicode="&#xe03;" horiz-adv-x="975" d="M53 1211h89q3 -22 12 -41t25 -33t38 -21q21 -8 52 -8q27 0 51 8.5t42.5 23t31 33.5t18.5 38h104v-164q0 -62 -33.5 -120t-90.5 -116q-25 -27 -42.5 -50t-30 -47t-19.5 -50q-7 -28 -8 -61v-293q0 -57 18.5 -100t48.5 -71.5t68.5 -42.5t76.5 -14q44 0 82.5 14t68.5 41 t46 71q17 44 17 102v901h115v-908q0 -77 -29 -136.5t-75.5 -100.5t-105.5 -61.5t-119 -20.5t-119 20.5t-106 61.5t-76 100.5t-29 136.5v250q0 39 1.5 67.5t5.5 52t11.5 44t20 39.5t29.5 39q18 19 42 43q24 25 46.5 49.5t40.5 50.5t28.5 55.5t10.5 66.5v28q-18 -19 -38.5 -30 t-41 -18t-42.5 -9.5t-41 -2.5q-13 0 -31.5 2.5t-39 9.5t-42.5 19t-38.5 32.5t-28.5 51t-14 68.5z" />
<glyph unicode="&#xe04;" horiz-adv-x="1065" d="M142 0v912q0 77 30.5 134.5t82.5 98t123 61t155 20.5q82 0 154 -20.5t124 -61t82 -98.5q30 -57 30 -134v-912h-115v910q0 44 -15 83.5t-47 71.5t-85 52t-128 20q-77 0 -129 -16.5t-84 -46.5t-46 -72.5t-14 -91.5v-409q29 58 64.5 97t77.5 61.5t92 30.5q49 7 106 3v-107 q-78 11 -140.5 -7.5t-107 -60t-68.5 -104.5t-24 -143v-271h-118z" />
<glyph unicode="&#xe05;" horiz-adv-x="1085" d="M142 0v926q0 60 18 111t52.5 89t83.5 64.5t111 35.5l136 -155l128 158q63 -10 113 -36t85 -64t54.5 -90.5t19.5 -112.5v-926h-118v923q0 36 -5.5 64t-20 52t-37 43t-58.5 35l-159 -174l-167 174q-33 -17 -55.5 -37t-36 -44.5t-20 -52t-6.5 -60.5v-422q29 58 64.5 97 t77.5 61.5t92 30.5q49 7 106 3v-107q-78 11 -140.5 -7.5t-107 -60t-68.5 -104.5t-24 -143v-271h-118z" />
<glyph unicode="&#xe06;" horiz-adv-x="1065" d="M70 1211h89q3 -22 12.5 -41t24.5 -33t38.5 -21.5t51.5 -7.5t51 8.5t41.5 23t31.5 33.5q15 19 20 38h103v-164q0 -66 -33.5 -123t-89.5 -113q-25 -27 -43.5 -50t-31 -47t-19.5 -50q-6 -28 -6 -61v-182q0 -28 2.5 -56.5t8 -57t16.5 -53.5q11 -24 25 -46q42 -61 104.5 -95 t130.5 -34q61 0 101 17.5t65 47.5t35 72t10 90v905h115v-919q0 -74 -21.5 -131t-59.5 -95.5t-90.5 -57.5t-114.5 -19q-52 0 -96.5 7t-85 26t-78 53.5t-74.5 87.5v-163h-111v553q0 58 3.5 95.5t15 68.5t32.5 58.5t57 62.5q25 25 48 49.5t40.5 50.5t28 55.5t10.5 66.5v28 q-17 -19 -37.5 -30t-42 -18t-42.5 -10q-23 -2 -42 -2q-14 0 -31.5 2.5t-38 9.5t-42 19t-38.5 32.5t-29.5 51t-13.5 68.5z" />
<glyph unicode="&#xe07;" horiz-adv-x="854" d="M96 690h118l182 -537q12 -32 37 -54t63 -22q19 0 37.5 7.5t31.5 21t21.5 32t8.5 39.5v945h-140v89h257v-1005q0 -50 -16 -91t-45 -71t-68.5 -46.5t-89.5 -16.5q-41 0 -74 10t-59.5 30t-45 47.5t-30.5 60.5z" />
<glyph unicode="&#xe08;" horiz-adv-x="931" d="M107 893q4 71 29.5 131.5t72 105.5t113.5 70.5t155 25.5q44 0 87.5 -7.5t84.5 -26.5t75.5 -50t58 -78t33.5 -110.5t3 -147.5q-5 -61 -17.5 -126.5t-30 -134t-39.5 -140t-46 -140.5t-48 -136t-46 -129h-165l-180 603h-126v87h208l181 -613q27 85 56 171t54 174t45 174 t31 170q11 79 7 147t-29.5 116t-74 75.5t-125.5 27.5q-108 0 -169 -60.5t-72 -178.5h-126z" />
<glyph unicode="&#xe09;" horiz-adv-x="1031" d="M126 948q6 70 41.5 122.5t88 87.5t119 53t135.5 18q72 0 140.5 -17t121.5 -53t85 -93.5t32 -136.5v-929h-108v182q-38 -53 -79.5 -91.5t-85 -62t-89 -34t-94.5 -10.5q-63 0 -116 19t-92 57.5t-61 95t-22 130.5v404h118v-384q0 -55 11 -97.5t36 -70.5t64.5 -42t99.5 -14 q37 0 74 12.5t70.5 33t60.5 45.5q25 24 42 49q30 47 43 99t13 115v493q0 99 -67 153q-69 55 -197 55q-55 0 -100.5 -13.5t-79 -38.5t-55.5 -59t-31 -78h-118z" />
<glyph unicode="&#xe0a;" horiz-adv-x="972" d="M85 1117v86q60 11 103 14q42 4 64 4q90 0 139.5 -48t49.5 -135q0 -41 -12.5 -72.5t-30 -58.5t-39.5 -53q-22 -24 -38 -51q-17 -23 -25 -45t-12.5 -46t-5 -54.5t-0.5 -68.5v-266q0 -59 16.5 -104.5t45.5 -77t68 -48t85.5 -16.5t87.5 15.5t70 46.5t45 77.5t16 106.5v263 q0 52 -6.5 86.5t-20.5 58t-32.5 35.5t-42.5 17.5t-51 7t-60 4.5v86q63 3 106 24t69 63.5t37.5 103t11.5 139.5h129q0 -40 -4 -80t-14.5 -78.5t-27.5 -73.5t-44.5 -63t-64.5 -47.5t-89 -27.5q48 -5 83.5 -20t60.5 -37t40.5 -47.5t24 -52t11 -51.5t2.5 -44v-300 q0 -52 -13.5 -94t-37 -76t-56.5 -58.5t-70 -41t-78 -25t-82 -8.5q-60 0 -120.5 18.5t-107 56.5t-76.5 94.5t-30 133.5v300q0 58 4 97t13.5 69t27.5 56t45 59q20 19 36 39t29 40t20.5 39.5t7.5 41.5q0 30 -8 49.5t-23 31.5t-36.5 17.5t-47.5 5.5q-42 0 -78.5 -5.5 t-63.5 -11.5z" />
<glyph unicode="&#xe0b;" horiz-adv-x="1028" d="M64 1211h89q3 -22 12 -41t25 -33t39 -21.5t52 -7.5q27 0 50.5 8.5t42 23t30.5 33.5t19 38h104v-173q0 -61 -28.5 -115t-86.5 -112q-24 -27 -38.5 -50t-23 -47t-12.5 -50q-4 -28 -4 -61v-280q0 -59 16.5 -104.5t45.5 -77t68.5 -48t86 -16.5t86.5 15.5t69.5 46.5t46 77.5 t16.5 106.5v263q0 52 -7.5 86.5t-20 58t-32 35.5t-42.5 17.5t-52 7t-59 4.5v86q63 3 105.5 24t68.5 63.5t37 103t14 139.5h129q0 -40 -5.5 -80t-15 -78.5t-27.5 -73.5t-45 -63t-64.5 -47.5t-86.5 -27.5q48 -5 83 -20t59.5 -37t39.5 -47.5t23.5 -52t11.5 -51.5t3 -44v-300 q0 -52 -13.5 -94t-37.5 -76t-56 -58.5t-70 -41t-78 -24.5q-39 -9 -80 -9t-82.5 8.5t-77.5 25t-68.5 41t-55.5 58.5t-37 76.5t-14 93.5v264q0 58 3 97.5t11 71.5t26 59t47 57q24 26 45.5 51t38 50t25.5 54.5t9 66.5v28q-18 -19 -38 -30t-41 -18t-43 -10q-22 -2 -41 -2 q-14 0 -32 2.5t-38.5 9.5t-41.5 19t-38.5 32.5t-29.5 51t-14 68.5z" />
<glyph unicode="&#xe0c;" horiz-adv-x="1615" d="M85 991q33 60 78 104.5t100 73t118 43t129 14.5q78 0 149 -20t124.5 -59t85.5 -95t32 -129v-482q0 -35 3 -62.5t10 -52.5t15 -45.5t19 -42.5t33.5 -49t52.5 -50.5t65 -38.5t68 -15q54 0 90 15t58 44.5t31 72.5t9 98v896h118v-914q0 -74 -20 -130.5t-55.5 -95t-82 -57.5 t-100.5 -19q-41 0 -82.5 10t-83 32.5t-81 58.5t-75.5 86v-182h-109v923q0 46 -20 85t-56.5 67.5t-86.5 45.5q-51 16 -111 16q-50 0 -95.5 -12.5t-85.5 -34t-71 -52t-50 -65.5q11 -10 20.5 -25.5t16.5 -35t11 -41.5t4 -44v-734h129v-93h-247v836q0 50 -14 92q-13 42 -43 63z " />
<glyph unicode="&#xe0d;" horiz-adv-x="1630" d="M85 993q33 63 78 107.5t100.5 73.5t119.5 42t131 13q78 0 148.5 -20t124 -57.5t85.5 -94.5t32 -131v-589q0 -55 12.5 -101.5t37 -80t63 -52t89.5 -18.5q57 0 105.5 26t84.5 68.5t56.5 96t20.5 108.5v831h115v-1133q0 -100 -19.5 -184t-63 -146t-115 -96t-173.5 -34 q-59 0 -112.5 13.5t-97.5 43t-75.5 74t-42.5 105.5h107q8 -39 31.5 -66.5t53.5 -45t64.5 -26.5t68.5 -9q74 0 125.5 25.5t81.5 65t43.5 90t13.5 100.5v174q-35 -54 -70 -87.5t-71.5 -52t-75.5 -25.5q-40 -6 -81 -6q-52 0 -104.5 17t-95 52.5t-68.5 89.5t-26 130v639 q0 47 -19.5 86.5t-56 68.5t-86 45.5t-110.5 16.5q-50 0 -96.5 -12.5t-86 -34.5t-70.5 -52t-50 -66q11 -11 19 -27t15 -35.5t11 -41.5t4 -41v-734h129v-96h-247v838q0 52 -12 94t-45 61z" />
<glyph unicode="&#xe0e;" horiz-adv-x="1085" d="M38 0v96h115v742q0 55 -15 96t-50 59q33 63 79.5 107.5t105.5 73.5t125 42t138 13q74 0 146.5 -21.5t130.5 -62.5t94 -100t36 -135v-1302h-126q-18 22 -40.5 44t-52 40.5t-69 30t-88.5 11.5q-35 0 -69.5 -11t-66.5 -28.5t-61.5 -41t-57.5 -49.5v130q24 19 50.5 37.5 t58 34.5t67.5 25q38 10 79 10q49 0 89 -9.5t71.5 -23.5t56 -30t41.5 -30v1162q0 49 -22 90t-62 72.5t-92 49.5t-113 18q-55 0 -105 -12.5t-92 -34.5t-74 -52t-49 -66q10 -11 19 -27t17 -35.5t12.5 -41.5t4.5 -41v-830h-231z" />
<glyph unicode="&#xe0f;" horiz-adv-x="1085" d="M38 0v96h115v742q0 55 -15 96t-50 59q33 63 79.5 107.5t105.5 73.5t125 42t138 13q74 0 146.5 -21.5t130.5 -62.5t94 -100t36 -135v-1302h-121q-8 26 -23 48.5t-34.5 40t-42.5 27.5t-51 10q-26 0 -50 -13t-41.5 -31.5t-30.5 -40.5q-12 -22 -16 -41h-92q-4 17 -14.5 38.5 t-27.5 41t-41 33t-55 13.5q-28 0 -51 -11.5t-40 -30t-27.5 -40.5t-13.5 -44h-104q3 48 22 88.5t50 70t69.5 46t83.5 16.5q29 0 57 -6.5t53 -20t48 -36.5q21 -22 38 -55q16 33 36.5 55.5t44 37.5t46.5 21t48 6q47 0 88 -15.5t74 -53.5v1145q0 47 -20.5 88.5t-59 73.5 t-92 51.5t-117.5 19.5q-55 0 -105 -12.5t-92 -34.5t-74 -52t-49 -66q10 -11 19 -27t17 -35.5t12.5 -41.5t4.5 -41v-830h-231z" />
<glyph unicode="&#xe10;" horiz-adv-x="923" d="M99 -370q0 49 15 85t39 59t54 35q29 12 59 12q44 0 85 -21.5t61 -57.5q10 20 25 34t33.5 24.5t39.5 15.5q22 5 41 5q41 0 72.5 -17.5t56.5 -44.5v99h94v-228h-100q-5 19 -15 37.5t-25 33t-32.5 22.5t-39.5 8t-42.5 -8.5t-36.5 -23t-26 -32.5t-13 -37h-66 q-3 19 -10.5 38.5t-20.5 33t-30 23t-39 9.5q-25 0 -41 -9.5t-26.5 -24.5t-14.5 -33t-4 -37h-93zM107 893q4 71 29.5 131.5t72 105.5t113.5 70.5t155 25.5q49 0 97 -9t92 -33q30 5 52.5 16.5t38.5 26t25.5 29.5t14.5 32h135q-5 -22 -19 -44t-39.5 -42.5t-62 -37t-85.5 -27.5 q25 -23 44 -55.5t32 -73.5t18 -91.5t-0.5 -111t-18 -126t-30 -134t-39.5 -140t-46 -140.5t-48 -136t-46 -129h-165l-186 614h-120v76h208l181 -613q27 85 56 171t54 174t45 174t31 170q11 79 7 147t-29.5 116t-74 75.5t-125.5 27.5q-108 0 -169 -60.5t-72 -178.5h-126z" />
<glyph unicode="&#xe11;" horiz-adv-x="1111" d="M64 1211h89q3 -22 12 -41t25 -33t39 -21.5t52 -7.5q27 0 50.5 8.5t42 23t30.5 33.5t19 38h104v-167q46 48 85.5 83t78 57.5t74 33.5t73.5 11q32 0 56 -9t40.5 -31t24.5 -58t8 -90v-1041h-118v1033q0 16 -0.5 32.5t-5.5 31.5t-15.5 25t-27.5 10q-27 0 -65.5 -27.5 t-82.5 -70t-88.5 -96.5t-83.5 -108.5t-70 -103.5t-46 -83q-16 -33 -23.5 -62.5t-11 -54.5t-3.5 -45.5v-39.5v-441h-115v407v54t1.5 51.5t7 49t16.5 46.5q9 22 23 49.5t30.5 57.5t34 61.5t35.5 61.5q19 36 33 66t21.5 59t8.5 58.5t-1 66.5q-18 -19 -38 -30t-41 -18t-43 -10 q-22 -2 -41 -2q-14 0 -32 2.5t-38.5 9.5t-41.5 19t-38.5 32.5t-29.5 51t-14 68.5z" />
<glyph unicode="&#xe12;" horiz-adv-x="1689" d="M142 0v912q0 61 21 111t57 89t86 64q50 24 112 35l141 -151l134 155q63 -9 115 -35t88.5 -64.5t56.5 -90.5t20 -113v-471q0 -35 4 -62.5t10 -52.5t15 -45.5t20 -42.5t33 -49t52 -50.5t64.5 -38.5t68.5 -15q53 0 90 15t59 44.5t31.5 72.5t9.5 98v896h115v-914 q0 -74 -19.5 -130.5t-54.5 -95t-82.5 -57.5t-100.5 -19q-41 0 -83 10t-83 32.5t-80 58.5t-78 86v-182h-109v910q0 74 -34 120q-35 47 -98 73l-164 -174l-167 174q-33 -14 -57.5 -31.5t-41 -41t-25 -53t-8.5 -65.5v-767l310 461h-155v84h254v-98l-400 -592h-127z" />
<glyph unicode="&#xe13;" horiz-adv-x="1617" d="M88 991q33 60 78 104.5t100 72.5t118 41.5t130 13.5q78 0 148.5 -19.5t124 -59.5t85.5 -98q32 -57 32 -134v-600q0 -52 8.5 -94.5t29 -72.5t54.5 -45t86 -15q33 0 68.5 14.5t66 37t55 50t35.5 51.5q22 43 36.5 93t14.5 116v764h117v-1211h-110v192q-36 -52 -76 -90.5 t-81 -62t-82 -34t-82 -10.5q-55 0 -102 19t-82 56.5t-54.5 94.5t-19.5 132v610q0 55 -19.5 97.5t-56 71t-86 43.5t-110.5 15q-50 0 -96.5 -12t-86 -34t-70.5 -52t-50 -66q11 -10 19 -25.5t15 -35t11 -41t4 -43.5v-732h129v-93h-247v833q0 25 -2.5 49.5t-9.5 45t-17 36.5 q-9 17 -25 27z" />
<glyph unicode="&#xe14;" horiz-adv-x="1100" d="M142 0v899q0 76 32 136.5t86.5 103t128.5 65t159 22.5t159 -22.5t130 -65t88 -103.5q31 -60 31 -136v-899h-118v893q0 52 -16 96t-52 77t-90.5 52t-131.5 19t-131 -19t-89 -51.5t-51.5 -77t-16.5 -96.5v-748l310 461h-155v84h254v-98l-400 -592h-127z" />
<glyph unicode="&#xe15;" horiz-adv-x="1116" d="M142 0v923q0 61 21 111.5t57 89t86 64.5t112 35l141 -152l134 155q63 -9 115 -35.5t88.5 -64.5t56.5 -90t20 -113v-923h-118v907q0 37 -5.5 68t-20.5 57t-40 47t-63 38l-167 -174q-3 0 -3 -1.5t3 -1.5l-3 3l-160 174q-71 -32 -104 -85q-32 -51 -32 -125v-762l310 461 h-155v84h254v-98l-400 -592h-127z" />
<glyph unicode="&#xe16;" horiz-adv-x="1057" d="M85 991q33 63 77.5 107.5t100 73t120 41.5t136.5 13q74 0 146 -18.5t127 -56t89 -94.5t34 -134v-923h-118v918q0 44 -19 83.5t-54.5 69.5t-87.5 48t-117 18q-53 0 -101 -12.5t-88 -34t-70 -52t-49 -65.5q11 -10 19 -25.5t15 -35t11 -41.5t4 -44v-734h129v-93h-247v836 q0 52 -12 93.5t-45 61.5z" />
<glyph unicode="&#xe17;" horiz-adv-x="1057" d="M142 0v1211h116v-192q68 104 158.5 155.5t197.5 51.5q63 0 117.5 -18.5t96 -57t64.5 -95t23 -132.5v-923h-118v915q0 52 -13 93t-39.5 70t-69 44t-102.5 15q-65 0 -121.5 -29.5t-99 -78t-67.5 -111.5t-25 -129v-789h-118z" />
<glyph unicode="&#xe18;" horiz-adv-x="1009" d="M137 964.5q0 57.5 24 106t68.5 85t107 56.5t140.5 20q85 0 152 -17.5t115 -53.5t75.5 -91.5t29.5 -129.5h-117q-6 94 -66 147t-176 53q-54 0 -96.5 -14t-73 -35.5t-46.5 -52t-16 -63.5q0 -43 19.5 -73.5t51 -52.5t70.5 -38t78 -30q98 -36 172 -67.5t122 -68.5t72 -86 t24 -121v-154q0 -77 -30.5 -132.5t-81.5 -92.5t-116.5 -55t-134.5 -18q-68 0 -132.5 19.5t-115 57.5t-82.5 97t-32 140v278h118v-266q0 -54 16.5 -98t47.5 -74t77 -45.5t103 -15.5q119 0 183.5 63.5t64.5 183.5v110q0 38 -13 67.5t-35 52t-50.5 40.5t-61.5 31.5t-67 25.5 q-35 13 -67 24q-69 24 -128 50.5t-101.5 59t-67 76.5t-24.5 101.5z" />
<glyph unicode="&#xe19;" horiz-adv-x="1057" d="M142 289v922h118v-914q0 -52 13 -93.5t40 -70t69.5 -42.5t102.5 -14q41 0 80 13.5t73.5 38t64 59t50 73t32.5 80t12 82.5v788h118v-1211h-115v195q-68 -105 -158.5 -157t-197.5 -52q-63 0 -118 19.5t-96 57t-64.5 94.5t-23.5 132z" />
<glyph unicode="&#xe1a;" horiz-adv-x="1057" d="M142 323v888h118v-885q0 -55 20.5 -100t56.5 -76.5t85 -48t108 -16.5t108.5 16.5t84.5 48t54 75.5q20 46 20 101v885h118v-888q0 -79 -32 -140.5t-85.5 -105t-123.5 -66t-144 -22.5q-77 0 -146 22.5t-122.5 66t-86.5 105t-33 140.5z" />
<glyph unicode="&#xe1b;" horiz-adv-x="1057" d="M142 323v888h118v-885q0 -55 20.5 -100t56.5 -76.5t85 -48t108 -16.5t108.5 16.5t84.5 48t54 75.5q20 46 20 101v1334h118v-1337q0 -79 -32 -140.5t-85.5 -105t-123.5 -66t-144 -22.5q-77 0 -146 22.5t-122.5 66t-86.5 105t-33 140.5z" />
<glyph unicode="&#xe1c;" horiz-adv-x="1143" d="M142 252v959h247v-89h-129v-867q0 -49 7.5 -82t22 -53.5t35 -29t48.5 -8.5q38 0 65.5 20.5t44 57t24 85t7.5 106.5v342h118v-342q0 -58 8.5 -106.5t27 -85t47 -57t66.5 -20.5q22 0 39.5 8.5t31.5 29t21 53.5q8 33 8 82v956h120v-959q0 -71 -13.5 -122t-40 -82.5 t-68 -46.5t-95.5 -15q-72 0 -126.5 44t-84.5 136q-11 -47 -33 -80.5t-49 -55.5t-57.5 -33t-63.5 -11q-59 0 -102 15t-70.5 48t-41.5 83q-14 49 -14 120z" />
<glyph unicode="&#xe1d;" horiz-adv-x="1143" d="M142 252v959h247v-89h-129v-867q0 -49 7.5 -82t22 -53.5t35 -29t48.5 -8.5q38 0 65.5 20.5t44 57t24 85t7.5 106.5v342h118v-342q0 -58 8.5 -106.5t27 -85t47 -57t66.5 -20.5q22 0 39.5 8.5t31.5 29t21 53.5q8 33 8 82v1403h120v-1406q0 -71 -13.5 -122t-40 -82.5 t-68 -46.5t-95.5 -15q-72 0 -126.5 44t-84.5 136q-11 -47 -33 -80.5t-49 -55.5t-57.5 -33t-63.5 -11q-59 0 -102 15t-70.5 48t-41.5 83q-14 49 -14 120z" />
<glyph unicode="&#xe1e;" horiz-adv-x="1333" d="M104 1211h129l118 -784l45 -312l53 306l151 790h132l154 -790l54 -303l45 309l118 784h126q-25 -153 -51.5 -304t-52.5 -301.5t-52 -301.5t-51 -304h-149q-44 229 -86 455.5t-86 456.5l-32 196l-35 -196l-174 -912h-145z" />
<glyph unicode="&#xe1f;" horiz-adv-x="1330" d="M104 1211h129l118 -784l45 -312l53 306l151 790h132l154 -790l54 -303l45 309l190 1233h127q-14 -76 -29 -171.5t-33.5 -203t-38.5 -223t-40 -233t-40 -233t-37.5 -223t-34 -202t-27.5 -171.5h-149q-44 229 -86 455.5t-86 456.5l-32 196l-35 -196l-174 -912h-145z" />
<glyph unicode="&#xe20;" horiz-adv-x="1054" d="M38 0v90h115v746q0 50 -13.5 92t-43.5 63q33 60 76.5 104.5t98 73t118 43t133.5 14.5q74 0 144.5 -19t125.5 -59t87.5 -101t32.5 -143v-904h-117v899q0 116 -71 177t-202 61q-53 0 -100 -12.5t-86 -34t-67.5 -52t-46.5 -65.5q11 -10 19 -25.5t15 -35t10 -41.5t3 -44v-827 h-231z" />
<glyph unicode="&#xe21;" horiz-adv-x="1057" d="M142 0v1211h118v-788q0 -46 15 -95.5t43 -91.5q22 -36 52.5 -65t66.5 -50t74 -32.5t75 -11.5q55 0 95 15t66 43.5t38 70t12 91.5v914h118v-922q0 -77 -24.5 -133t-66.5 -93.5t-100 -57t-127 -19.5q-107 0 -191.5 52t-147.5 157v-195h-116z" />
<glyph unicode="&#xe22;" horiz-adv-x="1031" d="M115 332q0 30 3 61.5t11 63t24.5 63t43 59t66.5 49t96 38.5q-80 22 -127.5 54t-72.5 71t-33 80t-8 80q0 52 13.5 91.5t37 68.5t54 48t64.5 31.5t68 16.5t66 4h104v-92h-84q-16 0 -36.5 -2t-44 -7.5t-45.5 -16.5t-39.5 -30t-28.5 -47t-11 -68q0 -66 21 -110.5t54.5 -71 t76 -39t83.5 -15.5h54v-90h-54q-28 0 -57 -5t-55.5 -18t-49.5 -34t-40 -53t-26.5 -76t-9.5 -101.5t15.5 -106.5t49.5 -83t86 -53t126 -19q71 0 121.5 19.5t82 55.5t46 83.5t14.5 102.5v877h115v-888q0 -76 -24.5 -139t-73 -107.5t-118.5 -68.5t-163 -24q-87 0 -159 21 t-124.5 64t-82 109t-29.5 154z" />
<glyph unicode="&#xe23;" horiz-adv-x="857" d="M82 306h124q-2 -44 9.5 -86t37 -75t65.5 -52.5t94 -19.5q51 0 92 14t71.5 45.5t46 79.5t15.5 117q0 60 -22.5 104t-55.5 75.5t-73.5 54.5t-75.5 40q-58 27 -112 58.5t-98 71.5t-70 90.5t-26 116.5q0 68 25.5 122.5t68 92t98 57.5t116.5 20q77 0 134 -19.5t95.5 -56.5 t59 -91t22.5 -125h-115q-2 45 -16 81.5t-37 63t-57.5 41t-76.5 14.5q-39 0 -74 -12.5t-62 -35.5t-44 -58q-16 -37 -16 -83q0 -51 21 -88.5t53.5 -65.5t69.5 -50q39 -21 72 -37q60 -30 116.5 -64t100 -77.5t70.5 -100.5t27 -131q0 -79 -20.5 -145t-62.5 -113t-106.5 -72.5 t-153.5 -25.5q-68 0 -129.5 20.5t-107 61.5t-71 101.5t-22.5 141.5z" />
<glyph unicode="&#xe24;" horiz-adv-x="1057" d="M85 991q33 63 77.5 107.5t100 73t120 41.5t136.5 13q74 0 146 -18.5t127 -56t89 -94.5t34 -134v-1315h-118v1310q0 44 -19 83.5t-54.5 69.5t-87.5 48t-117 18q-53 0 -101 -12.5t-88 -34t-70 -52t-49 -65.5q11 -10 19 -25.5t15 -35t11 -41.5t4 -44v-734h129v-93h-247v836 q0 52 -12 93.5t-45 61.5z" />
<glyph unicode="&#xe25;" horiz-adv-x="1031" d="M99 323q0 17 2.5 51t18.5 74t48 79.5t90 67.5q28 13 69.5 27t87 27.5t93.5 27t90.5 27.5t76.5 27q32 13 51 27q17 12 26.5 27t15 33t5.5 40q1 24 1 52q0 60 -19 102.5t-54 70t-83 41t-108 13.5q-62 0 -108 -16.5t-79 -45t-50.5 -71t-23.5 -94.5h-120q5 82 38 142t86 98.5 t122.5 57t151.5 18.5q83 0 141 -18.5t98.5 -47t64.5 -64.5t37 -71.5t17 -65.5t4 -47v-912h-115v674q-52 -30 -110 -49t-116 -35.5t-115.5 -33t-106.5 -40.5q-33 -16 -55 -36t-34 -46t-16.5 -56t-4.5 -66q0 -50 15.5 -92t46 -71.5t74.5 -45.5q45 -15 100 -15h29t29 5v-85 q-21 -8 -45.5 -12t-43.5 -4q-83 0 -144 22t-100.5 63.5t-58.5 103.5q-19 63 -19 142z" />
<glyph unicode="&#xe26;" horiz-adv-x="1054" d="M38 0v90h115v746q0 50 -13.5 92t-43.5 63q33 60 76.5 104.5t98 73t118 43t133.5 14.5q74 0 144.5 -19t125.5 -59t87.5 -101t32.5 -143v-1296h-117v1291q0 116 -71 177t-202 61q-53 0 -100 -12.5t-86 -34t-67.5 -52t-46.5 -65.5q11 -10 19 -25.5t15 -35t10 -41.5t3 -44 v-827h-231z" />
<glyph unicode="&#xe27;" horiz-adv-x="894" d="M90 830q3 80 25 152.5t64.5 127t105.5 87t145 32.5q80 0 147 -31t115 -103t75.5 -193t27.5 -302q0 -63 -6.5 -133t-21.5 -139.5t-41 -132t-65.5 -110.5t-95 -76t-129.5 -28t-129.5 22t-94.5 61.5t-64 92.5q-25 51 -36 112h126q9 -39 24 -74t39.5 -62.5t57.5 -43.5t77 -16 q46 0 80.5 19.5t60.5 54t42.5 83.5t27.5 108t15 125t4 137q0 52 -1.5 112.5t-8.5 119t-22 114t-41.5 97.5t-66.5 68q-38 26 -96 26q-60 0 -103 -28.5t-70 -73t-38 -99t-11 -106.5h-118z" />
<glyph unicode="&#xe28;" horiz-adv-x="1068" d="M142 0v912q0 77 30.5 134.5t82.5 98t123 61t155 20.5q57 0 108.5 -10t95.5 -30q36 3 64 15.5t48 30t30.5 38.5t16.5 37h132q-5 -23 -19 -47t-41 -47.5t-66 -41t-91 -26.5q52 -41 82 -98.5t30 -134.5v-912h-115v910q0 44 -15 83.5t-47 71.5t-85 52t-128 20 q-77 0 -129 -16.5t-84 -46.5t-46 -72.5t-14 -91.5v-409q29 58 64.5 97t77.5 61.5t92 30.5q49 7 106 3v-107q-78 11 -140.5 -7.5t-107 -60t-68.5 -104.5t-24 -143v-271h-118z" />
<glyph unicode="&#xe29;" horiz-adv-x="1057" d="M142 323v888h118v-885q0 -55 20.5 -100t56.5 -76.5t85 -48t108 -16.5t108.5 16.5t84.5 48t54 75.5q20 46 20 101v274h-323v197h110v-109h213v523h118v-523h110v-88h-110v-277q0 -79 -32 -140.5t-85.5 -105t-123.5 -66t-144 -22.5q-77 0 -146 22.5t-122.5 66t-86.5 105 t-33 140.5z" />
<glyph unicode="&#xe2a;" horiz-adv-x="1031" d="M110 323q0 11 1 30.5t6 44t15 51t27.5 53.5t44 51t65.5 42q28 13 69 27t87 27.5t94 27t90.5 27.5t76.5 27q32 13 51 27q17 12 27 27t15 33t6 40q1 24 1 52q0 60 -19 102.5t-54 70t-83.5 41t-107.5 13.5q-63 0 -109 -16.5t-79 -45t-50.5 -71t-23.5 -94.5h-120q5 82 38 142 t85.5 98.5t122.5 57t152 18.5q62 0 110 -11.5t84 -28.5q35 3 61 16t45.5 30t30.5 38t15 37h133q-5 -23 -20 -47t-41.5 -47.5t-66.5 -41t-92 -26.5q33 -30 53.5 -64t31.5 -66.5t15 -59.5q4 -26 4 -43v-912h-115v674q-52 -30 -111 -49t-116.5 -35.5l-115 -33t-106.5 -40.5 q-34 -16 -55.5 -36t-33.5 -46t-16.5 -56t-4.5 -66q0 -50 16 -92t47 -71.5t74.5 -45t98.5 -15.5h28t31 5v-85q-22 -8 -46 -12t-43 -4q-84 0 -145 22t-100.5 63.5t-58.5 103.5q-19 63 -19 142z" />
<glyph unicode="&#xe2b;" horiz-adv-x="1068" d="M145 0v1211h118v-526l521 526h126l-220 -220q68 -28 111.5 -67t69 -89t36.5 -109.5t11 -128.5v-597h-118v619q0 50 -11.5 96.5t-34 86t-57 69.5t-81.5 47l-353 -359v-559h-118z" />
<glyph unicode="&#xe2c;" horiz-adv-x="1274" d="M107 1211h120l124 -1115h5l200 895h118l199 -895h5l102 737q4 30 6.5 63t2 62.5t-7 56t-22 47t-41.5 33.5q-28 13 -66 16l-8 73q52 2 98.5 17.5t81 40t55 58.5t24.5 78h137q-8 -49 -29.5 -89t-56.5 -69t-81 -49q-48 -20 -103 -28q55 -17 85 -47t41 -67t9.5 -77t-5.5 -77 l-141 -875h-159l-184 852h-5l-181 -852h-161z" />
<glyph unicode="&#xe2d;" horiz-adv-x="1071" d="M132 653v37h345v-90h-217q0 -115 14.5 -212.5t45.5 -168t83 -110t130 -39.5q81 0 134.5 39t85 109t43.5 166t12 211q0 146 -15.5 248t-49 166.5t-85.5 94.5t-125 30q-47 0 -86 -13t-70.5 -40t-54 -70.5t-36.5 -103.5h-130q36 156 130.5 237.5t246.5 81.5q104 0 180 -39 t126 -113t74 -181t24 -240q0 -128 -12.5 -229t-37 -176t-60 -127.5t-80 -84t-98.5 -45t-116 -13.5q-60 0 -113 13.5t-98 46t-80 84.5t-59 126.5t-37.5 175.5t-13.5 229z" />
<glyph unicode="&#xe2e;" horiz-adv-x="1071" d="M132 653v37h345v-90h-217q0 -115 14.5 -212.5t45.5 -168t83 -110t130 -39.5q81 0 134.5 39t85 109t43.5 166t12 211q0 146 -16.5 248t-50.5 166.5t-86 94.5t-122 30q-47 0 -86 -13t-70.5 -40t-54 -70.5t-36.5 -103.5h-130q36 156 130.5 237.5t246.5 81.5 q60 0 108.5 -13.5t90.5 -37.5q32 3 59 17t45.5 32.5t29.5 39.5t15 38h133q-4 -24 -20 -49t-43.5 -48.5t-68.5 -42.5t-93 -28q77 -71 112.5 -193t35.5 -288q0 -128 -12.5 -229t-37 -176t-60 -127.5t-80 -84t-98.5 -45t-116 -13.5q-60 0 -113 13.5t-98 46t-80 84.5t-59 126.5 t-37.5 175.5t-13.5 229z" />
<glyph unicode="&#xe2f;" horiz-adv-x="1031" d="M118 951q0 71 27.5 121t70.5 81t93.5 44.5t97.5 13.5h118v-82h-84q-16 0 -36.5 -3t-44 -9.5t-45.5 -19t-39.5 -31.5t-28.5 -48.5t-11 -69.5q0 -38 11 -76.5t38 -68.5t74 -49.5t118 -19.5q72 0 127.5 15t93.5 45.5t57 78.5t19 112v226h115v-1211h-115v766 q-27 -36 -60.5 -60t-72 -38.5t-79.5 -21t-82 -6.5q-91 0 -158 22.5t-112.5 63t-68.5 97.5t-23 128z" />
<glyph unicode="&#xe30;" horiz-adv-x="650" d="M134 206v180h115v-89h294v-91h-409zM134 830v184h115v-91h294v-93h-409z" />
<glyph unicode="&#xe31;" d="M-619 1411v189h103v-93h561v-96h-664z" />
<glyph unicode="&#xe32;" horiz-adv-x="830" d="M27 945q6 69 35.5 121t74.5 87.5t102.5 54t119.5 18.5q63 0 122 -18.5t105.5 -57t74 -98.5t27.5 -140v-912h-118v901q0 61 -15 104.5t-42.5 72.5t-67 44t-86.5 15q-41 0 -76.5 -13.5t-63 -38.5t-46.5 -60q-20 -36 -25 -80h-121z" />
<glyph unicode="&#xe33;" horiz-adv-x="830" d="M-386 1566q0 36 12 66t35.5 52.5t53.5 36t63 13.5q36 0 66 -13.5t53.5 -36t36.5 -53.5t13 -65t-13 -64.5t-36.5 -53t-53.5 -35.5t-66 -13q-33 0 -63 13t-53.5 35.5t-35.5 53t-12 64.5zM-300 1565.5q0 -16.5 6 -30.5t17 -25t25 -16.5t30 -5.5t31.5 5.5t26.5 16.5t17.5 26 t6.5 30q0 16 -6.5 30.5t-17.5 25.5t-26.5 18t-31.5 7t-30 -7t-25 -18t-17 -25.5t-6 -31zM27 945q6 69 35.5 121t74.5 87.5t102.5 54t119.5 18.5q63 0 122 -18.5t105.5 -57t74 -98.5t27.5 -140v-912h-118v901q0 61 -15 104.5t-42.5 72.5t-67 44t-86.5 15q-41 0 -76.5 -13.5 t-63 -38.5t-46.5 -60q-20 -36 -25 -80h-121z" />
<glyph unicode="&#xe34;" d="M-899 1411l50 96h707v-96h-757z" />
<glyph unicode="&#xe35;" d="M-899 1411l50 96h602v182h105v-278h-757z" />
<glyph unicode="&#xe36;" d="M-899 1411l50 96h465q-8 19 -10 33t-2 16q0 30 11.5 56.5t32 47t47 32t56.5 11.5t56 -11.5t46 -32t31.5 -47t11.5 -56.5t-11.5 -56t-31.5 -46t-47 -31q-25 -12 -55 -12h-11h-639zM-323 1554q0 -14 6 -28t16.5 -23.5t23.5 -14.5q14 -6 28 -6q15 0 28 5.5t22.5 15 t15.5 23.5t6 28q0 15 -6 28.5t-15.5 24t-23.5 16t-27.5 5.5t-27 -5.5t-24 -16t-16.5 -24t-6 -28.5z" />
<glyph unicode="&#xe37;" d="M-899 1411l50 96h348v182h102v-182h152v182h105v-278h-757z" />
<glyph unicode="&#xe38;" d="M-342 -174h202v-401h-112v297h-90v104z" />
<glyph unicode="&#xe39;" d="M-699 -174h203v-182q0 -137 121 -137q120 0 120 137v182h113v-182q-2 -44 -15 -84.5t-40.5 -71.5t-71 -48.5t-106.5 -17.5q-65 0 -109.5 17.5t-72 48.5t-39.5 71.5t-12 84.5v90h-91v92z" />
<glyph unicode="&#xe3a;" d="M-315 -255q0 19 8 35.5t22 29t30.5 20t35.5 7.5t35.5 -7.5t29.5 -20t20.5 -29t7.5 -35.5t-7.5 -37t-20.5 -30t-29.5 -20.5t-35.5 -8.5t-35.5 8.5t-30.5 20.5t-22 30t-8 37z" />
<glyph unicode="&#xe3e;" />
<glyph unicode="&#xe3f;" horiz-adv-x="1135" d="M177 0v1430h322v126h90v-126q96 3 164.5 -21.5t111.5 -70t64.5 -110t24.5 -140.5q2 -58 -7.5 -107t-37 -90.5t-76.5 -74t-123 -58.5q82 -14 136 -45.5t86 -76t45.5 -101.5t13.5 -120q2 -211 -97 -315t-305 -100v-222h-90v222h-322zM297 99h202v597h-202v-597zM297 800 h202v530h-202v-530zM589 99q77 0 129 17.5t85 54.5t47 94.5t14 135.5q0 95 -21.5 152.5t-59.5 87.5t-88.5 41t-105.5 14v-597zM589 803q55 5 99 20t73 46t43.5 79.5t14.5 122.5q-1 63 -12 109t-37.5 77t-70.5 47.5t-110 21.5v-523z" />
<glyph unicode="&#xe40;" horiz-adv-x="423" d="M153 0v1211h116v-1211h-116z" />
<glyph unicode="&#xe41;" horiz-adv-x="765" d="M153 0v1211h116v-1211h-116zM496 0v1211h115v-1211h-115z" />
<glyph unicode="&#xe42;" horiz-adv-x="509" d="M30 1608l21 89h502l44 -86h-412q36 -22 61 -51.5t40 -61.5t22 -65t7 -63v-1280h126v-90h-244v1367q0 52 -13.5 94t-35.5 73t-52 49q-30 20 -66 25z" />
<glyph unicode="&#xe43;" horiz-adv-x="509" d="M-45 1482q4 65 28.5 111.5t63 77.5t88.5 46t103 15q50 0 95 -12t79.5 -34.5t54.5 -57.5q21 -36 21 -83q0 -30 -4 -52t-15 -44.5t-32 -46.5t-53 -55q-24 -25 -37 -46t-20.5 -43t-9.5 -45.5t-2 -50.5v-1072h126v-90h-244v1143q0 43 5.5 77.5t18 64.5t30.5 56t44 51 q16 14 33 31.5t31.5 37t23.5 38.5t9 38q0 26 -11 47.5t-31.5 35.5t-49.5 21.5t-62 7.5q-30 0 -58 -8t-52 -27t-40.5 -52t-23.5 -80h-109z" />
<glyph unicode="&#xe44;" horiz-adv-x="509" d="M-82 1611l46 86h496l20 -89q-36 -5 -66 -24t-52 -50t-34.5 -73t-12.5 -94v-1277h126v-90h-244v1370q0 30 7 63t23.5 65t42.5 61.5t62 51.5h-414z" />
<glyph unicode="&#xe45;" horiz-adv-x="857" d="M56 945q6 69 35.5 121t74.5 87.5t102.5 54t117.5 18.5q63 0 123 -18.5t105.5 -57t73 -98.5t27.5 -140v-1304h-118v1293q0 61 -15 104.5t-42.5 72.5t-66.5 44q-40 15 -87 15q-41 0 -76 -13.5t-63 -38.5t-45.5 -60.5t-24.5 -79.5h-121z" />
<glyph unicode="&#xe46;" horiz-adv-x="961" d="M93 881q-4 64 5 121.5t37.5 104.5t79.5 78.5t127 43.5l118 -123l110 126q57 -6 97 -23t68 -43t44.5 -60.5t25.5 -72.5t11.5 -80.5t2.5 -85.5v-1256h-115v1275q0 33 -2.5 73t-15 75t-36 61t-64.5 34l-126 -133l-128 133q-39 -15 -63.5 -39t-38.5 -54t-18.5 -65t-3.5 -72 q0 -30 8.5 -58.5t25.5 -49.5t43 -34.5t63 -13.5v-100q-38 0 -81.5 14t-79.5 43.5t-62 74t-32 106.5z" />
<glyph unicode="&#xe47;" d="M-901 1630q0 69 23 114t57.5 72.5t77 38.5t80.5 11h548v-88h-538q-36 0 -61.5 -11t-42 -30.5t-24 -46.5t-5.5 -57q0 -29 5.5 -54t17 -46t31.5 -31.5t52.5 -10.5t54.5 10.5t33 30t15 47t4 60.5h85q0 -31 5.5 -57.5t18 -47t32.5 -32.5q21 -11 51 -11q32 0 51.5 11.5 t30.5 32t15.5 47t2.5 57.5h102q2 -69 -12.5 -114t-40.5 -72t-60 -37t-72 -10q-32 0 -59.5 11.5t-48.5 28.5t-36 38.5t-19 38.5h-9q-2 -17 -16 -38.5t-35 -38.5t-50 -28.5t-62 -11.5q-52 0 -89.5 17.5t-63 49t-37.5 72t-12 85.5z" />
<glyph unicode="&#xe48;" d="M-244 1826v259h99v-259h-99z" />
<glyph unicode="&#xe49;" d="M-603 2008v80h193v-175q63 0 108.5 12t76 35.5t48.5 55t24 72.5h112q-4 -51 -29.5 -97t-70.5 -81.5t-109 -56.5q-64 -20 -146 -23h-105v178h-102z" />
<glyph unicode="&#xe4a;" d="M-726 1830q0 61 12.5 101t31.5 64t44.5 34.5t53.5 10.5q25 0 45.5 -9t35.5 -24t26 -34t17 -40q4 19 15.5 39t28 35t39.5 24q21 9 48 9q25 0 47 -7.5t37 -25.5t24.5 -46.5t9.5 -72.5q22 8 42.5 24.5t36.5 40t26 50.5t10 60h93q-2 -38 -16 -76.5t-38.5 -70t-56 -54.5 t-68.5 -32h-99q-1 18 -4 40t-11 42t-20.5 33.5t-34.5 13.5q-19 0 -34 -12.5t-24.5 -31.5t-14.5 -42q-6 -21 -6 -43h-63q-2 22 -6.5 44t-13.5 41t-23 32q-15 12 -34 12q-25 0 -39 -13.5t-21 -34t-8.5 -42.5t-1.5 -39h-86z" />
<glyph unicode="&#xe4b;" d="M-412 1984v79h171v148h96v-148h172v-79h-172v-158h-96v158h-171z" />
<glyph unicode="&#xe4c;" d="M-340 1674q3 49 27 94.5t67 81t103.5 57.5t137.5 26v-81q-102 -5 -158 -53t-62 -125h-115z" />
<glyph unicode="&#xe4d;" d="M-386 1566q0 36 12 66t35.5 52.5t53.5 36t63 13.5q36 0 66 -13.5t53.5 -36t36.5 -53.5t13 -65t-13 -64.5t-36.5 -53t-53.5 -35.5t-66 -13q-33 0 -63 13t-53.5 35.5t-35.5 53t-12 64.5zM-300 1565.5q0 -16.5 6 -30.5t17 -25t25 -16.5t30 -5.5t31.5 5.5t26.5 16.5t17.5 26 t6.5 30q0 16 -6.5 30.5t-17.5 25.5t-26.5 18t-31.5 7t-30 -7t-25 -18t-17 -25.5t-6 -31z" />
<glyph unicode="&#xe4e;" d="M-452 1436q3 39 16.5 79t39.5 73t66 57t94 32q6 40 27 73.5t57.5 58t86.5 40.5t113 20v-85q-96 -4 -142 -45q-46 -40 -46 -128h-5q-52 0 -88 -13.5t-57.5 -37t-32.5 -55t-14 -69.5h-115z" />
<glyph unicode="&#xe4f;" horiz-adv-x="1391" d="M107 586q0 83 20.5 157.5t59 139.5t92 118.5t118.5 92t139.5 59t156.5 20.5t157 -20.5t140 -59t118.5 -92t91.5 -118.5t59 -139.5t21 -157.5q0 -82 -21 -156.5t-59 -139.5t-91.5 -118.5t-118.5 -92t-140 -59t-157 -20.5t-156.5 20.5t-139.5 59t-118.5 92t-92 118.5 t-59 139.5t-20.5 156.5zM227 589q0 -63 16.5 -123t47.5 -111.5t73.5 -94t94 -73.5t111.5 -47.5t123 -16.5t122.5 16.5t111 47.5t94.5 73.5t74 94t47.5 111.5t16.5 123t-16.5 123.5t-47.5 111.5t-74 93.5t-94.5 73.5t-111 47.5t-122.5 16.5t-123 -16.5t-111.5 -47.5 t-94 -73.5t-73.5 -93.5t-47.5 -111.5t-16.5 -123.5zM392 589q0 63 24 117t64.5 94.5t95 64.5t117.5 24q62 0 116.5 -24t95 -64.5t64.5 -94.5t24 -117t-24 -117t-64.5 -94.5t-95 -64.5t-116.5 -24q-63 0 -117.5 24t-95 64.5t-64.5 94.5t-24 117zM493 589q0 -41 16.5 -77.5 t43.5 -63t63 -43t77 -16.5t77 16.5t63 43t43.5 63t16.5 77.5t-16.5 77.5t-43.5 63t-63 43t-77 16.5t-77 -16.5t-63 -43t-43.5 -63t-16.5 -77.5z" />
<glyph unicode="&#xe50;" horiz-adv-x="1226" d="M112 559q0 118 33 211t97 158t157 100q91 35 212 35q119 0 212.5 -35t157 -100t97 -158t33.5 -211q0 -111 -17 -196.5t-50 -150t-78 -108.5t-100 -70.5t-119.5 -38t-135.5 -11.5q-105 0 -196.5 27t-158.5 94.5t-105 177.5q-39 112 -39 276zM227 516q0 -100 26 -182 t77 -139.5t121 -89.5t160 -32q89 0 161 32t121.5 89.5t76 139.5t26.5 182q0 128 -30 215t-82 141t-122 77q-72 24 -151 24t-148.5 -23.5t-122 -77.5t-83 -141t-30.5 -215z" />
<glyph unicode="&#xe51;" horiz-adv-x="1215" d="M90 134q25 24 47 41t45 39q28 -39 68 -65.5t89.5 -43.5t105.5 -25q56 -7 111 -7q99 0 175.5 33.5t128.5 98t79.5 156t27.5 209.5q0 92 -20.5 166.5t-65.5 128t-114 82.5q-71 28 -167 28q-78 0 -141.5 -21.5t-109 -60t-70 -86.5t-24.5 -100q0 -49 13.5 -94.5t46.5 -78.5 t90 -50q58 -17 146 -7v-85q-24 -4 -46.5 -5t-44.5 -1q-71 0 -133.5 23.5t-108 63t-71.5 94.5t-26 121t18.5 120.5t51 95.5t77 72t98 51t111 29.5t118.5 9.5q106 0 199.5 -28t162 -88t107.5 -153.5t39 -223.5q0 -126 -35 -233.5t-103 -186.5t-168.5 -123t-234.5 -44 q-61 0 -124.5 5.5t-124.5 20.5t-118 45q-58 28 -105 77z" />
<glyph unicode="&#xe52;" horiz-adv-x="1394" d="M33 1125l18 96q90 -3 141.5 -71.5t51.5 -209.5v-502q0 -74 28.5 -138t88.5 -112t149.5 -75.5t210.5 -27.5q117 0 198 26t130.5 69t71.5 99.5t22 116.5v351q0 49 -12.5 86.5t-34.5 65t-52 43.5q-30 14 -69 22q-35 -31 -72 -65.5t-73 -68.5l-137 124q-27 0 -55 -11t-51 -36 t-37 -63t-14 -89v-126q0 -44 4 -84.5t18.5 -72.5t41.5 -51.5t74 -19.5h36v-91h-57q-54 0 -93 15.5t-65 41.5t-41.5 59.5t-23.5 68.5t-11 68.5t-4 58.5v115q0 60 19 116.5t55.5 99.5t88.5 72t118 38l134 -123l126 123q66 -4 122 -26.5t96 -61t63 -90.5t23 -114v-335 q0 -118 -38 -203t-103 -139t-152 -79.5t-186 -25.5h-104q-134 0 -237 33t-173 94.5t-105.5 148t-35.5 193.5v443q0 55 -4 95.5t-15 67.5t-29 42t-45 19z" />
<glyph unicode="&#xe53;" horiz-adv-x="1245" d="M121 455v126q0 118 21.5 203t65.5 143.5t107.5 91.5t147.5 44l156 -145q19 16 42 35.5t44.5 38.5t43.5 38q24 19 43 36q86 -8 148.5 -40.5t103.5 -82.5t61 -114.5t20 -138.5v-690h-121v690q0 54 -17 101t-46 83t-67 56.5t-79 20.5l-176 -145l-159 145q-24 0 -49.5 -7 t-49.5 -22.5t-46 -43t-38.5 -68t-26 -96.5t-9.5 -130v-126q0 -36 0.5 -77t5.5 -82t16 -79.5t31.5 -68t52.5 -46.5q34 -17 80 -17h20.5t25 1t28 1t26.5 3v-96q-16 -2 -36.5 -3.5t-43 -3t-43 -1.5t-37.5 3q-61 8 -103 34t-69.5 63t-42.5 83.5t-22 96t-8 97.5t-1 89z" />
<glyph unicode="&#xe54;" horiz-adv-x="1242" d="M112 438v157q0 115 36.5 198.5t103.5 139t162.5 82t210.5 26.5h183q55 0 91.5 11.5t58.5 34.5t32 54.5t11 69.5h128q-3 -49 -18.5 -96.5t-50.5 -85.5t-94 -62t-149 -24h-211q-87 0 -156 -21.5t-117 -62t-74 -99.5t-26 -135v-178q0 -77 19 -141.5t61 -112.5t107 -74 t155 -26h143q-33 22 -61 46.5t-49.5 55t-33.5 67.5t-12 80q0 14 1 34.5t9.5 42.5t23.5 45.5t41.5 42t66 31.5t96.5 15v-90q-41 -5 -67 -21.5t-38.5 -37t-16.5 -42.5t-4 -39q0 -30 11 -60t29 -54.5t40.5 -46.5t45 -37t44.5 -23.5t37 -8.5h248v-93h-581q-86 0 -152.5 19 t-114.5 51.5t-81 75.5t-52 92.5t-27.5 100t-8.5 99.5z" />
<glyph unicode="&#xe55;" horiz-adv-x="1245" d="M112 438v157q0 90 25 165.5t73.5 131.5t121.5 91q74 36 169 47q-19 25 -25.5 51t-6.5 44q0 35 13 66.5t34.5 54.5t51 36.5t64.5 13.5t64.5 -13.5t52 -36.5t35.5 -54.5t13 -66.5q0 -21 -5.5 -41t-20.5 -43q69 0 112 11t69 33.5t37 55t12 74.5h128q-3 -49 -18.5 -97.5 t-50.5 -87.5t-94 -63t-149 -24h-211q-87 0 -156 -21.5t-117 -62t-74 -98t-26 -132.5v-182q0 -77 19 -141.5t61 -112.5t107 -74t155 -26h143q-33 22 -61 46.5t-49.5 56t-33.5 68.5t-12 81q0 14 1 34.5t9.5 42.5t23.5 45t41.5 41.5t66 31.5t96.5 16v-93q-41 -5 -67 -21.5 t-38.5 -37t-16.5 -42.5q-4 -20 -4 -36q0 -30 11 -60t29 -56t40.5 -47.5t45 -37t44.5 -24t37 -8.5h248v-93h-581q-86 0 -152.5 19t-114.5 51.5t-81 75.5t-52 92.5t-27.5 100t-8.5 99.5zM548 1125q0 -19 7 -36.5t18 -29.5t26 -19t33 -7q19 0 36 7t28.5 19t18 28.5t6.5 37.5 q0 19 -6.5 36t-18 29.5t-28 20t-36.5 7.5q-17 0 -32.5 -7.5t-26.5 -20t-18 -29.5t-7 -36z" />
<glyph unicode="&#xe56;" horiz-adv-x="1261" d="M88 1088q13 8 23.5 16t20 15t20 14l22.5 15l118 -208q24 15 62 35t88.5 38.5t111 31.5t128.5 15q96 3 168.5 -14.5t126 -51.5t89 -80.5t57.5 -102t30.5 -115.5t8.5 -121v-104q-2 -63 -17 -124.5t-43.5 -116.5t-71 -100.5t-99.5 -78.5t-127.5 -50t-155.5 -15 q-96 3 -173.5 28.5t-131 68.5t-82 102t-28.5 130q0 66 22 112.5t61.5 78t96 45t125.5 13.5h40v-87h-30q-58 0 -96 -12t-60 -34.5t-30.5 -54.5t-8.5 -73q0 -47 21 -86.5t60.5 -69t96.5 -47.5q58 -18 129 -18q78 -1 145.5 24.5t118 75.5t81.5 120.5t33 160.5v107 q0 96 -23 170.5t-67 124.5t-108.5 74.5t-146.5 19.5q-66 -1 -122 -11t-108 -29.5t-102.5 -50t-105.5 -68.5q-23 38 -44 74t-40.5 71.5t-40.5 70.5q-20 33 -42 72z" />
<glyph unicode="&#xe57;" horiz-adv-x="1470" d="M137 449v124q0 112 22.5 198.5t66 146.5t105.5 95.5t143 46.5l132 -150l137 148q94 -13 156.5 -52t98.5 -99t50.5 -142.5t14.5 -180.5v-129v-87t-4 -83t-13.5 -75t-26.5 -65l9 -8q35 22 64 55t52 70t39.5 77t27.5 79.5t16 76.5t5 67v375q0 71 13.5 123t39 86.5t62.5 52.5 t81 19l13 -96q-26 -4 -43 -19t-28 -42t-16 -67t-5 -95v-315q0 -62 -10.5 -125t-33.5 -122.5t-55.5 -114.5t-77 -100t-101 -78.5t-123.5 -51.5l-104 78q38 44 58.5 87t29.5 89t10 96t1 107v135q0 94 -15.5 162t-42.5 110.5t-64 64.5t-84 24l-131 -137l-129 140 q-36 0 -74.5 -20t-70.5 -64.5t-53 -115.5t-21 -173v-120q0 -32 1 -71t6.5 -79.5t17.5 -78.5t33 -67.5t53 -47.5q34 -18 80 -18h31.5t35.5 3q0 -30 1.5 -50t1.5 -43q-23 -6 -58 -8q-36 -3 -72 2q-59 14 -100 41.5t-69 64.5t-44.5 80.5t-25 89t-11 90.5t-2.5 86z" />
<glyph unicode="&#xe58;" horiz-adv-x="1250" d="M134 364v231q0 104 30.5 186.5t88.5 140.5t146 88q86 31 204 31h244q54 0 91 11.5t59 34.5t31.5 54.5t12.5 69.5h126q-3 -49 -18 -97t-50 -88t-93 -64.5t-148 -24.5h-274q-88 0 -149.5 -26t-101.5 -68.5t-59 -99.5q-19 -58 -19 -118v-261q0 -53 17.5 -101t48 -84.5 t68.5 -57t80 -20.5q41 36 82 75.5t81 72.5l174 -148q45 0 81 12t61.5 41.5t39 78.5t13.5 123q0 30 -4.5 64.5t-18.5 63t-40.5 48t-70.5 19.5h-31v89h28q58 0 98.5 -12.5t69 -33.5t45 -48.5t26 -60t13 -66t3.5 -66.5q0 -90 -17 -157t-54 -113t-96.5 -70t-145.5 -24l-174 145 q-36 -35 -80.5 -73.5t-82.5 -71.5q-85 7 -147.5 39t-104.5 83t-62.5 116t-20.5 137z" />
<glyph unicode="&#xe59;" horiz-adv-x="1269" d="M134 447v106q0 122 14 216t48 158.5t95.5 97.5t157.5 33q50 0 89 -9t71 -29t58 -53t51 -81q0 55 14.5 86.5t35.5 46.5t47 18.5t52 3.5h89q54 0 89 12.5t55.5 35t28.5 54.5q8 30 11 68h123q-1 -31 -7.5 -63.5t-20 -62t-34.5 -56t-53.5 -46t-77.5 -30t-106 -10.5h-38 q-41 0 -67.5 -3.5t-42.5 -22t-21.5 -57t-5.5 -108.5l280 -752h-126l-280 760q-19 46 -41 83t-46.5 63t-56 39.5t-72.5 13.5q-47 0 -83.5 -20t-60.5 -66.5t-36 -122.5t-12 -188v-132q0 -34 2 -73t7 -77t15.5 -72.5t31.5 -60.5t51 -41.5t76 -15.5h25t25 3l19 -93 q-23 -5 -59.5 -8t-72.5 3q-57 9 -97 34.5t-66 59.5t-41.5 78t-23 90.5t-10.5 94.5t-3 95z" />
<glyph unicode="&#xe5a;" horiz-adv-x="1376" d="M118 951q0 71 27.5 121t70.5 81t93.5 44.5t97.5 13.5h118v-82h-84q-16 0 -36.5 -3t-44 -9.5t-45.5 -19t-39.5 -31.5t-28.5 -48.5t-11 -69.5q0 -38 11 -76.5t38 -68.5t74 -49.5t118 -19.5q72 0 127.5 15t93.5 45.5t57 78.5t19 112v226h115v-1211h-115v766 q-27 -36 -60.5 -60t-72 -38.5t-79.5 -21t-82 -6.5q-91 0 -158 22.5t-112.5 63t-68.5 97.5t-23 128zM1117 0v1211h115v-1211h-115z" />
<glyph unicode="&#xe5b;" horiz-adv-x="2538" d="M118 625q0 61 13.5 125t41.5 124t68.5 112t94 91.5t118 62t141.5 22.5q104 0 178 -31.5t122.5 -83.5t72.5 -120.5t28 -140.5q-32 0 -53.5 -1t-49.5 -1q-3 63 -23.5 111.5t-56 82t-83.5 52.5q-50 19 -111 22q-90 0 -160 -35t-118.5 -94.5t-74 -140.5t-25.5 -171 q0 -58 14 -114t41 -105.5t65.5 -90.5t88 -71t108 -47t127.5 -17q93 0 167 26.5t131 75t97.5 116t65 147.5t37 169t12.5 184l93 50q30 -35 61 -77.5t59 -88t51 -90t43 -81.5q19 32 41 69.5t46.5 76.5t50.5 77t49 69q22 -33 46 -71t46 -76.5l42 -73.5t35 -62q13 19 31 46.5 t37 54t35 49t25 36.5h359l77 -115h-416q-47 -66 -82.5 -119.5t-65.5 -105.5q-17 32 -36 66t-41 69.5t-44.5 70.5t-44.5 65q-22 -28 -46.5 -62.5t-50 -73.5t-49 -82t-42.5 -87q-19 45 -45 94.5t-56 97.5t-62.5 94.5t-63.5 87.5q0 -104 -20.5 -200t-59 -179t-93.5 -150.5 t-122 -115t-143.5 -73.5t-161.5 -26q-91 0 -167.5 23.5t-138 63.5t-109 96.5t-79.5 120t-48.5 134t-16.5 139.5z" />
<glyph unicode="&#x2000;" horiz-adv-x="1105" />
<glyph unicode="&#x2001;" horiz-adv-x="2211" />
<glyph unicode="&#x2002;" horiz-adv-x="1105" />
<glyph unicode="&#x2003;" horiz-adv-x="2211" />
<glyph unicode="&#x2004;" horiz-adv-x="737" />
<glyph unicode="&#x2005;" horiz-adv-x="552" />
<glyph unicode="&#x2006;" horiz-adv-x="368" />
<glyph unicode="&#x2007;" horiz-adv-x="368" />
<glyph unicode="&#x2008;" horiz-adv-x="276" />
<glyph unicode="&#x2009;" horiz-adv-x="442" />
<glyph unicode="&#x200a;" horiz-adv-x="122" />
<glyph unicode="&#x200b;" />
<glyph unicode="&#x2010;" horiz-adv-x="695" d="M99 436v97h498v-97h-498z" />
<glyph unicode="&#x2011;" horiz-adv-x="695" d="M99 436v97h498v-97h-498z" />
<glyph unicode="&#x2012;" horiz-adv-x="695" d="M99 436v97h498v-97h-498z" />
<glyph unicode="&#x2013;" horiz-adv-x="1001" d="M0 543v100h1001v-100h-1001z" />
<glyph unicode="&#x2014;" horiz-adv-x="2008" d="M0 543v100h2008v-100h-2008z" />
<glyph unicode="&#x2018;" horiz-adv-x="445" d="M142 1004v182q0 42 10 83t29 76t49 63t76 46v-76q-31 -13 -48 -38t-26.5 -52.5t-12.5 -57.5t-3 -57h90v-169h-164z" />
<glyph unicode="&#x2019;" horiz-adv-x="445" d="M142 970v77q31 13 48.5 37t27 52t12.5 58.5t3 57.5h-91v167h164v-182q0 -41 -9 -81.5t-28.5 -76t-50.5 -63.5q-32 -30 -76 -46z" />
<glyph unicode="&#x201c;" horiz-adv-x="782" d="M140 1004v182q0 42 9.5 83t28.5 76t49.5 63t75.5 46v-76q-30 -13 -47.5 -38t-27 -52.5t-12 -57.5t-2.5 -57h89v-169h-163zM480 1004v182q0 42 8.5 83t28.5 76t50 63t76 46v-76q-31 -13 -48 -38t-26.5 -52.5t-12.5 -57.5t-3 -57h90v-169h-163z" />
<glyph unicode="&#x201d;" horiz-adv-x="782" d="M137 970v77q30 13 48 37t27.5 52t12 58.5t2.5 57.5h-90v167h163v-182q0 -41 -9 -81.5t-28 -76t-51 -63.5q-31 -30 -75 -46zM480 970v77q30 13 47.5 37t26.5 52t12.5 58.5t3.5 57.5h-90v167h163v-182q0 -41 -9 -81.5t-28.5 -76t-50.5 -63.5q-32 -30 -75 -46z" />
<glyph unicode="&#x2022;" horiz-adv-x="739" d="M93 559q0 52 22 99.5t59.5 83.5t88.5 57q49 20 107 20q57 0 108 -20.5t89.5 -56.5t61 -83.5t22.5 -99.5q0 -55 -22.5 -103.5t-61 -85t-89.5 -57.5t-108 -21q-58 0 -108 21t-87.5 57.5t-59.5 85t-22 103.5z" />
<glyph unicode="&#x202f;" horiz-adv-x="442" />
<glyph unicode="&#x205f;" horiz-adv-x="552" />
<glyph unicode="&#x20ac;" horiz-adv-x="1149" d="M0 584v90h179v58v41.5t2 43.5h-181v90h186q6 68 18 136.5t35 129.5t57 114t82.5 91.5t114.5 59.5t150 21q98 0 172.5 -32t127 -89.5t79 -136t27.5 -168.5h-120q-3 66 -20 125t-52 103.5t-91 70.5t-137 26q-60 0 -105.5 -19.5t-79 -52t-57 -77.5t-38.5 -95t-23 -103 q-8 -52 -12 -104h401v-90h-405v-42.5v-40.5v-60h405v-90h-405q2 -58 7.5 -117t19.5 -115t36 -105.5t56.5 -86.5t83.5 -57.5t116 -20.5q88 0 145.5 34.5t91.5 93.5t48.5 134t14.5 157h120q0 -68 -9.5 -134t-30 -123.5t-53.5 -106.5t-78 -85t-104 -55t-131 -19 q-96 0 -166 23.5t-120 66t-83 100t-52 124.5t-28 142q-10 74 -13 150h-181z" />
<glyph unicode="&#x2122;" horiz-adv-x="1528" d="M16 1349v81h532v-81h-222v-689h-88v689h-222zM699 660v770h120l250 -635l249 635h120v-770h-76v687l-274 -687h-41l-269 695v-695h-79z" />
<glyph unicode="&#x25cc;" horiz-adv-x="1346" d="M329 575l89 44q-3 -22 -3 -46t3 -43zM423 332l35 91q26 -37 61 -64zM441 822l89 -33q-42 -25 -67 -60zM625 827l49 91l41 -88q-19 3 -38 3q-28 0 -52 -6zM632 315q23 -5 45 -5q19 0 35 5l-38 -85zM822 789l101 33l-37 -96q-26 38 -64 63zM825 356q34 23 59 56l26 -80z M934 536q3 13 3 37q0 22 -3 43l85 -43z" />
<glyph unicode="&#x25fc;" horiz-adv-x="1061" d="M0 0v1062h1062v-1062h-1062z" />
<glyph unicode="&#xf700;" horiz-adv-x="923" d="M107 893q4 71 29.5 131.5t72 105.5t113.5 70.5t155 25.5q48 0 96 -9q49 -9 93 -33q30 5 53.5 16.5t39 26t24.5 30.5t14 31h135q-5 -22 -19 -44t-39.5 -42.5t-62 -37t-84.5 -27.5q25 -25 44 -56.5t31.5 -71.5t17.5 -91t-1 -112q-5 -61 -17.5 -126.5t-30 -134t-39.5 -140 t-46 -140.5t-48 -136t-46 -129h-165l-186 614h-120v76h208l181 -613q27 85 56 171t54 174t45 174t31 170q11 79 7 147t-29.5 116t-74 75.5t-125.5 27.5q-108 0 -169 -60.5t-72 -178.5h-126z" />
<glyph unicode="&#xf701;" d="M-1019 1411l49 96h552v-96h-601z" />
<glyph unicode="&#xf702;" d="M-1019 1411l49 96h448v182h104v-278h-601z" />
<glyph unicode="&#xf703;" d="M-1019 1411l49 96h288q-8 19 -9.5 33t-1.5 16q0 30 11.5 56.5t31.5 47t47 31.5q25 12 55 12t56 -11.5t46.5 -32t32.5 -47t12 -56.5t-12 -56t-32.5 -46t-46.5 -31.5t-56 -11.5h-11h-460zM-619 1554q0 -14 5.5 -28t15 -23.5t23 -15t27.5 -5.5q15 0 28.5 5.5t24 15t16 23.5 t5.5 28q0 15 -5.5 28.5t-16 24t-23.5 16t-29 5.5q-14 0 -27.5 -5.5t-23 -16t-15 -24t-5.5 -28.5z" />
<glyph unicode="&#xf704;" d="M-1019 1411l49 96h207v182h103v-182h138v182h104v-278h-601z" />
<glyph unicode="&#xf705;" d="M-543 1414v281h113v-281h-113z" />
<glyph unicode="&#xf706;" d="M-910 1577v83h200v-172q61 0 106 12t76 35.5t48 55t20 69.5h118q-3 -50 -28.5 -96t-71.5 -82.5t-110 -59t-147 -22.5h-109v177h-102z" />
<glyph unicode="&#xf707;" d="M-1014 1400q3 60 14.5 101.5t30 66.5t42.5 37t52 12q21 0 39.5 -10t34 -25t25.5 -34.5t16 -40.5q2 22 12.5 42t27 34t38.5 24t45 10q22 0 42 -8.5t36 -25.5t26 -46.5t11 -71.5q18 8 35.5 25t31.5 40.5t23.5 50.5t10.5 58h92q-3 -39 -16.5 -77.5t-35.5 -71t-52 -57.5 t-66 -33h-93q-1 18 -4.5 40.5t-10.5 42t-19 33t-30 13.5q-19 0 -33 -12.5t-23 -31.5t-14.5 -41t-5.5 -44h-60q-1 19 -5 42.5t-13 42.5t-22 31.5t-32 12.5q-22 0 -35 -14.5t-20 -34.5t-8.5 -41.5t-1.5 -38.5h-85z" />
<glyph unicode="&#xf708;" d="M-841 1556v80h172v145h99v-145h178v-80h-178v-156h-99v156h-172z" />
<glyph unicode="&#xf709;" d="M-749 1395q2 52 27 101t69.5 89t109.5 65q66 26 151 31v-81q-55 -3 -97.5 -20.5t-71 -45t-45 -64t-19.5 -75.5h-124z" />
<glyph unicode="&#xf70a;" d="M-260 1406v291h118v-291h-118z" />
<glyph unicode="&#xf70b;" d="M-616 1582v78h206v-172q61 0 106.5 12t75 35t45.5 55t17 70h125q-3 -52 -25.5 -97.5t-65.5 -80.5t-109 -55.5t-155 -20.5h-123v176h-97z" />
<glyph unicode="&#xf70c;" d="M-852 1406q3 72 16.5 122t35.5 81.5t52 45.5t63 14q26 0 50 -11t42 -29t29 -41t13 -48h6q5 25 17.5 48t31 41t43 29t54.5 11q28 0 50.5 -12.5t41 -36t28.5 -56t13 -71.5q22 9 42.5 28t38.5 45t29 59t14 67h109q-3 -44 -19 -90t-43 -85.5t-63.5 -69.5t-77.5 -41h-109 q0 22 -3 49t-10.5 52t-22 42t-40.5 17q-24 0 -41.5 -16t-28 -39t-15 -52t-4.5 -53h-71q-3 24 -8.5 53t-16 52t-27 39t-38.5 16q-26 0 -42 -17t-24 -42.5t-10 -53.5t-2 -47h-103z" />
<glyph unicode="&#xf70d;" d="M-433 1571v84h175v147h113v-147h172v-84h-172v-157h-113v157h-175z" />
<glyph unicode="&#xf70e;" d="M-396 1403q3 55 28.5 106t73 91t116 65.5t159.5 29.5v-87q-58 0 -104 -16t-77.5 -45t-48.5 -66t-17 -78h-130z" />
<glyph unicode="&#xf70f;" horiz-adv-x="1633" d="M85 991q33 63 78 107.5t100.5 73t119.5 41.5t131 13q78 0 148.5 -21t124 -62.5t85.5 -99t32 -131.5v-600q0 -109 57.5 -169.5t172.5 -60.5q118 0 178.5 60.5t60.5 169.5v899h115v-916q0 -77 -29.5 -133.5t-78 -94t-111.5 -56.5t-131.5 -19t-133 19t-112.5 57.5t-77 95.5 t-29 131v609q0 55 -19.5 97.5t-56 72.5t-86 46.5t-110.5 16.5q-50 0 -96.5 -12.5t-86 -34t-70.5 -52t-50 -65.5q11 -10 19 -25.5t15 -35t11 -41.5t4 -44v-739h129v-88h-247v836q0 52 -12 93.5t-45 61.5z" />
<glyph unicode="&#xf710;" d="M-737 1411v189h103v-93h735v-96h-838z" />
<glyph unicode="&#xf711;" d="M-752 1566q0 36 13 66t36 52.5t53.5 36t63.5 13.5q35 0 65.5 -13.5t53.5 -36t36 -53.5t13 -65t-13 -64.5t-36 -53t-53.5 -35.5t-65.5 -13q-33 0 -63.5 13t-53.5 35.5t-36 53t-13 64.5zM-666 1565.5q0 -16.5 7 -30.5t18 -25t24.5 -16.5t30 -5.5t31.5 5.5t26 16.5t18 26 t7 30q0 16 -7 30.5t-18 25.5t-26 18t-31.5 7t-30 -7t-24.5 -18t-18 -25.5t-7 -31z" />
<glyph unicode="&#xf712;" d="M-1055 1630q0 72 21.5 117t54 71.5t72.5 37t77 10.5h518v-96h-510q-33 0 -55 -11t-35.5 -30t-19.5 -44t-5 -49q0 -26 5 -51.5t15 -44.5t29 -30t47 -11q29 0 46 11t26.5 31.5t13.5 48t6 59.5h89q0 -32 4 -59.5t15 -48t28.5 -31.5t45 -11t46 11t29 31.5t13 48t-0.5 59.5 h110q3 -73 -11 -122.5t-38.5 -78.5t-57.5 -40t-71 -8q-30 3 -54.5 15.5t-44 31.5t-34 42t-23.5 45q-8 -23 -23.5 -47t-36 -43t-45 -31.5t-51.5 -12.5q-50 0 -87 18t-61 49.5t-35.5 74t-11.5 88.5z" />
<glyph unicode="&#xf713;" d="M-516 1826v259h98v-259h-98z" />
<glyph unicode="&#xf714;" d="M-825 2008v80h193v-175q63 0 107.5 12t75.5 35.5t48 55t23 72.5h115q-4 -51 -29.5 -97t-70.5 -81.5t-108 -56.5q-63 -20 -145 -23h-107v178h-102z" />
<glyph unicode="&#xf715;" d="M-901 1830q0 61 12 101t32 64t45.5 34.5t53.5 10.5q25 0 45 -9t36.5 -24t26.5 -34t16 -40q4 19 15 39t28.5 35t39.5 24t50 9q24 0 45.5 -7.5t37 -25.5t24 -46.5t10.5 -72.5q22 8 41.5 24.5t36 40t26 50.5t11.5 60h92q-2 -38 -16.5 -76.5t-38 -70t-55.5 -54.5t-69 -32h-99 q-1 18 -4.5 40t-10.5 42t-20.5 33.5t-34.5 13.5q-19 0 -33.5 -12.5t-24 -31.5t-14.5 -42q-6 -21 -6 -43h-66q-1 22 -5 44t-13 41t-22.5 31.5t-33.5 12.5q-24 0 -39 -13.5t-22 -34t-8.5 -42.5t-1.5 -39h-87z" />
<glyph unicode="&#xf716;" d="M-685 1984v79h171v148h96v-148h174v-79h-174v-158h-96v158h-171z" />
<glyph unicode="&#xf717;" d="M-559 1674q3 49 27 94.5t67 81t103.5 57.5t136.5 26v-81q-101 -5 -157 -53t-62 -125h-115z" />
<glyph unicode="&#xf718;" d="M-342 -519h202v-402h-112v299h-90v103z" />
<glyph unicode="&#xf719;" d="M-699 -519h203v-182q0 -137 121 -137q120 0 120 137v182h113v-182q-2 -44 -15 -84.5t-40.5 -71.5t-71 -48.5t-106.5 -17.5q-65 0 -109.5 17.5t-72 48.5t-39.5 71.5t-12 84.5v90h-91v92z" />
<glyph unicode="&#xf71a;" d="M-315 -597q0 19 8 35.5t22 28.5t30.5 20.5t35.5 8.5t35.5 -8.5t29.5 -20.5t20.5 -28.5t7.5 -35.5t-7.5 -36.5t-20.5 -30.5t-29.5 -21t-35.5 -8t-35.5 8t-30.5 21t-22 30.5t-8 36.5z" />
<glyph unicode="&#xf71d;" horiz-adv-x="1178" d="M79 1211h121l118 -1123h16l193 903h121l190 -903h20l93 745q4 30 7.5 63t2 62.5t-7.5 56t-22 47t-42 33.5t-64 16l-8 73q52 2 97.5 17.5t80.5 40t55.5 58.5t23.5 78h137q-8 -49 -29.5 -89t-56 -69t-81.5 -49t-101 -28q54 -17 83.5 -47t41.5 -67t10.5 -77t-7.5 -77 l-131 -875h-174l-147 690l-27 168h-8l-33 -168l-144 -690h-171z" />
<glyph unicode="&#xf881;" horiz-adv-x="1601" d="M85 991q33 63 77.5 107.5t100 73t120 41.5t136.5 13q45 0 92.5 -9t92 -27.5t83 -48t65.5 -70.5q28 41 60.5 70.5t68.5 48t73 27.5t75 9q60 0 118.5 -19t105 -58t75 -98t28.5 -139v-1304h-115v1296q0 60 -15.5 104t-43.5 73t-67.5 42.5t-85.5 13.5q-44 0 -82.5 -15 t-66.5 -42.5t-45 -67.5q-17 -39 -20 -91v-1313h-118v1273q0 57 -19 104.5t-54.5 81t-87.5 52t-117 18.5q-53 0 -101 -12.5t-88 -34t-70 -52t-49 -65.5q11 -11 19 -27.5t15 -36t11 -41t4 -41.5v-731h129v-96h-247v836q0 52 -12 93.5t-45 61.5z" />
<glyph unicode="&#xf882;" horiz-adv-x="1596" d="M33 0v90h120v759q0 50 -13.5 89.5t-43.5 60.5q33 57 76.5 100.5t98 71.5t118 41.5t133.5 13.5q45 0 91.5 -8t90.5 -25.5t81 -44.5t64 -66q26 39 60 66t69.5 44.5t73 25.5t73.5 8q64 0 123 -20t105 -58t73.5 -94.5t27.5 -130.5v-1315h-118v1304q0 55 -15 97.5t-43.5 71.5 t-66.5 44t-86 15q-44 0 -81.5 -14.5t-66.5 -41t-45.5 -65t-19.5 -87.5v-1324h-117v1288q0 58 -18.5 102.5t-53.5 76t-86 48.5t-115 17q-53 0 -100 -12.5t-86 -33t-67.5 -49t-46.5 -63.5q11 -9 19 -24t15 -34.5t10 -40.5q3 -23 3 -42v-841h-236z" />
<glyph d="M-712 1419q2 40 15 79t40 72t66.5 57.5t94.5 32.5q6 40 26.5 73.5t56.5 58.5t86 40t113 20v-85q-96 -4 -141.5 -45.5t-45.5 -126.5h-6q-52 0 -87 -14t-57.5 -37t-33 -54.5t-12.5 -70.5h-115z" />
<glyph horiz-adv-x="857" d="M-752 1566q0 36 13 66t36 52.5t53.5 36t63.5 13.5q35 0 65.5 -13.5t53.5 -36t36 -53.5t13 -65t-13 -64.5t-36 -53t-53.5 -35.5t-65.5 -13q-33 0 -63.5 13t-53.5 35.5t-36 53t-13 64.5zM-666 1565.5q0 -16.5 7 -30.5t18 -25t24.5 -16.5t30 -5.5t31.5 5.5t26 16.5t18 26 t7 30q0 16 -7 30.5t-18 25.5t-26 18t-31.5 7t-30 -7t-24.5 -18t-18 -25.5t-7 -31zM56 945q6 69 35.5 121t74.5 87.5t102.5 54t117.5 18.5q63 0 123 -18.5t105.5 -57t73 -98.5t27.5 -140v-912h-118v901q0 61 -15 104.5t-42.5 72.5t-66.5 44q-40 15 -87 15q-41 0 -76 -13.5 t-63 -38.5t-45.5 -60.5t-24.5 -79.5h-121z" />
<glyph horiz-adv-x="857" d="M-752 1566q0 36 13 66t36 52.5t53.5 36t63.5 13.5q35 0 65.5 -13.5t53.5 -36t36 -53.5t13 -65t-13 -64.5t-36 -53t-53.5 -35.5t-65.5 -13q-33 0 -63.5 13t-53.5 35.5t-36 53t-13 64.5zM-666 1565.5q0 -16.5 7 -30.5t18 -25t24.5 -16.5t30 -5.5t31.5 5.5t26 16.5t18 26 t7 30q0 16 -7 30.5t-18 25.5t-26 18t-31.5 7t-30 -7t-24.5 -18t-18 -25.5t-7 -31zM56 945q6 69 35.5 121t74.5 87.5t102.5 54t117.5 18.5q63 0 123 -18.5t105.5 -57t73 -98.5t27.5 -140v-912h-118v901q0 61 -15 104.5t-42.5 72.5t-66.5 44q-40 15 -87 15q-41 0 -76 -13.5 t-63 -38.5t-45.5 -60.5t-24.5 -79.5h-121z" />
<glyph d="M-786 1411l49 96h595v-96h-644z" />
<glyph d="M-786 1411l49 96h490v182h105v-278h-644z" />
<glyph d="M-786 1411l49 96h353q-8 19 -10 33t-2 16q0 30 11.5 56.5t32 47t47 32t56.5 11.5t56 -11.5t46 -32t31.5 -47t11.5 -56.5t-11.5 -56t-31.5 -46t-47 -31q-25 -12 -55 -12h-11h-526zM-323 1554q0 -14 6 -28t16.5 -23.5t23.5 -14.5q14 -6 28 -6q15 0 28 5.5t22.5 15 t15.5 23.5t6 28q0 15 -6 28.5t-15.5 24t-23.5 16t-27.5 5.5t-27 -5.5t-24 -16t-16.5 -24t-6 -28.5z" />
<glyph d="M-786 1411l49 96h236v182h102v-182h152v182h105v-278h-644z" />
<glyph d="M-1186 1411l46 96h778v-96h-824z" />
<glyph d="M-1186 1411l46 96h674v182h104v-278h-824z" />
<glyph d="M-1186 1411l46 96h543q-9 19 -10 33t-1 16q0 30 11 56.5t31.5 47t46.5 32t56 11.5t56 -11.5t46.5 -32t31.5 -47t11 -56.5t-11 -56t-31.5 -46t-46.5 -31.5t-56 -11.5h-11h-712zM-536 1554q0 -14 6.5 -28t16 -23.5t23 -15t27.5 -5.5q15 0 28 5.5t23.5 15t16.5 23.5t6 28 q0 15 -6 28.5t-16.5 24t-23.5 16t-28 5.5q-14 0 -27.5 -5.5t-23 -16t-16 -24t-6.5 -28.5z" />
<glyph d="M-1186 1411l46 96h419v182h105v-182h150v182h104v-278h-824z" />
<glyph d="M-460 1826v259h98v-259h-98z" />
<glyph d="M-769 2008v80h194v-175q63 0 108 12t75 35.5t46.5 55t22.5 72.5h115q-4 -51 -29 -97t-69.5 -81.5t-108.5 -56.5q-65 -20 -147 -23h-107v178h-100z" />
<glyph d="M-789 1830q0 61 12.5 101t32 64t45 34.5t54.5 10.5q24 0 44 -9t36.5 -24t27 -34t15.5 -40q4 19 15 39t29 35t40 24t49 9q25 0 46 -7.5t37 -25.5t24 -46.5t11 -72.5q22 8 41 24.5t35.5 40t26 50.5t12.5 60h92q-3 -38 -17.5 -76.5t-37.5 -70t-55.5 -54.5t-69.5 -32h-98 q-2 18 -5.5 40t-10 42t-20.5 33.5t-34 13.5t-34 -12.5t-24 -31.5t-15 -42q-5 -21 -5 -43h-66q-2 22 -6 44t-13 41t-22.5 31.5t-34.5 12.5q-24 0 -38.5 -13.5t-21.5 -34t-8 -42.5t-1 -39h-88z" />
<glyph d="M-629 1984v79h171v148h96v-148h174v-79h-174v-158h-96v158h-171z" />
<glyph d="M-1151 1411l48 96h961v-96h-1009z" />
<glyph d="M-1151 1411l48 96h856v182h105v-278h-1009z" />
<glyph d="M-1151 1411l48 96h719q-8 19 -10 33t-2 16q0 30 11.5 56.5t32 47t47 32t56.5 11.5t56 -11.5t46 -32t31.5 -47t11.5 -56.5t-11.5 -56t-31.5 -46t-47 -31q-25 -12 -55 -12h-11h-891zM-323 1554q0 -14 6 -28t16.5 -23.5t23.5 -14.5q14 -6 28 -6q15 0 28 5.5t22.5 15 t15.5 23.5t6 28q0 15 -6 28.5t-15.5 24t-23.5 16t-27.5 5.5t-27 -5.5t-24 -16t-16.5 -24t-6 -28.5z" />
<glyph d="M-1151 1411l48 96h602v182h102v-182h152v182h105v-278h-1009z" />
<glyph d="M-244 1686v259h99v-259h-99z" />
<glyph d="M-603 1866v79h193v-175q63 0 108.5 12.5t76 35t48.5 54.5t24 73h112q-4 -50 -29.5 -96t-70.5 -81.5t-109 -57.5t-146 -24h-105v180h-102z" />
<glyph d="M-726 1686q0 61 12.5 101.5t31.5 65t44.5 34t53.5 9.5q25 0 45.5 -9t35.5 -24t26 -34q11 -21 17 -40q4 19 15.5 39t28 35t39.5 24q21 9 48 9q25 0 47 -7t37 -24.5t24.5 -46.5t9.5 -73q22 9 42.5 25t36.5 39t26 51t10 59h93q-2 -38 -16 -75.5t-38.5 -70t-56 -55.5 t-68.5 -32h-99q-1 18 -4 40t-11 42.5t-20.5 33.5t-34.5 13q-19 0 -34 -12t-24.5 -30.5t-14.5 -42.5q-6 -23 -6 -44h-63q-2 22 -6.5 45t-13.5 41.5t-23 30.5q-15 12 -34 12q-25 0 -39 -13.5t-21 -33.5t-8.5 -42.5t-1.5 -39.5h-86z" />
<glyph d="M-412 1844v78h171v149h96v-149h172v-78h-172v-158h-96v158h-171z" />
<glyph d="M-516 1686v259h98v-259h-98z" />
<glyph d="M-833 1869v79h193v-175q63 0 107.5 12t75.5 35t48 55t23 73h115q-4 -51 -29.5 -96.5t-70.5 -81.5t-108.5 -57.5t-145.5 -23.5h-107v180h-101z" />
<glyph d="M-929 1689q0 60 12.5 100.5t31.5 65.5t45 34.5t54 9.5q24 0 44.5 -8.5t36.5 -22t26 -31.5t16 -38q4 19 16.5 37.5t29.5 32t39 22t48 8.5q24 0 45.5 -7t37 -24.5t24.5 -46.5t11 -73q22 8 41.5 24.5t36 39t26 51t11.5 59.5h91q-2 -38 -16 -76t-38 -70t-56 -55.5t-68 -31.5 h-98q-2 18 -5 40t-11 42.5t-21 33.5t-34 13q-20 0 -33.5 -12.5t-21.5 -31t-12.5 -41.5t-4.5 -44h-76q-2 22 -5.5 44.5t-11.5 41t-20.5 31t-32.5 12.5q-25 0 -39.5 -13.5t-21 -33.5t-8 -42.5t-1.5 -39.5h-88z" />
<glyph d="M-685 1844v78h171v149h96v-149h174v-78h-174v-158h-96v158h-171z" />
<glyph d="M-510 -203h200v-400h-111v300h-89v100z" />
<glyph d="M-726 -203h201v-181q0 -137 121 -138q120 1 120 138v181h113v-181q-2 -43 -14 -84.5t-39.5 -71.5t-71.5 -48t-108 -18q-65 0 -108.5 18t-71 48t-39.5 71q-13 42 -14 85v89h-89v92z" />
<glyph d="M-510 -283.5q0 19.5 7.5 36.5t20.5 29t30.5 19t36.5 7t36 -7t29.5 -19t19.5 -29t7 -36.5t-7 -36.5t-19.5 -30t-29.5 -20.5t-36 -7.5t-36.5 7.5t-30.5 20.5t-20.5 30t-7.5 36.5z" />
<glyph d="M-501 -203h201v-400h-112v300h-89v100z" />
<glyph d="M-860 -203h200v-181q0 -137 122 -138q120 1 120 138v181h112v-181q-1 -43 -13.5 -84.5t-39.5 -71.5t-71 -48t-108.5 -18t-108 18t-71 48t-40.5 71q-12 42 -13 85v89h-89v92z" />
<glyph d="M-482 -283.5q0 19.5 7.5 36.5t20.5 29t30.5 19t37 7t36 -7t28.5 -19t19.5 -29t7.5 -36.5t-7.5 -36.5t-19.5 -30t-29 -21q-16 -7 -35.5 -7t-37 7.5t-30.5 20.5t-20.5 30t-7.5 36.5z" />
<glyph d="M-737 1411v189h103v-93h735v-96h-838z" />
<glyph d="M-516 1826v259h98v-259h-98z" />
<glyph d="M-797 2008v80h194v-175q63 0 107.5 12t75.5 35.5t47.5 55t21.5 72.5h115q-4 -51 -29 -97t-69.5 -81.5t-108.5 -56.5q-64 -20 -146 -23h-107v178h-101z" />
<glyph d="M-760 1830q0 61 12 101t32 64t44.5 34.5t55.5 10.5q24 0 44 -9t35.5 -24t26.5 -34t17 -40q4 19 15 39t28 35t39 24t49 9q25 0 47 -7.5t37 -25.5t24 -46.5t10 -72.5q22 8 42 24.5t35.5 40t26 50.5t11.5 60h93q-2 -38 -16.5 -76.5t-38.5 -70t-55.5 -54.5t-69.5 -32h-99 q-1 18 -4 40t-10.5 42t-20.5 33q-12 14 -34 14q-19 0 -34 -12.5t-24.5 -31.5t-15.5 -42q-5 -21 -5 -43h-64q-2 22 -6 44t-13.5 41t-23.5 31.5t-33 12.5q-24 0 -39.5 -13.5t-22 -34t-8 -42.5t-1.5 -39h-86z" />
<glyph d="M-685 1984v79h171v148h96v-148h174v-79h-174v-158h-96v158h-171z" />
<glyph d="M-996 1411l48 96h806v-96h-854z" />
<glyph d="M-996 1411l48 96h701v182h105v-278h-854z" />
<glyph d="M-996 1411l48 96h564q-8 19 -10 33t-2 16q0 30 11.5 56.5t32 47t47 32t56.5 11.5t56 -11.5t46 -32t31.5 -47t11.5 -56.5t-11.5 -56t-31.5 -46t-47 -31q-25 -12 -55 -12h-11h-736zM-323 1554q0 -14 6 -28t16.5 -23.5t23.5 -14.5q14 -6 28 -6q15 0 28 5.5t22.5 15 t15.5 23.5t6 28q0 15 -6 28.5t-15.5 24t-23.5 16t-27.5 5.5t-27 -5.5t-24 -16t-16.5 -24t-6 -28.5z" />
<glyph d="M-996 1411l48 96h447v182h102v-182h152v182h105v-278h-854z" />
<glyph d="M-626 1826v259h99v-259h-99z" />
<glyph d="M-795 1984v79h172v148h96v-148h174v-79h-174v-158h-96v158h-172z" />
</font>
</defs>
</svg>
