<?xml version="1.0" standalone="no"?>
<!DOCTYPE svg PUBLIC "-//W3C//DTD SVG 1.1//EN" "http://www.w3.org/Graphics/SVG/1.1/DTD/svg11.dtd" >
<svg xmlns="http://www.w3.org/2000/svg" xmlns:xlink="http://www.w3.org/1999/xlink" version="1.1">
<metadata></metadata>
<defs>
<font id="db_helvethaica_x37_thincond" horiz-adv-x="0" >
<font-face units-per-em="2048" ascent="1638" descent="-410" />
<missing-glyph horiz-adv-x="501" />
<glyph unicode="&#x2b;&#x2d;" horiz-adv-x="1001" d="M114 27v80h776v-80h-776zM114 560v81h345v351h86v-351h345v-81h-345v-360h-86v360h-345z" />
<glyph unicode="&#x2e;&#x2e;&#x2e;" horiz-adv-x="2008" d="M260 0v164h151v-164h-151zM930 0v164h151v-164h-151zM1597 0v164h151v-164h-151z" />
<glyph unicode="&#x3c;&#x3d;" horiz-adv-x="1017" d="M85 58v78h836v-78h-836zM85 732v41l836 438v-89l-703 -370l703 -366v-93z" />
<glyph unicode="&#x3e;&#x3d;" horiz-adv-x="1023" d="M103 58v78h835v-78h-835zM103 293v93l703 366l-703 370v89l835 -438v-41z" />
<glyph unicode="&#xe4f;&#x22;" horiz-adv-x="1391" d="M92 573q0 82 21 156.5t60 139.5t94 118.5t121.5 92t144 59t160.5 20.5q84 0 161.5 -20.5t143.5 -59t121 -92t94 -118.5t60 -140q22 -74 22 -156q0 -83 -21.5 -158t-60.5 -139.5t-94 -118t-121 -92t-143.5 -59t-161.5 -20.5q-83 0 -160.5 20.5t-144 59t-121.5 92t-94 118 t-60 139.5t-21 158zM173 575q0 -69 18.5 -134.5t52 -121.5t81.5 -102.5t105.5 -79.5t124.5 -51.5t138 -18.5t137.5 18.5t125 51.5t105.5 79.5t80.5 102.5t53 120.5t19.5 135.5q0 70 -19.5 134.5t-53 121.5t-80.5 103.5t-105.5 79.5t-125 50.5t-137.5 17.5t-138 -17.5 t-124.5 -50.5t-105.5 -79.5t-81.5 -103.5t-52 -121.5t-18.5 -134.5zM378 575q0 63 24.5 119.5t67 97.5t100 65.5t123.5 24.5t123 -24.5t100 -65.5t67.5 -97.5t24.5 -119.5t-24.5 -119.5t-67.5 -98.5t-100 -66t-123 -24t-123.5 24t-100 66t-67 98.5t-24.5 119.5zM452 575 q0 -49 19 -91.5t52 -74t77 -50.5t93 -19q50 0 93.5 19t76.5 50.5t51.5 74t18.5 91.5q0 50 -18.5 92.5t-51.5 74t-76.5 50t-93.5 18.5q-49 0 -93 -18.5t-77 -50t-52 -74t-19 -92.5zM507 1641h104l-19 -339h-69zM786 1641h104l-17 -339h-67z" />
<glyph unicode="&#xe0e;&#xe3a;" horiz-adv-x="1085" d="M33 0v66h142v808q0 47 -15 85t-42 69q35 52 82.5 89.5t101.5 63t113.5 37t122.5 11.5q47 0 94.5 -7.5t89.5 -24t78.5 -40t63 -54t42 -69.5t15.5 -86v-1321h-61q-65 62 -132.5 88.5t-127.5 26.5q-36 0 -70 -8t-71 -23t-75 -40q-39 -24 -80 -57v87q74 58 146 85 q71 26 150 26q62 0 125.5 -19.5t121.5 -61.5v1217q0 41 -22 81t-62 68.5t-97.5 46.5t-127.5 18q-50 0 -99.5 -9t-92 -26t-79.5 -43t-61 -59q21 -25 33 -63.5t12 -84.5v-877h-218zM814 -581q0 14 5.5 26t14.5 21t20.5 14t25.5 5q27 0 46 -19t19 -47q0 -14 -4.5 -25.5 t-13.5 -20.5t-21.5 -14.5t-25.5 -5.5q-14 0 -25.5 5.5t-20.5 14.5t-14.5 20.5t-5.5 25.5z" />
<glyph unicode="&#xe0f;&#xe3a;" horiz-adv-x="1085" d="M33 0v64h142v810q0 47 -15 85t-42 69q34 54 81.5 92t101.5 62t114 35t123 11q47 0 94.5 -8t89.5 -23.5t78.5 -39t63 -55t42 -69.5t15.5 -85v-1321h-73q-5 28 -18 49t-31 37t-41.5 25t-50.5 9t-50.5 -9t-41.5 -25t-30 -38q-12 -20 -16 -48h-74q-6 28 -19 49t-31 37t-41 25 t-51 9q-27 0 -50.5 -9t-41 -25t-29.5 -38q-13 -20 -17 -48h-73q6 40 24 74.5t46 59.5t64 39.5t77 14.5q53 0 100 -24t77 -66q14 19 34 36t42.5 28.5t48 18.5t52.5 7q38 0 74 -13t66 -38v1184q0 41 -22 80t-62 68.5t-97.5 47.5t-127.5 18q-49 0 -97.5 -9t-93 -26t-81.5 -42 t-62 -59q22 -25 34.5 -64.5t12.5 -84.5v-877h-218zM814 -581q0 14 5.5 26t14.5 21t20.5 14t25.5 5q27 0 46 -19t19 -47q0 -14 -4.5 -25.5t-13.5 -20.5t-21.5 -14.5t-25.5 -5.5q-14 0 -25.5 5.5t-20.5 14.5t-14.5 20.5t-5.5 25.5z" />
<glyph unicode="&#xe0e;&#xe38;" horiz-adv-x="1085" d="M33 0v66h142v808q0 47 -15 85t-42 69q35 52 82.5 89.5t101.5 63t113.5 37t122.5 11.5q47 0 94.5 -7.5t89.5 -24t78.5 -40t63 -54t42 -69.5t15.5 -86v-1321h-61q-65 62 -132.5 88.5t-127.5 26.5q-36 0 -70 -8t-71 -23t-75 -40q-39 -24 -80 -57v87q74 58 146 85 q71 26 150 26q62 0 125.5 -19.5t121.5 -61.5v1217q0 41 -22 81t-62 68.5t-97.5 46.5t-127.5 18q-50 0 -99.5 -9t-92 -26t-79.5 -43t-61 -59q21 -25 33 -63.5t12 -84.5v-877h-218zM701 -518h220v-363h-74v292h-146v71z" />
<glyph unicode="&#xe0f;&#xe38;" horiz-adv-x="1085" d="M33 0v64h142v810q0 47 -15 85t-42 69q34 54 81.5 92t101.5 62t114 35t123 11q47 0 94.5 -8t89.5 -23.5t78.5 -39t63 -55t42 -69.5t15.5 -85v-1321h-73q-5 28 -18 49t-31 37t-41.5 25t-50.5 9t-50.5 -9t-41.5 -25t-30 -38q-12 -20 -16 -48h-74q-6 28 -19 49t-31 37t-41 25 t-51 9q-27 0 -50.5 -9t-41 -25t-29.5 -38q-13 -20 -17 -48h-73q6 40 24 74.5t46 59.5t64 39.5t77 14.5q53 0 100 -24t77 -66q14 19 34 36t42.5 28.5t48 18.5t52.5 7q38 0 74 -13t66 -38v1184q0 41 -22 80t-62 68.5t-97.5 47.5t-127.5 18q-49 0 -97.5 -9t-93 -26t-81.5 -42 t-62 -59q22 -25 34.5 -64.5t12.5 -84.5v-877h-218zM701 -518h220v-363h-74v292h-146v71z" />
<glyph unicode="&#xe0e;&#xe39;" horiz-adv-x="1085" d="M33 0v66h142v808q0 47 -15 85t-42 69q35 52 82.5 89.5t101.5 63t113.5 37t122.5 11.5q47 0 94.5 -7.5t89.5 -24t78.5 -40t63 -54t42 -69.5t15.5 -86v-1321h-61q-65 62 -132.5 88.5t-127.5 26.5q-36 0 -70 -8t-71 -23t-75 -40q-39 -24 -80 -57v87q74 58 146 85 q71 26 150 26q62 0 125.5 -19.5t121.5 -61.5v1217q0 41 -22 81t-62 68.5t-97.5 46.5t-127.5 18q-50 0 -99.5 -9t-92 -26t-79.5 -43t-61 -59q21 -25 33 -63.5t12 -84.5v-877h-218zM375 -518h192v-175q0 -39 12.5 -65t32.5 -43t45 -24.5t50 -7.5q26 0 51.5 7.5t45 24.5 t31.5 43t12 65v175h74v-175q-2 -41 -13 -78t-36 -65t-65 -45.5t-100 -17.5q-59 0 -99.5 17.5t-65 45.5t-36.5 65q-13 37 -13 78v104h-118v71z" />
<glyph unicode="&#xe0f;&#xe39;" horiz-adv-x="1085" d="M33 0v64h142v810q0 47 -15 85t-42 69q34 54 81.5 92t101.5 62t114 35t123 11q47 0 94.5 -8t89.5 -23.5t78.5 -39t63 -55t42 -69.5t15.5 -85v-1321h-73q-5 28 -18 49t-31 37t-41.5 25t-50.5 9t-50.5 -9t-41.5 -25t-30 -38q-12 -20 -16 -48h-74q-6 28 -19 49t-31 37t-41 25 t-51 9q-27 0 -50.5 -9t-41 -25t-29.5 -38q-13 -20 -17 -48h-73q6 40 24 74.5t46 59.5t64 39.5t77 14.5q53 0 100 -24t77 -66q14 19 34 36t42.5 28.5t48 18.5t52.5 7q38 0 74 -13t66 -38v1184q0 41 -22 80t-62 68.5t-97.5 47.5t-127.5 18q-49 0 -97.5 -9t-93 -26t-81.5 -42 t-62 -59q22 -25 34.5 -64.5t12.5 -84.5v-877h-218zM375 -518h192v-175q0 -39 12.5 -65t32.5 -43t45 -24.5t50 -7.5q26 0 51.5 7.5t45 24.5t31.5 43t12 65v175h74v-175q-2 -41 -13 -78t-36 -65t-65 -45.5t-100 -17.5q-59 0 -99.5 17.5t-65 45.5t-36.5 65q-13 37 -13 78v104 h-118v71z" />
<glyph unicode="&#xd;" horiz-adv-x="568" />
<glyph unicode=" "  horiz-adv-x="501" />
<glyph unicode="&#x09;" horiz-adv-x="501" />
<glyph unicode="&#xa0;" horiz-adv-x="501" />
<glyph unicode="!" horiz-adv-x="669" d="M285 0v110h101v-110h-101zM290 954v476h89v-476l-17 -639h-58z" />
<glyph unicode="&#x22;" horiz-adv-x="501" d="M114 1028v402h78v-402h-78zM312 1028v402h80v-402h-80z" />
<glyph unicode="#" horiz-adv-x="1119" d="M107 462l27 75h203q11 36 22 68.5t22 64t22 64.5t22 70h-214q5 19 15 37.5t18 38.5h205q37 117 76 231t75 230h85l-153 -461h189q38 117 77.5 231t76.5 230h85l-157 -461h215l-27 -76h-211q-11 -35 -23 -68t-22 -65.5t-21 -64.5q-13 -33 -24 -69h217l-17 -75h-221 q-37 -118 -76.5 -231t-77.5 -231h-81l152 462h-191q-39 -118 -78.5 -231t-78.5 -231h-82l156 462h-205zM419 537h189q11 36 23 68.5t22 64t21 64.5t23 70h-190q-11 -35 -22 -68t-22 -65.5l-22 -65t-22 -68.5z" />
<glyph unicode="$" horiz-adv-x="1001" d="M79 403h84q3 -78 20 -141t51.5 -109t86.5 -73.5t122 -34.5v674q-31 14 -59 26q-28 11 -57 25q-60 27 -103 63t-72 78.5t-42 90t-13 98.5q0 78 25.5 142.5t72 112t109.5 75.5t139 35v163h83v-163q77 -6 137 -32.5t105.5 -70.5t73 -105.5t36.5 -135.5h-83q-6 52 -27 98.5 t-55.5 81.5t-81.5 57.5t-105 29.5v-615q36 -17 70 -32t70 -31q57 -28 104 -62t81 -78t52 -96t18 -112q0 -89 -27.5 -159.5t-79.5 -121.5t-125 -79.5t-163 -33.5v-163h-83v165q-179 14 -268 123.5t-96 309.5zM178 1097q0 -45 14.5 -83.5t40 -70t58 -56t68.5 -40.5l84 -37v579 q-69 -7 -119 -35t-82 -67.5t-48 -89.5t-16 -100zM526 44q66 5 123 27t98.5 60.5t66 96t24.5 134.5q0 56 -17 97.5t-45 74t-63.5 56.5t-74.5 40q-16 7 -29 13t-26 12.5t-26.5 12.5t-30.5 13v-637z" />
<glyph unicode="%" horiz-adv-x="1587" d="M189 1081q0 66 13.5 124t42.5 102t75.5 70t112.5 26q64 0 107.5 -26t69.5 -70t37 -103t11 -123q0 -88 -16.5 -148t-47 -98t-72.5 -55t-92 -17q-55 0 -98.5 17t-75 55t-49.5 99t-18 147zM271 1081q0 -44 5.5 -88.5t22 -78.5t48 -56t83.5 -22q47 0 76.5 22t46 56t22 78 t5.5 89q0 20 -1.5 46.5t-6.5 54.5t-14.5 54.5t-26 47t-41 33t-57.5 12.5q-38 0 -64.5 -12.5t-44 -33t-28.5 -47t-16.5 -54.5t-7 -54.5t-1.5 -46.5zM447 0l608 1414h85l-606 -1414h-87zM929 315q0 66 13.5 124t42.5 102t75.5 69.5t112.5 25.5q64 0 107 -25.5t69 -69.5 t37 -102t11 -124q0 -88 -16 -148t-46.5 -98.5t-73 -55t-91.5 -16.5q-55 0 -98.5 16.5t-75.5 55t-49.5 98.5t-17.5 148zM1011 315q0 -44 5.5 -87.5t22.5 -79.5t48.5 -58t82.5 -22q48 0 77.5 22t45 58t21 79.5t5.5 87.5q0 21 -1 47.5t-6 54t-14.5 53.5t-26 47t-41 34t-57.5 13 q-39 0 -65 -13t-43.5 -34t-28.5 -47t-16.5 -53.5t-7 -54t-1.5 -47.5z" />
<glyph unicode="&#x26;" horiz-adv-x="1338" d="M186 370q0 71 23.5 132.5t66 115t101.5 103t130 96.5q-36 47 -63.5 92t-45 87t-27 84.5t-9.5 89.5q0 55 18.5 104t52 87t80 60.5t101.5 22.5q59 0 107.5 -18t82.5 -50.5t53.5 -80.5t19.5 -111t-22 -117.5t-59 -101.5t-85 -89.5t-99 -80.5l335 -488q22 44 36 83t25 76.5 t17 75.5q7 39 11 77h74q-7 -97 -32.5 -192t-77.5 -191q45 -63 91 -125t95 -126h-102l-130 177q-80 -99 -168.5 -149.5t-190.5 -50.5q-99 0 -174.5 31.5t-127.5 86t-79.5 128.5t-27.5 162zM271 367q0 -66 22 -125.5t64.5 -104t103 -70.5t134.5 -26q49 0 93 16.5t83.5 42.5 t72.5 60.5t57 69.5l-353 524q-58 -46 -108.5 -87.5t-88 -85.5t-59 -96t-21.5 -118zM441 1167q0 -30 7 -61.5t22 -68t39.5 -78.5t60.5 -96q46 36 87.5 73t73 76.5t50 82t18.5 89.5q0 41 -13 76t-38 59.5t-59 37.5t-75 13q-37 0 -68 -16.5t-54 -44t-37 -64.5t-14 -78z" />
<glyph unicode="'" horiz-adv-x="501" d="M210 1028v402h80v-402h-80z" />
<glyph unicode="(" horiz-adv-x="669" d="M200 510q0 128 18 247.5t51.5 233t83.5 222.5q50 108 118 217h93q-69 -120 -122 -232t-87 -223t-50.5 -225t-16.5 -240t16.5 -240t50.5 -225t87 -222.5t122 -232.5h-93q-67 110 -117.5 219t-84 221t-51.5 231.5t-18 248.5z" />
<glyph unicode=")" horiz-adv-x="669" d="M107 -410q70 121 122 232.5t86 222.5t51 226q18 113 18 239t-17.5 240t-51.5 225t-87 223t-121 232h93q66 -109 116.5 -217.5t85 -222t51.5 -233t17 -247.5q0 -129 -17 -248.5t-51.5 -231.5t-85 -221.5t-116.5 -218.5h-93z" />
<glyph unicode="*" horiz-adv-x="1001" d="M211 1217l27 65l231 -85v233h76v-231l224 81l28 -66l-230 -86l156 -180l-63 -49l-156 183l-153 -183l-63 49l155 181z" />
<glyph unicode="+" horiz-adv-x="1001" d="M114 443v80h345v351h86v-351h345v-80h-345v-346h-86v346h-345z" />
<glyph unicode="," horiz-adv-x="501" d="M175 -195q25 20 42 43t27.5 48.5t14.5 51.5t4 52h-85v164h151v-149q0 -49 -8.5 -89.5t-27.5 -77t-48 -67t-70 -58.5v82z" />
<glyph unicode="-" horiz-adv-x="695" d="M105 443v80h485v-80h-485z" />
<glyph unicode="." horiz-adv-x="501" d="M175 0v164h151v-164h-151z" />
<glyph unicode="/" horiz-adv-x="557" d="M-10 -52l487 1499h92l-494 -1499h-85z" />
<glyph unicode="0" horiz-adv-x="953" d="M118 707q0 49 0.5 104t5.5 112t15 113.5t27.5 108.5t43.5 96.5t63.5 77.5t87.5 51.5t116 18.5t116 -18.5t87.5 -51.5t63.5 -77.5t42.5 -96.5t26 -108.5t15 -113.5t6.5 -113v-103q0 -80 -2 -165.5t-13 -166t-33.5 -152.5t-62 -126.5t-100 -86t-146.5 -31.5 q-87 0 -147 31.5t-100 86t-62.5 126.5t-33.5 152.5t-13 165.5q-3 86 -3 166zM203 707q0 -70 2 -146t11 -148t26.5 -137t48 -113.5t75.5 -77.5t111 -29q64 0 110 29t76 77.5t48 113t26 137t11 148t3 146.5q0 67 -3.5 137.5t-14 137.5t-28 127.5t-48.5 105.5t-75.5 71 t-104.5 26q-66 0 -111 -29t-75.5 -78.5t-48 -113t-26.5 -131t-11 -133.5q-2 -65 -2 -120z" />
<glyph unicode="1" horiz-adv-x="950" d="M175 1044v73q72 2 126.5 16t93.5 43.5t64.5 77.5t37.5 116h70v-1370h-82v1140q-30 -28 -68 -46.5t-78 -30t-81.5 -15.5t-82.5 -4z" />
<glyph unicode="2" horiz-adv-x="950" d="M114 0q0 52 7.5 103.5t26.5 101.5t49 96q30 47 74 88q71 66 142.5 133t142.5 133q40 38 71 78t52.5 85t34.5 96q12 50 12 111q0 64 -15.5 118t-46.5 92.5t-77.5 59t-109.5 20.5q-69 0 -119.5 -29.5t-83.5 -78t-49 -108.5q-17 -61 -17 -124h-83q2 100 29 177.5t72 131 t109 81t142 27.5q85 0 148 -27.5t104 -75.5t60 -115t19 -149q0 -74 -13 -133.5t-38 -112t-63.5 -98t-87.5 -92.5l-281 -259q-28 -24 -50.5 -55t-37.5 -64t-24 -67t-10 -67h620v-77h-709z" />
<glyph unicode="3" horiz-adv-x="950" d="M101 364h85q0 -57 12.5 -112t42.5 -97.5t84 -68.5t138 -26q74 0 126 22t85.5 62.5t49.5 94.5t16 119q0 85 -21.5 147t-65 102.5t-110.5 61.5q-66 21 -157 24v66q40 3 79 11t73.5 23t64.5 40t52 57.5t33.5 78t11.5 100.5q0 49 -14.5 94t-44 78.5t-75 53.5t-108.5 20 q-66 0 -112.5 -22t-75.5 -59t-43.5 -86t-18.5 -104h-83q5 74 27 137.5t63 110t102 73.5t141 27q76 0 136.5 -23.5t103 -66.5t64.5 -102.5t22 -130.5q0 -41 -5 -86t-23.5 -89.5t-56.5 -85.5q-39 -44 -107 -76q52 -17 89.5 -41.5t63 -54.5t41 -64.5t24 -70t11 -72t2.5 -69.5 q0 -76 -19 -145.5t-62 -120t-111.5 -80.5t-167.5 -30q-96 0 -163 27t-111 76.5t-64.5 120t-23.5 156.5z" />
<glyph unicode="4" horiz-adv-x="919" d="M77 359v66l542 945h77v-934h136v-77h-136v-359h-82v359h-537zM177 436h437v765z" />
<glyph unicode="5" horiz-adv-x="950" d="M112 312h84q5 -54 23.5 -101.5t51.5 -81t80.5 -52.5t108.5 -19q69 0 121 32.5t87.5 87.5t53.5 126t18 149q0 44 -5.5 88.5t-17 86.5t-31.5 78.5t-49 63.5t-68.5 43t-91.5 16q-39 0 -77 -10.5t-72.5 -27.5t-64.5 -41t-55 -54h-68l82 674h553v-77h-478q-8 -60 -15.5 -117.5 l-15 -115t-15 -116.5t-15.5 -119q54 41 114.5 59.5t126.5 18.5t118 -17t90 -48.5t64 -74t42.5 -92t24 -105.5t7.5 -112.5t-8.5 -112.5t-27 -109t-48 -98.5t-69.5 -78.5t-92 -53t-118 -20q-82 0 -145 25.5t-105.5 69.5t-67 104t-30.5 131z" />
<glyph unicode="6" horiz-adv-x="950" d="M114 619q0 63 2 129.5t7.5 132.5t17 129t31.5 118.5t48.5 103.5t69 82t94.5 53t123 19q57 0 106.5 -19t88 -53t65.5 -84q28 -49 43 -112h-84q-12 53 -36 89.5t-54 60t-63 33t-66 9.5q-69 0 -117.5 -26t-82.5 -71.5t-55.5 -107t-33 -130.5t-16.5 -144t-5 -147 q36 57 77 91.5t81.5 53t77.5 22.5q36 5 63 5q89 0 154 -34t107.5 -91.5t62.5 -133.5t20 -159q0 -104 -24 -187.5t-68.5 -143.5t-110.5 -91.5t-149 -31.5q-91 0 -152.5 27t-104 75t-66 111t-35 133t-14 144t-2.5 145zM211 453q0 -105 24.5 -179.5t63 -122t88 -69.5t101.5 -22 q50 0 90.5 16.5t70 45.5t50 67t33.5 80t18.5 86t5.5 83q0 66 -14.5 127.5t-46 109t-81.5 76.5t-121 29q-46 0 -84 -15.5t-68.5 -40.5t-54 -58t-39 -70t-24.5 -73.5t-12 -69.5z" />
<glyph unicode="7" horiz-adv-x="950" d="M114 1293v77h735v-73q-95 -137 -174 -288t-140 -314t-106 -337q-43 -174 -73 -358h-85q25 167 64 332t96.5 327.5t135 321.5t180.5 312h-633z" />
<glyph unicode="8" horiz-adv-x="950" d="M123 375q0 61 12.5 115.5t37 101t62.5 84.5q36 38 88 62q-45 29 -74.5 63.5t-48 74t-26 83.5t-7.5 93q0 39 8.5 78.5t24 78t41 71t59.5 57.5t79.5 40t100.5 15q65 0 122.5 -23.5t99 -68.5t64.5 -108t23 -145q0 -47 -7 -89.5t-22.5 -80t-43.5 -71.5q-28 -33 -69 -66 q49 -25 84.5 -62.5t57.5 -85t32.5 -102t10.5 -115.5q0 -83 -20 -156.5t-62.5 -127.5t-107.5 -85q-67 -31 -157 -31q-93 0 -160 31t-112.5 85t-67.5 127.5t-22 156.5zM206 375q0 -67 17.5 -126.5t52.5 -103.5t87.5 -68.5t121 -24.5t119.5 24.5t82.5 68.5t46.5 103t15 127 q0 63 -15 120.5t-46.5 103t-81 72t-120.5 26.5t-123 -26.5t-86.5 -72t-52 -103.5t-17.5 -120zM251 1052q0 -63 17 -113.5t48 -87.5t74 -57.5t95 -20.5t93 21t70 57.5t44 87t15 108t-16.5 107t-46.5 85t-71 56t-93 20.5q-50 0 -92.5 -20.5t-72.5 -56t-47 -83.5t-17 -103z" />
<glyph unicode="9" horiz-adv-x="950" d="M114 932q0 104 24 187.5t68.5 142.5t110 91.5t149.5 32.5q90 0 152 -28t104 -75t65.5 -110t35 -134.5t14.5 -145.5t3 -142q0 -63 -2 -130.5t-7.5 -133t-17.5 -128.5t-31.5 -119t-48.5 -103t-69.5 -81t-94.5 -53t-122 -19q-59 0 -108 17.5t-87 53t-65.5 85t-42.5 112.5h83 q13 -53 37 -91t54 -60t63 -32t66 -10q68 0 116.5 26.5t83 72t55.5 105.5t33 130t16.5 144.5t4.5 147.5q-35 -58 -76.5 -92t-81.5 -52t-77 -23q-36 -6 -63 -6q-89 0 -154.5 34.5t-108 92t-62 133t-19.5 160.5zM197 932q0 -66 14.5 -127.5t46 -109.5t81.5 -77t121 -29 q47 0 84.5 15t68.5 40.5t54 59t39 69t25 72.5t12 70q0 106 -25 180.5t-63.5 122.5t-87.5 70t-101 22t-92 -18t-69.5 -46.5t-50 -65.5t-33.5 -79.5t-18.5 -86t-5.5 -82.5z" />
<glyph unicode=":" horiz-adv-x="501" d="M175 0v164h151v-164h-151zM175 854v165h151v-165h-151z" />
<glyph unicode=";" horiz-adv-x="501" d="M175 -195q25 20 42 43t27.5 48.5t14.5 51.5t4 52h-85v164h151v-149q0 -49 -8.5 -89.5t-27.5 -77t-48 -67t-70 -58.5v82zM175 854v165h151v-165h-151z" />
<glyph unicode="&#x3c;" horiz-adv-x="1001" d="M85 466v40l836 439v-90l-703 -370l703 -366v-93z" />
<glyph unicode="=" horiz-adv-x="1001" d="M108 263v79h788v-79h-788zM108 627v81h788v-81h-788z" />
<glyph unicode="&#x3e;" horiz-adv-x="1001" d="M85 26v93l704 366l-704 370v90l836 -439v-40z" />
<glyph unicode="?" horiz-adv-x="1001" d="M162 1044q4 77 28 149.5t68.5 127t111 87.5t155.5 33q82 0 150 -24.5t114.5 -71t72.5 -112.5t26 -145q0 -69 -16.5 -122.5t-44 -99t-63 -86t-71.5 -81.5q-38 -44 -68 -81t-50 -78t-31.5 -90t-14.5 -117h-88q3 71 14.5 124.5t33.5 99.5t54 90q32 46 76 98q33 39 66 74.5 t59 76.5t41.5 87.5t15.5 104.5q0 55 -18.5 105.5t-53 89t-86 60.5t-118.5 22q-69 0 -120.5 -27t-85.5 -71.5t-53 -102t-22 -120.5h-82zM430 0v115h107v-115h-107z" />
<glyph unicode="@" horiz-adv-x="1607" d="M195 682q0 91 23 176t63.5 157.5t98 132.5t128 103.5t150 67.5t167.5 24q79 0 153 -19.5t139 -53.5t118.5 -83.5t91.5 -110.5t59 -132q21 -70 21 -149q0 -55 -11.5 -112.5t-34.5 -112t-56.5 -103t-77 -84t-97 -57.5t-116.5 -22q-25 0 -49 7t-42.5 19t-30.5 33t-15 49 q-30 -34 -60.5 -54.5t-57.5 -31.5t-51 -15q-23 -4 -42 -4q-58 0 -99 20t-67 53.5t-39 77t-13 95.5q0 55 11.5 112.5t35 112.5t57 104.5t76 86.5t94 58.5t108.5 21.5q71 0 122 -32.5t70 -91.5q8 26 16 51q7 24 14 49h80l-166 -504q-6 -20 -10.5 -41t-4.5 -37q0 -28 15 -46 t53 -18q45 0 85.5 18.5t74 49.5t60.5 73t46 87t29 94q9 50 9 94q0 69 -19 131t-53 114t-81.5 93t-103 70t-117 44t-124.5 15q-76 0 -146.5 -21.5t-130.5 -59.5t-109.5 -91.5t-85 -118t-55 -138.5t-19.5 -151q0 -79 18.5 -154t53.5 -139t84.5 -117t110 -91.5t131.5 -59 t148 -20.5q60 0 125 15.5t126.5 44t116.5 69.5t96 93h104q-52 -74 -118.5 -130t-140.5 -94.5t-153.5 -57.5t-155.5 -19q-93 0 -176 23t-153.5 65.5t-125.5 103.5t-94.5 134.5t-60.5 157.5q-20 86 -20 176zM532 559q0 -37 7.5 -69t24 -56t41.5 -37t61 -13q38 0 72.5 17 t63 42.5t49 54.5t31.5 53q14 30 27.5 65.5t25.5 74t19.5 77t7.5 73.5q0 30 -10.5 55t-27.5 42.5t-41.5 27t-52.5 9.5q-44 0 -83.5 -17.5t-72.5 -49t-59.5 -73.5t-45 -88t-28 -95t-9.5 -93z" />
<glyph unicode="A" horiz-adv-x="1130" d="M78 0l438 1430h92l439 -1430h-88l-130 432h-534q-17 -53 -32.5 -107t-32 -109.5t-33 -109.5t-33.5 -106h-86zM318 507h489l-245 814q-30 -104 -61 -204t-61 -201.5t-61 -203t-61 -205.5z" />
<glyph unicode="B" horiz-adv-x="1113" d="M195 0v1430h341q112 0 188 -24t122.5 -68.5t67 -107.5t20.5 -141q0 -49 -8 -95t-28.5 -88.5t-55.5 -79.5t-88 -67q68 -19 110.5 -57.5t66 -88t31.5 -107t8 -111.5v-23q0 -90 -20 -157q-24 -75 -72.5 -123t-122 -70t-171.5 -22h-389zM279 77h305q79 0 136.5 16.5t94 52.5 t53.5 96q17 62 17 150q0 79 -15 133.5t-41 90t-62.5 55t-77.5 28.5t-85.5 11t-89.5 2h-235v-635zM279 785h235q35 0 74 5t77.5 17t72 34t59 55.5t40.5 81t15 111.5q0 80 -25.5 131t-68.5 81.5t-102 41.5t-123 11h-254v-569z" />
<glyph unicode="C" horiz-adv-x="1116" d="M142 732q0 80 7 166t25 167.5t49.5 153.5t80 125t116.5 84.5t161 31.5q90 0 160 -31.5t119.5 -86t78 -127t38.5 -155.5h-84q-5 63 -28.5 122t-62.5 104.5t-94.5 71.5t-129.5 26q-60 0 -106.5 -18.5t-83.5 -51.5t-63 -77.5t-44 -95t-29 -105.5t-16.5 -108.5t-8 -103 t-2.5 -90.5q0 -49 1 -104t6 -111.5t14 -113.5t26.5 -108.5t43.5 -96t63 -76.5t86.5 -50.5t115.5 -18.5q57 0 101 16.5t78.5 44.5t58.5 67.5t39.5 87t23.5 99.5t10 108h83q-2 -100 -24 -190.5t-68.5 -159t-120.5 -109.5t-181 -41q-104 0 -176.5 32t-122 87.5t-77 129.5 t-42 158t-18 173t-3.5 174z" />
<glyph unicode="D" horiz-adv-x="1223" d="M195 0v1430h383q108 0 186.5 -27.5t131.5 -75t85.5 -115t49.5 -145.5t22.5 -165.5t5.5 -178.5q0 -87 -6 -175t-23.5 -168t-48 -149t-81.5 -121t-123 -81q-73 -29 -171 -29h-411zM279 77h327q100 0 170.5 41t114 122t64 201.5t20.5 281.5q0 84 -5.5 162.5t-21.5 147 t-43.5 126.5t-71.5 100.5t-107 67t-148 27.5h-299v-1277z" />
<glyph unicode="E" horiz-adv-x="1009" d="M195 0v1430h687v-76h-603v-572h566v-75h-566v-630h606v-77h-690z" />
<glyph unicode="F" horiz-adv-x="923" d="M195 0v1430h639v-76h-555v-572h518v-75h-518v-707h-84z" />
<glyph unicode="G" horiz-adv-x="1231" d="M145 720.5q0 82.5 7 169.5t26 168.5t53.5 154t86 126t123.5 84.5q71 32 170 32q88 0 159 -26t123 -75.5t83.5 -119.5t38.5 -154h-83q-9 65 -32 121.5t-64 95.5t-97.5 60t-127.5 21q-82 0 -143 -28.5t-103.5 -79.5t-69 -116.5t-42 -139.5t-21 -149.5t-5.5 -146.5 q0 -44 2.5 -94.5t7 -106t15.5 -111t28 -107.5t42.5 -97.5t61 -78.5t83.5 -52t108 -19q70 0 124.5 23.5t96.5 63t71 93.5t48 118t28 132q11 69 11 140h-340v75h419v-697h-82v214q-33 -69 -75.5 -115.5t-92 -74t-103 -38.5t-105.5 -11q-94 0 -163.5 32.5t-116.5 87t-76.5 128 t-46 157t-22 171t-5.5 170z" />
<glyph unicode="H" horiz-adv-x="1234" d="M195 0v1430h84v-626h677v626h82v-1430h-82v726h-677v-726h-84z" />
<glyph unicode="I" horiz-adv-x="560" d="M238 0v1430h84v-1430h-84z" />
<glyph unicode="J" horiz-adv-x="894" d="M85 364v42h85v-44q0 -58 5.5 -112.5t27.5 -96t65.5 -66t117.5 -24.5q73 0 118 23.5t69 61.5t33 90q8 52 8 107v1085h82v-1085q0 -109 -22 -178.5t-63 -110t-98.5 -55.5t-128.5 -15q-96 0 -155 29t-90.5 79.5t-42.5 119t-11 150.5z" />
<glyph unicode="K" horiz-adv-x="1122" d="M195 0v1430h84v-812l638 812h98l-456 -589l499 -841h-96l-462 774l-215 -274v-500h-90z" />
<glyph unicode="L" horiz-adv-x="995" d="M197 0v1430h85v-1353h622v-77h-707z" />
<glyph unicode="M" horiz-adv-x="1585" d="M195 0v1430h121l470 -1327l483 1327h120v-1430h-85v1282q-115 -318 -231.5 -641t-231.5 -641h-105l-454 1284v-1284h-87z" />
<glyph unicode="N" horiz-adv-x="1239" d="M195 0v1430h112l655 -1307v1307h82v-1430h-111l-654 1307v-1307h-84z" />
<glyph unicode="O" horiz-adv-x="1231" d="M159 723q0 81 7.5 168t26 168.5t52 155t85 128t122.5 86t167 31.5q74 0 133.5 -17.5t105.5 -50.5t79 -78t56.5 -98.5t38.5 -114t23 -123.5t12 -127q3 -65 3 -125q0 -100 -8 -195t-27.5 -180t-51.5 -156.5t-83 -122t-120.5 -79.5t-165.5 -29q-98 0 -168.5 29t-121 79.5 t-82 121t-50.5 155t-26 179t-7 195.5zM242 723q0 -176 23 -304.5t68.5 -213t115.5 -124.5q69 -40 165 -40q89 0 158 40t117 124.5t72.5 213t24.5 304.5q0 91 -5.5 174.5t-21.5 157.5t-43.5 134t-68.5 104t-97.5 67.5t-130.5 23.5q-71 0 -126.5 -23.5t-97.5 -67.5t-70.5 -104 t-47 -134t-27 -157.5t-8.5 -174.5z" />
<glyph unicode="P" horiz-adv-x="1111" d="M195 0v1430h361q100 0 181.5 -17.5t139 -61.5t89 -116.5t31.5 -182.5q0 -93 -16.5 -159t-46.5 -111.5t-73.5 -73.5t-99 -43.5t-122 -20t-143.5 -4.5h-217v-640h-84zM279 717h217q67 0 124 4t103.5 17t82 35.5t59.5 60t36.5 91t12.5 127.5q0 82 -22.5 139.5t-68.5 94 t-114 52.5t-156 16h-274v-637z" />
<glyph unicode="Q" horiz-adv-x="1226" d="M159 723q0 81 7.5 168t26 168.5t52 155t85 128t122.5 86t167 31.5q74 0 133.5 -17.5t105.5 -50.5t79 -78t56.5 -98.5t38.5 -114t23 -123.5t12 -127q3 -65 3 -125q0 -79 -5 -154.5t-16.5 -147t-30 -134.5t-45.5 -117l164 -132l-52 -63l-159 126q-52 -66 -128 -103 q-77 -37 -184 -37q-98 0 -168.5 29t-121 79.5t-82 121t-50.5 155t-26 179.5q-7 94 -7 195zM242 723q0 -176 23 -304.5t68.5 -213t115.5 -124.5q69 -40 165 -40q75 0 136 28t108 89l-168 132l55 63l156 -124q42 85 63.5 207t21.5 287q0 91 -5.5 174.5t-21.5 157.5t-43.5 134 t-68.5 104t-97.5 67.5t-130.5 23.5q-71 0 -126.5 -23.5t-97.5 -67.5t-70.5 -104t-47 -134t-27 -157.5t-8.5 -174.5z" />
<glyph unicode="R" horiz-adv-x="1215" d="M195 0v1430h380q113 0 196.5 -21t139 -67t82 -116t26.5 -168q0 -55 -9.5 -108.5t-31.5 -103t-60 -88.5t-97 -62q50 -22 86 -59t59 -83.5t34 -101.5t11 -110q0 -32 1.5 -76.5t6 -90.5t13 -92t22.5 -83h-92q-24 85 -30.5 172.5t-6.5 172.5q0 66 -17.5 123.5t-54 100.5 t-94.5 68.5t-140 25.5h-337v-663h-87zM282 738h337q22 0 55 3t68.5 13t70.5 31t63 56.5t44.5 89t16.5 127.5q0 68 -17 117.5t-45 82.5t-65 52t-78.5 28.5t-82.5 12.5t-76 3h-291v-616z" />
<glyph unicode="S" horiz-adv-x="1116" d="M138 403h84q3 -84 23.5 -150.5t60 -113t100 -71t142.5 -24.5q73 0 136.5 19t110 59t74 98.5t27.5 141.5q0 56 -16.5 97.5t-44 74t-63.5 56.5q-35 24 -73 40q-77 33 -156.5 70t-156.5 70q-57 27 -99.5 64t-71.5 79.5t-44 90t-15 96.5q0 84 29 151.5t81 115t122 73.5 t155 26q82 0 150.5 -24t119.5 -69t83.5 -109t40.5 -143h-83q-6 57 -30 106.5t-64.5 85t-95.5 56.5q-53 22 -121 22q-79 0 -137 -25.5t-95 -67.5t-55.5 -94.5t-18.5 -106.5q0 -43 14.5 -82.5t39.5 -71t58 -55.5q35 -25 70 -41q74 -33 153 -68.5t153 -68.5q60 -28 107.5 -62 t80 -76.5t50.5 -94.5t18 -115q0 -93 -31 -167t-87.5 -125t-136 -77t-178.5 -26q-201 0 -302 111t-108 325z" />
<glyph unicode="T" horiz-adv-x="1001" d="M66 1354v76h868v-76h-389v-1354h-83v1354h-396z" />
<glyph unicode="U" horiz-adv-x="1228" d="M195 364v1066h84v-1066q0 -32 7 -69t23 -71.5t41 -64.5t62 -53.5t88 -37t114 -13.5q66 0 116.5 13.5t87.5 37t63 53.5t41 64.5t22 70.5q7 38 7 70v1066h82v-1066q0 -90 -29 -162.5t-83 -122t-131.5 -75.5t-175.5 -26q-96 0 -173 26t-131.5 75.5t-84.5 121.5 q-30 73 -30 163z" />
<glyph unicode="V" horiz-adv-x="1146" d="M85 1430h82l407 -1325l406 1325h83l-441 -1430h-97z" />
<glyph unicode="W" horiz-adv-x="1694" d="M85 1430h84l312 -1318l319 1318h99l285 -1316l342 1316h84l-377 -1430h-101l-285 1312l-315 -1312h-100z" />
<glyph unicode="X" horiz-adv-x="1116" d="M78 0l437 726l-420 704h89l378 -630l378 630h88l-425 -704l440 -726h-89l-392 653l-398 -653h-86z" />
<glyph unicode="Y" horiz-adv-x="1135" d="M64 1430h89l414 -781l417 781h87l-464 -866v-564h-84v563z" />
<glyph unicode="Z" horiz-adv-x="1031" d="M92 0v63l744 1293h-713v74h806v-63l-743 -1293h740v-74h-834z" />
<glyph unicode="[" horiz-adv-x="669" d="M238 -401v1831h280v-76h-195v-1672h195v-83h-280z" />
<glyph unicode="\" horiz-adv-x="501" d="M-34 1430h92l479 -1466h-85z" />
<glyph unicode="]" horiz-adv-x="669" d="M153 -318h194v1672h-194v76h280v-1831h-280v83z" />
<glyph unicode="^" horiz-adv-x="1001" d="M149 666l310 781h84l312 -781h-88l-266 674l-267 -674h-85z" />
<glyph unicode="_" horiz-adv-x="1001" d="M0 -118h1000v-74h-1000v74z" />
<glyph unicode="`" horiz-adv-x="669" d="M163 1447h116l169 -228h-81z" />
<glyph unicode="a" horiz-adv-x="889" d="M95 269q0 28 6.5 67t26.5 80.5t54 78.5t89 60l313 133q16 8 25.5 19t14.5 26t5.5 34t0.5 41q0 96 -49 146t-158 50q-46 0 -82.5 -12t-61 -35t-39.5 -53t-18 -64l-77 4q17 112 88 169.5t190 57.5q74 0 127.5 -17t87 -50.5t49.5 -81.5t16 -108v-628q0 -13 0.5 -33.5 t6 -38.5t18 -31t35.5 -13h37v-70h-34q-22 0 -44 4t-40 16t-31 33t-18 52q-30 -38 -64.5 -62t-71.5 -37t-71 -17.5t-62 -4.5q-72 0 -123.5 19t-83.5 54.5t-47 89t-15 122.5zM170 269q0 -110 45 -164t149 -54q26 0 55.5 6t58.5 19.5t56.5 34.5t48 49.5t32.5 65.5t12 84v317 q-80 -34 -160.5 -67.5t-159.5 -67.5q-34 -14 -60 -38t-43.5 -52.5t-25.5 -63t-8 -69.5z" />
<glyph unicode="b" horiz-adv-x="1001" d="M186 0v1430h76v-515q24 45 53.5 76t64 49.5t74 26.5t82.5 8q68 0 118 -22.5t86.5 -61.5t60.5 -90.5t37.5 -109.5t19 -119t5.5 -119q0 -71 -5.5 -141t-20 -133.5t-38.5 -117.5t-60 -94t-86 -61.5t-117 -21.5q-30 0 -66 6.5t-72 24.5t-72 50q-36 31 -64 83v-148h-76z M262 504q0 -107 18.5 -190.5t54 -142.5t86 -89t115.5 -30q60 0 107 29.5t79 91t48 156.5q16 96 16 224q0 36 -2 84t-11 98.5t-25 99.5t-43.5 87t-68.5 62t-100 24q-61 0 -105.5 -23t-74.5 -61.5t-49 -89t-28.5 -106t-13 -114t-3.5 -110.5z" />
<glyph unicode="c" horiz-adv-x="889" d="M126 516q0 65 5 130.5t18.5 127.5t37.5 116.5t63 94.5t94.5 63t129.5 23q66 0 117.5 -21.5t89 -61.5t60.5 -93.5t32 -113.5h-77q-8 48 -25.5 88.5t-45.5 70.5t-66 47t-85 17q-63 0 -108 -24t-76 -62t-49 -89t-26.5 -105.5t-11.5 -108t-3 -99.5q0 -42 1.5 -92.5 t9.5 -102.5t24.5 -101t46.5 -86.5t75.5 -60t111.5 -22.5q54 0 96 22.5t70.5 61t46 87.5t22.5 101h77q-10 -68 -32.5 -130.5t-60 -109t-91.5 -73t-128 -26.5t-127.5 20.5t-92 56.5t-63 86t-37.5 109.5t-18 125.5t-5 134z" />
<glyph unicode="d" horiz-adv-x="998" d="M137 553q0 58 5.5 119t19 119t37 109.5t60 90.5t86.5 61.5t118 22.5q44 0 82.5 -8t72.5 -26.5t64 -50t55 -75.5v515h74v-1430h-74v148q-30 -52 -64.5 -83.5t-71.5 -49.5t-72.5 -24.5t-65.5 -6.5q-67 0 -117 21.5t-86.5 61.5t-60.5 94t-37.5 117.5t-19 133.5t-5.5 141z M211 553q0 -128 16.5 -223.5t49.5 -157t79.5 -91t106.5 -29.5q64 0 115.5 30t86.5 89t53.5 142.5t18.5 190.5q0 52 -3.5 110.5t-13.5 114t-28.5 106t-49.5 89t-75 61.5t-104 23q-57 0 -99 -24t-70 -62t-44.5 -87t-25 -99.5t-11 -98.5t-2.5 -84z" />
<glyph unicode="e" horiz-adv-x="889" d="M126 525q0 55 4 117t17 122.5t36 116t58.5 97t86 66.5t119 25t116.5 -22t82.5 -60t55.5 -88.5t32.5 -108t16.5 -118.5t6 -119h-556v-28q0 -41 3 -92.5t10.5 -103.5t23 -101.5t43 -88.5t68.5 -62.5t101 -23.5q55 0 96 20t70 53t44 75.5t18 86.5h74q-6 -67 -29 -122.5 t-61.5 -95.5t-92 -62t-119.5 -22q-46 0 -88.5 11t-78 36t-64.5 66t-49.5 100.5t-31.5 139.5t-11 186zM203 622h475q-3 45 -7.5 91t-15.5 88t-28 78t-42.5 63.5t-60 43t-77.5 15.5q-48 0 -84.5 -17t-62.5 -45.5t-44 -67t-29 -81t-16 -86.5t-8 -82z" />
<glyph unicode="f" horiz-adv-x="557" d="M68 993v67h158v166q0 58 16 97.5t43 65t66 36.5q41 12 87 12h37v-67h-37q-65 0 -101 -34t-36 -110v-166h174v-67h-174v-993h-75v993h-158z" />
<glyph unicode="g" horiz-adv-x="1006" d="M132 545q0 55 6 116.5t21.5 120.5t41 113t63 94.5t90 65.5t120.5 25q38 0 76.5 -8t75 -25.5t67 -48.5t55.5 -76v138h73v-990q-2 -91 -18.5 -171t-56 -140t-108 -94.5t-172.5 -34.5q-102 0 -175 48q-72 48 -110 137h75q17 -33 39.5 -55.5t49 -36t57.5 -20t64 -6.5 q66 0 111 17t76.5 47.5t50 68.5t28 79.5t13 82.5t3.5 78v78q-27 -49 -61 -80t-71.5 -49t-77 -24t-80.5 -6q-76 0 -136 33t-102.5 101.5t-65 174t-22.5 247.5zM206 545q0 -97 13 -185.5t42 -156t77 -108t120 -40.5q68 0 115.5 23t79.5 61.5t50 89t27.5 107t12.5 114.5 q2 57 2 112q0 93 -13.5 175t-44.5 144t-83 96.5t-130 34.5q-55 0 -96 -22.5t-71 -60t-49.5 -86t-31 -101t-16 -103t-4.5 -94.5z" />
<glyph unicode="h" horiz-adv-x="1006" d="M186 0v1430h76v-523q31 47 68 78.5t76 50.5t78 27t72 8q59 0 107.5 -17.5t84.5 -52t55.5 -83.5t19.5 -112v-806h-75v806q0 43 -13.5 80t-38.5 64t-61 42q-35 15 -82 15q-37 0 -73 -13t-69 -34.5t-60.5 -50.5t-46.5 -62t-31 -68q-11 -36 -11 -69v-710h-76z" />
<glyph unicode="i" horiz-adv-x="460" d="M189 1277v153h82v-153h-82zM192 0v1060h77v-1060h-77z" />
<glyph unicode="j" horiz-adv-x="465" d="M77 -293q41 0 65.5 17.5t37 45t15 60.5t2.5 65v1165h77v-1164q0 -66 -11 -112.5t-34 -78t-60 -48t-92 -21.5v71zM195 1277v153h82v-153h-82z" />
<glyph unicode="k" horiz-adv-x="908" d="M186 0v1430h76v-934l492 564h90l-347 -400l363 -660h-83l-330 603l-185 -211v-392h-76z" />
<glyph unicode="l" horiz-adv-x="457" d="M189 0v1430h77v-1430h-77z" />
<glyph unicode="m" horiz-adv-x="1565" d="M186 0v1060h76v-159q26 40 57.5 72.5t69.5 55t80.5 34t92.5 11.5q107 -3 168.5 -48t80.5 -136q30 50 67 85.5t77 57.5t83.5 31.5t86.5 9.5q130 0 193 -68.5t63 -213.5v-792h-74v789q0 55 -11 96.5t-33 68.5t-56 40t-82 13q-47 0 -87.5 -14.5t-74 -39t-59.5 -56t-44.5 -66 t-27.5 -68.5t-9 -64v-699h-75v811q0 41 -11 78t-33.5 64t-59 42.5t-85.5 15.5q-40 0 -77.5 -14.5t-70.5 -38.5t-60.5 -56t-47 -68.5t-30.5 -74t-11 -73.5v-686h-76z" />
<glyph unicode="n" horiz-adv-x="1009" d="M186 0v1060h76v-152q35 55 77 88.5t83 51.5t78 23.5t67 5.5q59 0 106.5 -19.5t81.5 -55.5t52.5 -89t18.5 -118v-795h-75v795q0 43 -11 83t-34.5 68.5t-57.5 46.5t-81 18q-48 0 -89.5 -14.5t-76 -38.5t-60.5 -55.5t-44 -65.5t-26.5 -68.5t-8.5 -67.5v-701h-76z" />
<glyph unicode="o" horiz-adv-x="1001" d="M137 533q0 266 91 403.5t273 137.5q95 0 164 -34t114.5 -102.5t67.5 -170t22 -234.5q0 -148 -27.5 -253t-77 -170.5t-116.5 -95.5t-147 -30q-76 0 -142.5 30t-116 95.5t-77.5 170.5t-28 253zM211 533q0 -60 7 -119t20.5 -113t35.5 -99.5t55 -79t75.5 -52.5t96.5 -19 q57 0 100 19t76 52.5t55 79t35.5 99.5t19.5 113t6 119q0 134 -22 224.5t-61 146t-92.5 79.5t-116.5 24q-60 0 -113.5 -22.5t-91.5 -78t-61.5 -146.5t-23.5 -227z" />
<glyph unicode="p" horiz-adv-x="1004" d="M188 -370v1430h75v-148q30 52 64.5 84t71.5 49.5t72.5 24.5t65.5 7q67 0 117 -22t85.5 -61.5t60.5 -94t38.5 -118t19 -133.5t5.5 -141q0 -58 -5.5 -119t-19 -119t-37 -109.5t-60.5 -90.5t-87 -61q-48 -23 -117 -23q-44 0 -83 8t-73 26.5t-63.5 50t-54.5 75.5v-515h-75z M263 556q0 -53 3 -110.5t13 -113t28.5 -106.5t49.5 -89t75 -62q45 -23 105 -23q58 0 99 24t69 62.5t44.5 87t25.5 99t11 98.5t2 84q0 129 -16.5 224t-49 156.5t-79 91t-106.5 29.5q-66 0 -116.5 -30t-86 -89t-53.5 -143t-18 -190z" />
<glyph unicode="q" horiz-adv-x="1004" d="M141 507q0 71 5.5 141t20 133.5t37.5 118t60 94t87 61.5t118 22q30 0 65.5 -7t72 -24.5t70.5 -50.5q35 -31 66 -83v148h74v-1430h-74v515q-25 -45 -55 -76t-64.5 -49.5t-73.5 -26.5q-38 -8 -81 -8q-69 0 -119.5 22.5t-86.5 61.5t-60 90.5t-37.5 109.5t-19 119t-5.5 119z M216 507q0 -36 3 -84t11 -98.5t24.5 -99t44 -87t69.5 -62.5q43 -24 101 -24q60 0 103.5 23.5t74 61.5t49.5 89t28.5 106.5t14 113t4.5 110.5q0 106 -19.5 190t-54.5 143t-86 89t-114 30q-61 0 -108 -29.5t-79.5 -91t-48.5 -155.5q-17 -96 -17 -225z" />
<glyph unicode="r" horiz-adv-x="664" d="M189 0v1060h77v-145q30 47 69.5 77t85 47t92 24.5t91.5 9.5v-72q-82 0 -145.5 -26.5t-106 -71.5t-64.5 -105q-22 -61 -22 -127v-671h-77z" />
<glyph unicode="s" horiz-adv-x="889" d="M99 249h74q8 -101 73.5 -149.5t180.5 -48.5q58 0 106 13t81 40.5t51.5 68.5t18.5 101q0 33 -13 64t-44.5 61t-85 60t-133.5 63q-59 25 -109 51.5t-87 61.5t-57.5 79.5t-20.5 104.5q0 63 20.5 110.5t59 79.5t90.5 48.5t114 16.5q127 0 204 -58t97 -179h-75q-8 48 -28.5 81 t-51 52t-67.5 28t-79 9q-44 0 -82.5 -10.5t-66.5 -33.5t-44.5 -58.5t-16.5 -85.5q0 -46 19.5 -81t52 -62t78.5 -49q45 -24 97 -46q59 -26 113.5 -53.5t96.5 -63t68 -81.5t26 -109q0 -71 -22 -126t-64.5 -91t-104 -54.5t-141.5 -18.5q-65 0 -122.5 13.5t-101.5 45t-71 82.5 q-28 50 -33 124z" />
<glyph unicode="t" horiz-adv-x="549" d="M68 992v68h153v289h75v-289h182v-68h-182v-833q0 -41 16.5 -66t57.5 -25h103v-68h-103q-36 0 -64 8t-46.5 27.5t-28.5 49.5t-10 74v833h-153z" />
<glyph unicode="u" horiz-adv-x="990" d="M186 238v822h76v-822q0 -41 8.5 -76t29.5 -59.5t53.5 -38t79.5 -13.5q48 0 88.5 15t74 39.5t59 57t42.5 66.5t26 68q9 35 9 62v701h74v-1060h-74v148q-36 -55 -76.5 -88t-81 -49t-77.5 -21.5t-64 -5.5q-119 0 -183 64t-64 190z" />
<glyph unicode="v" horiz-adv-x="894" d="M79 1060h80l288 -961l290 961h78l-326 -1060h-86z" />
<glyph unicode="w" horiz-adv-x="1338" d="M93 1060h78l230 -941l221 941h88l227 -942l230 942h78l-265 -1060h-85l-229 945l-222 -945h-88z" />
<glyph unicode="x" horiz-adv-x="886" d="M27 0l368 536l-359 524h87l315 -460l316 460h84l-357 -524l366 -536h-85l-324 474l-323 -474h-88z" />
<glyph unicode="y" horiz-adv-x="889" d="M75 1060h78l291 -990l292 990h78l-381 -1260q-11 -38 -35.5 -69.5t-59 -55t-77.5 -36t-92 -12.5q-14 0 -31 3t-41 8v67q19 -2 40 -5t34 -3q50 0 84.5 13t56.5 32.5t34.5 40.5t17.5 39l42 133z" />
<glyph unicode="z" horiz-adv-x="782" d="M85 0v55l522 937h-496v68h582v-54l-518 -938h521v-68h-611z" />
<glyph unicode="{" horiz-adv-x="549" d="M73 638q28 13 56.5 31.5t50 43t35.5 56t14 69.5v380q0 104 52.5 163t162.5 66l7 -25q-30 -16 -55.5 -34.5t-44 -42t-29 -54.5t-10.5 -73v-380q0 -69 -30 -123.5t-98 -89.5q67 -36 97.5 -89.5t30.5 -123.5v-379q0 -43 10.5 -73.5t29 -54t44 -41t55.5 -34.5l-7 -25 q-110 7 -162.5 65.5t-52.5 162.5v379q0 39 -14 70.5t-35.5 56t-50 43t-55.5 29.5z" />
<glyph unicode="|" horiz-adv-x="501" d="M210 0v1430h83v-1430h-83z" />
<glyph unicode="}" horiz-adv-x="549" d="M99 -170q30 17 56 34.5t43.5 41t28.5 55t11 72.5v379q0 69 31 124q30 53 97 89q-67 35 -97.5 90t-30.5 123v380q0 42 -11 73t-28.5 54.5t-43.5 42t-56 34.5l8 25q109 -7 161.5 -66.5t52.5 -162.5v-380q0 -38 13.5 -69.5t35.5 -56t50.5 -42.5t56.5 -32v-27 q-29 -11 -57 -29.5t-50 -43t-35.5 -56t-13.5 -70.5v-379q0 -104 -52.5 -163t-161.5 -65z" />
<glyph unicode="~" horiz-adv-x="1001" d="M121 444q16 33 36.5 63t46.5 52t55 35t62 13q21 0 46 -7.5t49.5 -18t48 -22t39.5 -19.5q17 -10 40 -23t48.5 -24t50 -19t45.5 -8q24 0 47.5 11.5t44.5 30.5t40.5 44t35.5 51l29 -50q-16 -32 -38 -62.5t-47 -53t-54 -35.5q-28 -13 -61 -13q-27 0 -54.5 8.5t-53.5 19 t-51.5 25t-48.5 27.5q-14 8 -33 17.5t-41 19t-44 16.5t-41 7q-25 0 -49 -11t-45 -30t-40.5 -44t-35.5 -51z" />
<glyph unicode="&#xa2;" horiz-adv-x="1001" d="M162 720.5q0 57.5 4 118t16.5 118t33 109.5t53 93t78 67t106.5 33v144h81v-148q55 -8 99 -35t74.5 -68t49 -93t27.5 -108h-80q-4 41 -17 79.5t-33.5 68.5t-50.5 50.5t-69 28.5v-931q44 9 75.5 37t52 69.5t30.5 92.5q9 50 12 105h77q-3 -74 -15 -139t-39.5 -116.5 t-74.5 -85.5q-46 -32 -118 -40v-143h-81v142q-68 5 -116.5 31.5t-81.5 69t-51.5 96t-27.5 112.5t-11.5 122t-2.5 120.5zM242 723q0 -43 1 -94t6.5 -103t17.5 -100t36 -86.5t60.5 -63.5t89.5 -31v933q-47 -8 -81.5 -34t-58 -64.5t-37 -85t-21.5 -94.5t-10.5 -94.5t-2.5 -82.5 z" />
<glyph unicode="&#xa3;" horiz-adv-x="1001" d="M47 659v74h213q-2 5 -7.5 17t-8.5 17q-17 34 -34.5 70.5t-31.5 75t-22 78t-8 82.5q0 87 31.5 155t83.5 114.5t123.5 70t149.5 23.5q76 0 140.5 -23.5t112.5 -66t76 -101.5q28 -61 31 -135v-52h-84v54q0 55 -22.5 101.5t-60 79t-87.5 50t-106 17.5q-63 0 -118.5 -19 t-97 -56t-66 -91t-24.5 -124q0 -34 9.5 -71t22.5 -73.5t29 -71.5t32 -64q9 -16 15 -29t14 -28h354v-74h-322q16 -44 25.5 -88.5t9.5 -93.5q0 -40 -6 -87.5t-20 -95t-36 -93.5q-23 -48 -56 -86q47 11 94 11q32 0 63.5 -4t62.5 -10q19 -5 40 -11q23 -6 42 -13q38 -11 78 -22 t77 -11t69.5 11t68.5 30l29 -64q-41 -28 -83 -39.5t-73 -11.5q-51 0 -97.5 10t-90.5 24q-21 6 -41 11q-21 4 -41 10q-29 5 -57 9t-57 4q-58 0 -116 -17.5t-120 -53.5l-34 52q104 91 162.5 201.5t58.5 245.5q0 49 -12 93t-31 89h-246z" />
<glyph unicode="&#xa5;" horiz-adv-x="1135" d="M66 1430h87l414 -781l417 781h87l-433 -804h280v-77h-311v-146h311v-77h-311v-326h-84v326h-320v77h320v146h-320v77h286z" />
<glyph unicode="&#xa9;" horiz-adv-x="1448" d="M82 619q0 87 23.5 167t65 150t100 127.5t129.5 98.5t153.5 63t169.5 22q88 0 170 -22t153.5 -63t130.5 -98.5t100 -127.5t64.5 -149.5t23.5 -167.5q0 -86 -23.5 -166t-64.5 -149.5t-100 -126t-130.5 -98t-152.5 -63.5q-83 -23 -171 -23q-87 0 -169.5 22.5t-153.5 64 t-129.5 98t-100 126t-65 149.5t-23.5 166zM167 619q0 -76 19.5 -144.5t56 -129.5t87.5 -111t112.5 -85t133 -55t147.5 -20q77 0 149 20t134.5 55t113 85t86 111t55.5 130q20 68 20 144t-20 146.5t-55.5 130.5t-86 110t-113 85t-133.5 55q-73 20 -150 20q-76 0 -147.5 -20 t-133 -55t-112.5 -85t-87.5 -110t-56 -130.5t-19.5 -146.5zM416 622q0 77 21.5 144t61 115t96.5 75.5t128 27.5q52 0 96 -18t77 -49.5t56 -76.5t34 -97h-80q-10 38 -28 68t-41 52t-52 33t-62 11q-54 0 -96.5 -22.5t-71.5 -61.5t-42.5 -91t-13.5 -110t14 -110t43.5 -93 t72 -65t100.5 -24q35 0 64 13t51 35t37.5 52t24.5 67h78q-11 -57 -36 -102.5t-59 -76t-75 -48t-85 -17.5q-71 0 -128.5 28.5t-99 77.5t-63.5 116.5t-22 146.5z" />
<glyph unicode="&#xab;" horiz-adv-x="1001" d="M186 543v104l272 261v-118l-203 -198l203 -202v-119zM545 543v104l272 261v-118l-209 -198l209 -204v-117z" />
<glyph unicode="&#xad;" horiz-adv-x="695" d="M105 443v80h485v-80h-485z" />
<glyph unicode="&#xae;" horiz-adv-x="1448" d="M82 619q0 87 23.5 167t65 150t100 127.5t129.5 98.5t153.5 63t169.5 22q88 0 170 -22t153.5 -63t130.5 -98.5t100 -127.5t64.5 -149.5t23.5 -167.5q0 -86 -23.5 -166t-64.5 -149.5t-100 -126t-130.5 -98t-152.5 -63.5q-83 -23 -171 -23q-87 0 -169.5 22.5t-153.5 64 t-129.5 98t-100 126t-65 149.5t-23.5 166zM167 619q0 -76 19.5 -144.5t56 -129.5t87.5 -111t112.5 -85t133 -55t147.5 -20q77 0 149 20t134.5 55t113 85t86 111t55.5 130q20 68 20 144t-20 146.5t-55.5 130.5t-86 110t-113 85t-133.5 55q-73 20 -150 20q-76 0 -147.5 -20 t-133 -55t-112.5 -85t-87.5 -110t-56 -130.5t-19.5 -146.5zM499 271v699h264q47 0 90.5 -7.5t76.5 -28t53 -57t20 -95.5q0 -52 -15 -86t-42.5 -57t-63.5 -34q-35 -10 -74 -16l189 -318h-94l-182 318h-143v-318h-79zM578 660h148q34 0 70 2t64 14t46.5 38t18.5 71 q0 36 -13 57t-35 33.5t-51 16.5t-63 4h-185v-236z" />
<glyph unicode="&#xbb;" horiz-adv-x="1001" d="M184 271v117l209 204l-209 198v118l271 -261v-104zM543 271v119l204 202l-204 198v118l271 -261v-104z" />
<glyph unicode="&#xbc;" horiz-adv-x="1430" d="M121 1167v62q76 3 121.5 36.5t58.5 104.5h65v-764h-76v605q-17 -15 -37.5 -24t-43.5 -13t-45 -5.5t-43 -1.5zM296 0l838 1370h94l-836 -1370h-96zM858 184v54l337 525h82v-511h88v-68h-88v-184h-77v184h-342zM959 252h241v381z" />
<glyph unicode="&#xbd;" horiz-adv-x="1430" d="M121 1167v62q76 3 121.5 36.5t58.5 104.5h65v-764h-76v605q-17 -15 -37.5 -24t-43.5 -13t-45 -5.5t-43 -1.5zM203 0l838 1370h93l-834 -1370h-97zM867 0q4 38 11 75t21.5 70.5t37 64.5t55.5 57l148 119q22 20 42.5 39t34 40t22 45t8.5 52q0 30 -7.5 54.5t-25 42.5 t-44.5 28t-67 10q-74 0 -111 -45q-37 -46 -37 -126h-78q0 58 17 103t46.5 76.5t71.5 46.5t91 15q55 0 96.5 -15t69.5 -42.5t42.5 -65.5t14.5 -82q0 -37 -11 -70.5t-30 -64t-45 -56.5q-26 -29 -55 -50l-147 -113q-37 -29 -55.5 -63.5t-26.5 -74.5h381v-70h-470z" />
<glyph unicode="&#xbe;" horiz-adv-x="1430" d="M58 808h75q0 -28 9 -53.5t28 -46t49 -33t70 -12.5q36 0 65.5 10.5t50 29.5t32 47t11.5 64q0 44 -11.5 72.5t-37 46.5t-64.5 26t-91 11v67q35 -1 67.5 4.5t57 23t39 48t14.5 76.5q0 30 -9.5 51.5t-27.5 35t-42.5 20t-53.5 6.5q-37 0 -63 -10t-44 -27.5t-27.5 -42.5 t-12.5 -52h-71q3 44 17.5 81t41 64.5t66.5 42.5t93 15q47 0 86 -13t67 -37t44 -58q15 -35 15 -76q0 -30 -4 -56t-15 -49.5t-28 -41.5q-16 -17 -43 -34q30 -11 52 -30.5t35.5 -44.5t20.5 -54.5t7 -61.5q0 -44 -13.5 -84t-42.5 -71.5t-73.5 -50t-107.5 -18.5q-57 0 -100.5 16 t-71.5 44.5t-42.5 68.5t-16.5 86zM296 0l838 1370h94l-836 -1370h-96zM858 184v54l337 525h82v-511h88v-68h-88v-184h-77v184h-342zM959 252h241v381z" />
<glyph unicode="&#xd7;" horiz-adv-x="1049" d="M138 114l331 368l-327 374l58 59l325 -367l324 362l61 -55l-329 -373l329 -366q-17 -15 -32 -31.5t-34 -32.5l-319 366l-322 -360q-15 15 -31 28t-34 28z" />
<glyph unicode="&#xf7;" horiz-adv-x="1001" d="M111 443v80h779v-80h-779zM430 148q0 14 5.5 26t14.5 22t20.5 15t25.5 5t26 -5t21.5 -15t15 -22t5.5 -26t-5.5 -26t-15 -21t-21.5 -14t-26 -5q-27 0 -46.5 19.5t-19.5 46.5zM430 815q0 14 5.5 26.5t14.5 22t20.5 15t25.5 5.5t26 -5.5t21.5 -15t15 -22t5.5 -26.5 t-5.5 -25.5t-15 -21t-21.5 -14.5t-26 -5q-27 0 -46.5 19.5t-19.5 46.5z" />
<glyph unicode="&#xe01;" horiz-adv-x="1057" d="M107 1023q38 54 83.5 92.5t98.5 63t111.5 36t121.5 11.5q70 0 137 -17.5t119 -52.5t84 -88q31 -54 31 -123v-945h-74v945q0 41 -20.5 81t-59 68.5t-93 46.5t-124.5 18q-49 0 -96.5 -9.5t-91.5 -27.5t-79.5 -42.5t-59.5 -56.5q21 -24 33 -63t12 -86v-874h-76v871 q0 47 -15 85.5t-42 66.5z" />
<glyph unicode="&#xe02;" horiz-adv-x="911" d="M55 1145v66h187l240 -1101l239 1101h76l-265 -1211h-99l-252 1145h-126z" />
<glyph unicode="&#xe03;" horiz-adv-x="948" d="M42 1211h76q5 -22 19 -39.5t30.5 -30.5t35.5 -20q22 -7 41 -7q52 0 94.5 26.5t67.5 70.5h69v-142q0 -63 -36 -127.5t-105 -137.5q-22 -24 -38.5 -45.5t-28.5 -47.5t-18.5 -61t-6.5 -86v-274q0 -58 21 -102t54.5 -73.5t75 -44.5t84.5 -15q41 0 83.5 15t75.5 44.5t54.5 74 t21.5 101.5v921h72v-921q0 -74 -25 -130t-67.5 -94.5t-97 -59t-117.5 -20.5q-62 0 -118 20.5t-99.5 59t-67.5 95.5q-25 55 -25 129v274q0 50 5.5 88t19.5 70.5t35.5 63.5t56.5 66q27 28 48 55t37.5 54.5t25 55t8.5 52.5v38q-39 -36 -80 -48t-79 -12q-25 0 -55 8t-59 28.5 t-52 52t-36 75.5z" />
<glyph unicode="&#xe04;" horiz-adv-x="1065" d="M164 0v923q0 74 27.5 130.5t77 94.5t116.5 58t148 20q79 0 146.5 -20t116.5 -58t77 -94.5t28 -130.5v-923h-71v923q0 50 -20 93.5t-57.5 75t-93 49.5t-126.5 18q-69 0 -123 -16.5t-92.5 -46.5t-58 -74t-19.5 -99v-400q30 47 70.5 77t85.5 48t92 25q46 7 90 7v-73 q-77 3 -139 -21t-106.5 -69.5t-68.5 -111t-24 -146.5v-259h-76z" />
<glyph unicode="&#xe05;" horiz-adv-x="1085" d="M164 0v937q0 58 16.5 104.5t47 83.5t73.5 61q41 25 96 39l146 -170q32 42 68 86.5t69 86.5q57 -11 102 -36t76 -62.5t47 -86t16 -106.5v-937h-74v937q0 38 -8.5 72.5t-26 62t-43.5 48t-62 31.5q-19 -25 -40.5 -49.5t-42.5 -50.5t-41.5 -52t-39.5 -48l-169 200 q-38 -17 -63.5 -39.5t-41.5 -49t-22.5 -58t-6.5 -67.5v-414q30 47 70.5 77t85.5 48t92 25q46 7 90 7v-73q-77 3 -139 -21t-106.5 -69.5t-68.5 -111t-24 -146.5v-259h-76z" />
<glyph unicode="&#xe06;" horiz-adv-x="1038" d="M60 1211h74q6 -22 19.5 -39.5t30 -30.5t35.5 -20t39 -7q24 0 49 7t46 20t39.5 30.5t30.5 39.5h69v-142q0 -63 -35 -127.5t-106 -137.5q-22 -22 -39 -43t-29 -48t-18 -62t-6 -87v-164q0 -33 11 -71.5t31 -76t48.5 -72.5t65 -62.5t79 -43t90.5 -15.5q52 0 92.5 18.5 t67.5 48.5t41.5 70.5t14.5 85.5v929h74v-926q0 -67 -20 -121t-57.5 -93t-91 -60.5t-121.5 -21.5q-40 0 -82.5 9t-84.5 31.5t-83 59.5t-78 96v-185h-72v564q0 50 5.5 88t19 71t35.5 63.5t57 65.5q28 28 49 55t37 54.5t24 55t8 52.5v34q-22 -17 -44 -28.5t-42.5 -17.5 t-39.5 -8t-35 -2q-25 0 -54 8t-57.5 28.5t-52 52t-34.5 75.5z" />
<glyph unicode="&#xe07;" horiz-adv-x="854" d="M116 669h80l177 -525q13 -43 43.5 -69t76.5 -26q30 0 53.5 11t38.5 29t23 42.5t8 49.5v963h-168v67h242v-1030q0 -45 -13.5 -82t-40 -64t-63 -40.5t-80.5 -13.5q-38 0 -68 10t-54 28.5t-41.5 44t-26.5 55.5z" />
<glyph unicode="&#xe08;" horiz-adv-x="894" d="M100 929q11 63 39 117.5t72 96t103 63.5q61 23 135 23q36 0 74.5 -7.5t75.5 -24t69.5 -42.5t59 -63.5t40.5 -86.5t14 -112q0 -66 -13 -141t-35 -156t-49 -164t-56 -160t-56.5 -147t-46.5 -125h-85l-203 608h-135v72h192l190 -581q22 56 48 121.5t50.5 136t47 142.5 t40 141.5t27.5 131.5t10 114q0 57 -17 106t-50 86t-82 59t-112 22q-44 0 -88 -13t-81 -41t-63 -71t-37 -105h-78z" />
<glyph unicode="&#xe09;" horiz-adv-x="1031" d="M149 986q15 61 49.5 106t82.5 75t107 46t122 16q71 0 136.5 -16t114.5 -50.5t78.5 -89.5t29.5 -133v-940h-70v184q-36 -61 -77 -99t-84 -59t-86.5 -29t-82.5 -8q-69 0 -124.5 21.5t-96 60.5t-62.5 93.5t-22 121.5v394h76v-398q0 -46 15.5 -87.5t46 -71.5t72 -46.5 t95.5 -16.5q71 0 130.5 30.5t102.5 81.5t67 117.5t24 135.5v515q0 57 -22 99.5t-60 69.5t-89.5 40t-111.5 13q-44 0 -88.5 -11t-83.5 -33t-68 -55t-43 -77h-78z" />
<glyph unicode="&#xe0a;" horiz-adv-x="972" d="M105 1126v71q55 14 93 19t54 5q81 0 127 -43.5t46 -122.5q0 -25 -5.5 -49.5t-18 -50.5t-31.5 -56t-49 -63q-18 -22 -30 -42t-20 -46.5t-11.5 -63.5t-3.5 -95v-296q0 -66 22 -111t56.5 -74t76.5 -41q41 -12 82 -12t85 11.5t78 39.5t56 74q22 45 22 113v288q0 75 -15 121 t-43 70.5t-67 34.5t-88 12v55q63 8 108.5 38.5t75 76t43.5 102.5t14 120h72q0 -53 -7.5 -105t-26.5 -99t-49 -86t-77 -63q47 -14 74 -45.5t41 -71.5t16.5 -81t2.5 -76v-291q0 -74 -23 -130t-65 -96t-100 -60.5t-127 -20.5q-68 0 -125.5 20.5t-99 60.5t-64.5 97 q-23 55 -23 129v296q0 52 2.5 92t9.5 71.5t22 61.5t43 61q20 25 37 47.5t29 44t18.5 42.5t6.5 46q0 27 -7.5 45t-19.5 30.5t-30 17t-40 4.5q-29 0 -62 -5q-34 -4 -85 -21z" />
<glyph unicode="&#xe0b;" horiz-adv-x="972" d="M32 1211h75q5 -22 18 -39.5t30.5 -30.5t36.5 -20t38 -7q25 0 49 7t45 20t40.5 30.5t30.5 39.5h68v-142q0 -35 -8 -67t-26 -63.5t-44 -64.5t-62 -70q-22 -22 -35.5 -44t-20.5 -48.5t-9 -62t-2 -87.5v-269q0 -66 22 -111t56.5 -74t76.5 -41q41 -12 82 -12t85 11.5t78 39.5 t56 74q22 45 22 113v288q0 75 -15 120.5t-43 70.5t-67 35t-88 12v55q64 8 110 38.5t74.5 75.5t42.5 102.5t14 120.5h72q0 -53 -8 -105t-26.5 -99t-48.5 -86t-77 -63q44 -17 70 -48.5t41 -71t19 -80.5q4 -42 4 -74v-291q0 -74 -23 -130t-65 -96t-100 -60.5t-127 -20.5 q-68 0 -125.5 20.5t-99 60.5t-64.5 97q-23 55 -23 129v269q0 49 2.5 89.5t12.5 74.5t27.5 65t49.5 64q26 27 47.5 53t37.5 53t25 53.5t9 54.5v34q-22 -17 -44 -28.5t-42.5 -17.5t-39.5 -8t-36 -2q-24 0 -53.5 8t-58 28.5t-51.5 52t-35 75.5z" />
<glyph unicode="&#xe0c;" horiz-adv-x="1615" d="M107 1022q34 55 78.5 94t96.5 63t110.5 35.5t121.5 11.5q70 0 135.5 -17.5t117 -52.5t82.5 -88q31 -54 31 -123v-531q0 -36 9.5 -76.5t27 -79.5t43.5 -75t60.5 -63.5t75.5 -43.5t88 -16q52 0 89 18t60 48t33.5 71t10.5 85v929h75v-925q0 -67 -16.5 -121.5t-49 -93.5 t-83.5 -60.5t-119 -21.5q-36 0 -75 8t-78 30t-77.5 58t-73.5 90v-175h-76v945q0 41 -19 81t-56 68.5t-91 46.5t-124 18q-50 0 -97 -8t-89 -26t-77 -42.5t-58 -59.5q22 -24 34.5 -64t12.5 -85v-807h157v-67h-233v871q0 47 -15 85.5t-42 65.5z" />
<glyph unicode="&#xe0d;" horiz-adv-x="1630" d="M107 1023q34 52 78.5 91.5t96 64t110.5 36t122 11.5q70 0 136.5 -17.5t117.5 -52.5t83 -88q31 -54 31 -123v-659q0 -61 20.5 -105t51 -71.5t66 -39.5t65.5 -12q49 0 91 15.5t75.5 43.5t59.5 63.5t44 75.5t27 81t9 77v797h75v-1170q0 -79 -16.5 -149t-56 -123.5 t-105.5 -85t-163 -31.5q-50 0 -97 12.5t-89.5 37t-75.5 63t-52 90.5h82q17 -37 43.5 -62.5t58 -40.5t65 -22t65.5 -7q53 0 94 14t70 35.5t49 53.5t31.5 66.5t16.5 72.5t5 73v129q-35 -55 -72.5 -89t-76.5 -54.5t-79 -27.5t-78 -7q-48 0 -96.5 17t-89.5 53.5t-66.5 92.5 t-25.5 134v659q0 41 -20 81t-57 68.5t-91.5 46.5t-124.5 18q-50 0 -97 -9.5t-89 -26t-77 -41.5q-35 -24 -58 -57q22 -25 34.5 -64.5t12.5 -86.5v-807h157v-67h-233v871q0 47 -15 85.5t-42 66.5z" />
<glyph unicode="&#xe0e;" horiz-adv-x="1085" d="M33 0v66h142v808q0 47 -15 85t-42 69q35 52 82.5 89.5t101.5 63t113.5 37t122.5 11.5q47 0 94.5 -7.5t89.5 -24t78.5 -40t63 -54t42 -69.5t15.5 -86v-1321h-61q-65 62 -132.5 88.5t-127.5 26.5q-36 0 -70 -8t-71 -23t-75 -40q-39 -24 -80 -57v87q74 58 146 85 q71 26 150 26q62 0 125.5 -19.5t121.5 -61.5v1217q0 41 -22 81t-62 68.5t-97.5 46.5t-127.5 18q-50 0 -99.5 -9t-92 -26t-79.5 -43t-61 -59q21 -25 33 -63.5t12 -84.5v-877h-218z" />
<glyph unicode="&#xe0f;" horiz-adv-x="1085" d="M33 0v64h142v810q0 47 -15 85t-42 69q34 54 81.5 92t101.5 62t114 35t123 11q47 0 94.5 -8t89.5 -23.5t78.5 -39t63 -55t42 -69.5t15.5 -85v-1321h-73q-5 28 -18 49t-31 37t-41.5 25t-50.5 9t-50.5 -9t-41.5 -25t-30 -38q-12 -20 -16 -48h-74q-6 28 -19 49t-31 37t-41 25 t-51 9q-27 0 -50.5 -9t-41 -25t-29.5 -38q-13 -20 -17 -48h-73q6 40 24 74.5t46 59.5t64 39.5t77 14.5q53 0 100 -24t77 -66q14 19 34 36t42.5 28.5t48 18.5t52.5 7q38 0 74 -13t66 -38v1184q0 41 -22 80t-62 68.5t-97.5 47.5t-127.5 18q-49 0 -97.5 -9t-93 -26t-81.5 -42 t-62 -59q22 -25 34.5 -64.5t12.5 -84.5v-877h-218z" />
<glyph unicode="&#xe10;" horiz-adv-x="894" d="M66 -370q5 36 22 67.5t42 55.5t55.5 37.5t66.5 13.5q52 0 93 -22q41 -23 67 -59q25 36 65.5 58.5t95.5 22.5q31 0 61 -10q29 -10 52 -32v94h73v-226h-69q-5 22 -16 41t-26 34.5t-34 23.5t-41 8q-25 0 -45.5 -8t-37 -23.5t-27.5 -34.5t-15 -41h-67q-6 22 -17 41t-28 34.5 t-38 23.5t-46 8q-22 0 -39.5 -8t-33 -23.5t-26.5 -34.5t-13 -41h-74zM100 929q11 63 39 117.5t72 96t103 63.5q61 23 135 23q48 0 99.5 -14.5t98.5 -44.5q38 12 67 37t42 60h88q-8 -20 -21 -42t-30.5 -42.5t-38.5 -37.5q-21 -19 -46 -30q33 -38 53.5 -93t20.5 -129 q0 -66 -13 -141t-35 -156t-49 -164t-56 -160t-56.5 -147t-46.5 -125h-85l-203 608h-135v72h192l190 -581q22 56 48 121.5t50.5 136t47 142.5t40 141.5t27.5 131.5t10 114q0 57 -17 106t-50 86t-82 59t-112 22q-44 0 -88 -13t-81 -41t-63 -71t-37 -105h-78z" />
<glyph unicode="&#xe11;" horiz-adv-x="1111" d="M74 1212h75q6 -21 19 -39.5t29.5 -31.5t35.5 -20t38 -7q25 0 49.5 7t46 20t40 30.5t30.5 40.5h70v-201q55 56 97.5 96.5t79.5 68t70.5 40.5t67.5 13q26 0 48.5 -7.5t39.5 -27t27 -51t10 -77.5v-1066h-76v1063q0 18 -1 36t-6.5 31.5t-16.5 22.5t-28 9q-29 0 -68 -27.5 t-82.5 -68.5t-91.5 -91q-47 -52 -91 -98q-38 -44 -71 -86t-57.5 -85t-39 -89.5t-14.5 -100.5v-516h-72v516q0 53 10 94.5t25 76.5t37 68t47 68q13 20 27.5 38.5t27 37.5t20 43.5t7.5 57.5v103q-22 -17 -44 -28.5t-42.5 -17.5t-39.5 -8t-36 -2q-24 0 -53 8.5t-57.5 28.5 t-52 51.5t-34.5 76.5z" />
<glyph unicode="&#xe12;" horiz-adv-x="1689" d="M164 0v937q0 58 16.5 104.5t47 83.5t73.5 61q41 25 96 39l161 -171q37 42 76.5 87t75.5 87q57 -11 102.5 -36t77 -62.5t47 -86t15.5 -106.5v-529q0 -37 9 -77.5t27 -78.5t44 -73t59.5 -62t75 -42t91.5 -15q52 0 87.5 18t59 48t34 71t10.5 85v929h76v-925 q0 -67 -16.5 -121.5t-50 -93.5t-83.5 -61q-49 -21 -117 -21q-39 0 -78.5 7t-78.5 27.5t-77 54.5t-72 89v-167h-75v937q0 38 -8.5 72.5t-25.5 62t-43.5 48t-62.5 31.5q-22 -25 -44 -49.5t-45 -50.5t-46.5 -51t-42.5 -49l-184 200q-38 -17 -64 -38.5t-42 -49t-22.5 -59 t-6.5 -67.5v-795l316 472h-156v70h252v-57l-422 -627h-66z" />
<glyph unicode="&#xe13;" horiz-adv-x="1617" d="M107 1022q34 55 78.5 94t96.5 63t110.5 35.5t121.5 11.5q70 0 135.5 -17.5t117 -52.5t82.5 -88q31 -54 31 -123v-663q0 -45 10.5 -85.5t34 -70.5t59.5 -48q35 -18 87 -18q50 0 92.5 15t76.5 41t60 62t44 75t27 80.5t9 80.5v797h75v-1211h-75v167q-35 -55 -73 -89 t-78 -54.5t-79.5 -27.5t-78.5 -7q-68 0 -117.5 21.5t-83 60.5t-50 93.5t-16.5 121.5v659q0 41 -19 81t-56 68.5t-91 46.5t-124 18q-50 0 -97 -8t-89 -26t-77 -42.5t-58 -59.5q22 -24 34.5 -64t12.5 -85v-807h157v-67h-233v871q0 47 -15 85.5t-42 65.5z" />
<glyph unicode="&#xe14;" horiz-adv-x="1100" d="M164 0v904q0 74 29 133t79.5 101.5t120.5 65t155 22.5t155.5 -22.5t122 -65t81 -101.5t29.5 -133v-904h-76v907q0 56 -23 102t-65 79t-99 50q-57 18 -125 18q-67 0 -124 -17.5t-98 -50t-63.5 -78.5t-22.5 -103v-765l316 472h-156v70h252v-57l-422 -627h-66z" />
<glyph unicode="&#xe15;" horiz-adv-x="1116" d="M164 0v937q0 58 16.5 104.5t47 83.5t73.5 61q41 25 96 39l161 -171q37 42 76.5 87t75.5 87q57 -11 102.5 -36t77 -62.5t47 -86t15.5 -106.5v-937h-75v937q0 38 -8.5 72.5t-25.5 62t-43.5 48t-62.5 31.5q-22 -25 -44 -49.5t-45 -50.5t-46.5 -51t-42.5 -49l-184 200 q-38 -17 -64 -38.5t-42 -49t-22.5 -59t-6.5 -67.5v-795l316 472h-156v70h252v-57l-422 -627h-66z" />
<glyph unicode="&#xe16;" horiz-adv-x="1057" d="M107 1022q37 55 84 94t100.5 63t112.5 35.5t118 11.5q70 0 137 -17.5t119 -52.5t84 -88q31 -54 31 -123v-945h-74v945q0 41 -20.5 81t-59 68.5t-93 46.5t-124.5 18q-47 0 -95.5 -8t-91 -24.5t-79.5 -42.5t-63 -59q22 -25 34.5 -64.5t12.5 -86.5v-806h157v-68h-233v871 q0 47 -15 85.5t-42 65.5z" />
<glyph unicode="&#xe17;" horiz-adv-x="1057" d="M164 0v1211h76v-208q37 61 81.5 103.5t90.5 68t91.5 37t85.5 11.5q69 0 124.5 -19.5t95.5 -56.5t62 -91.5t22 -121.5v-934h-74v937q0 45 -16.5 84t-46 68.5t-71.5 47t-96 17.5q-46 0 -89.5 -16.5t-82.5 -44t-72 -63t-56 -77t-36 -84t-13 -83.5v-786h-76z" />
<glyph unicode="&#xe18;" horiz-adv-x="1009" d="M159 986q0 55 24.5 100.5t68.5 77.5t105 50q59 18 133 18q69 0 126 -18.5t99.5 -51.5t70.5 -81q31 -48 44 -106h-76q-10 44 -32.5 78.5t-57 60.5t-78 39.5t-96.5 13.5q-60 0 -106.5 -13.5t-80.5 -38t-52 -57.5t-18 -72q0 -30 12.5 -54.5t31.5 -45t43.5 -38.5t51.5 -32.5 t53.5 -26t48.5 -22.5q79 -34 147.5 -67t118 -72t77.5 -86q28 -49 28 -112v-153q0 -73 -29.5 -127t-77.5 -91t-108 -55q-63 -18 -126 -18t-124.5 18t-109 55.5t-77 94.5t-29.5 134v264h76v-264q0 -58 21 -102t57.5 -72.5t85 -43.5t100.5 -15q54 0 102.5 15t85.5 43.5t59 70 t22 93.5v156q0 36 -15 66t-40 54.5t-58 45t-67 37.5t-67 31.5t-62 25.5q-28 13 -62.5 28.5t-68 34.5t-65 42.5t-55.5 51.5t-39 61.5t-15 74.5z" />
<glyph unicode="&#xe19;" horiz-adv-x="1057" d="M164 277v934h76v-937q0 -45 15.5 -84t46 -68t72 -46t95.5 -17q46 0 89 16.5t82.5 44.5t72 65t56 77.5t37 83t13.5 81.5v784h74v-1211h-74v210q-38 -62 -82.5 -104.5t-90.5 -68.5t-92 -37t-85 -11q-69 0 -124.5 20t-96 57.5t-62.5 91t-22 119.5z" />
<glyph unicode="&#xe1a;" horiz-adv-x="1057" d="M164 293v918h76v-918q0 -52 22.5 -94.5t62 -74t92.5 -48.5t113 -17t113 17t91.5 47t61.5 74t23 96v918h74v-918q0 -71 -30 -127t-80.5 -96t-116.5 -60.5t-136 -20.5q-71 0 -137.5 20.5t-117 60.5t-81 96t-30.5 127z" />
<glyph unicode="&#xe1b;" horiz-adv-x="1057" d="M164 293v918h76v-918q0 -52 22.5 -94.5t62 -74t92.5 -48.5t113 -17t113 17t91.5 47t61.5 74t23 96v1367h74v-1367q0 -71 -30 -127t-80.5 -96t-116.5 -60.5t-136 -20.5q-71 0 -137.5 20.5t-117 60.5t-81 96t-30.5 127z" />
<glyph unicode="&#xe1c;" horiz-adv-x="1143" d="M164 247v964h261v-67h-185v-897q0 -55 11.5 -92t29.5 -59t40 -31q21 -9 46 -9q32 0 62.5 20t54 57t37 89t13.5 118v333h76v-333q0 -66 14 -118t37.5 -89t53.5 -57t63 -20q23 0 46 9t40.5 31t28.5 59t11 92v964h77v-964q0 -72 -15 -121t-42.5 -80.5t-64.5 -45.5t-81 -14 q-27 0 -54.5 6.5t-53.5 23.5t-50.5 47t-46.5 78q-22 -49 -47 -78.5t-51 -46.5t-53 -23.5t-55 -6.5q-44 0 -81 14t-64 45.5t-42.5 80.5t-15.5 121z" />
<glyph unicode="&#xe1d;" horiz-adv-x="1143" d="M164 247v964h261v-67h-185v-897q0 -55 11.5 -92t29.5 -59t40 -31q21 -9 46 -9q32 0 62.5 20t54 57t37 89t13.5 118v333h76v-333q0 -66 14 -118t37.5 -89t53.5 -57t63 -20q23 0 46 9t40.5 31t28.5 59t11 92v1413h77v-1413q0 -72 -15 -121t-42.5 -80.5t-64.5 -45.5t-81 -14 q-27 0 -54.5 6.5t-53.5 23.5t-50.5 47t-46.5 78q-22 -49 -47 -78.5t-51 -46.5t-53 -23.5t-55 -6.5q-44 0 -81 14t-64 45.5t-42.5 80.5t-15.5 121z" />
<glyph unicode="&#xe1e;" horiz-adv-x="1333" d="M132 1211h80l177 -1079l230 1079h95l229 -1079l178 1079h82l-208 -1211h-102l-224 1075l-233 -1075h-99z" />
<glyph unicode="&#xe1f;" horiz-adv-x="1333" d="M132 1211h80l177 -1079l230 1079h95l229 -1079l249 1528h82l-279 -1660h-102l-227 1074l-230 -1074h-99z" />
<glyph unicode="&#xe20;" horiz-adv-x="1054" d="M33 0v68h142v803q0 47 -15 85.5t-41 65.5q34 55 78 94t96 63t110.5 35.5t121.5 11.5q70 0 135.5 -17.5t117 -52.5t82.5 -88q30 -54 30 -123v-945h-75v945q0 41 -19 81t-56 68.5t-91 46.5t-124 18q-50 0 -97 -8t-88 -26t-77 -42.5t-59 -59.5q22 -24 34.5 -63t12.5 -86 v-874h-218z" />
<glyph unicode="&#xe21;" horiz-adv-x="1057" d="M164 0v1211h76v-770q0 -41 12 -85t35 -87t54.5 -80.5t69.5 -66.5t83.5 -46t94.5 -17q55 0 97.5 17t72 46t45 68.5t15.5 83.5v937h74v-934q0 -67 -22 -120t-61.5 -90.5t-95.5 -57.5t-125 -20q-41 0 -87.5 12.5t-93 38.5t-90 68.5t-78.5 99.5v-208h-76z" />
<glyph unicode="&#xe22;" horiz-adv-x="1031" d="M137 329q0 40 5.5 87t24.5 93t55.5 87.5t95.5 70.5q-59 23 -94 56t-54 69.5t-24.5 74t-5.5 70.5q0 77 27.5 129t69.5 85t91.5 46.5t92.5 13.5h111v-67h-111q-17 0 -38 -3.5t-44 -11.5t-45.5 -23t-40 -38.5t-28.5 -55t-11 -75.5q0 -63 24.5 -106t61.5 -70t82 -39t87 -16 h35v-68h-35q-47 0 -92 -15.5t-82 -52t-60.5 -94t-23.5 -144.5q0 -66 21 -117.5t60.5 -88t94 -55.5t123.5 -19q67 0 120.5 19t89.5 53.5t56 82.5t20 105v899h73v-899q0 -74 -23.5 -134t-68.5 -104t-112.5 -67t-154.5 -23q-83 0 -150.5 21.5t-117.5 65.5t-77.5 108.5 t-27.5 149.5z" />
<glyph unicode="&#xe23;" horiz-adv-x="857" d="M101 270h80q3 -47 20 -87.5t47 -70.5t72 -46.5t92 -16.5q48 0 92 14t78 44t55 80.5t21 124.5q0 58 -25 107.5t-62 89t-78 68.5t-77 49q-49 27 -101 58t-94.5 71t-68.5 88q-26 47 -26 111q0 65 23.5 116.5t63 88t91.5 55t108 18.5q65 0 115 -17.5t86 -51t58 -80.5t30 -108 h-76q-15 94 -70 141.5t-140 47.5q-38 0 -77 -12t-69.5 -38t-49.5 -66t-19 -94q0 -47 22 -83.5t57.5 -67t79.5 -57.5q44 -25 86 -50q66 -38 120 -79.5t91 -88t57.5 -100t20.5 -116.5q0 -76 -20.5 -138t-60 -105t-100 -65.5t-141.5 -22.5q-60 0 -115 18.5t-96.5 54.5 t-67.5 90.5t-32 125.5z" />
<glyph unicode="&#xe24;" horiz-adv-x="1057" d="M107 1022q37 55 84 94t100.5 63t112.5 35.5t118 11.5q70 0 137 -17.5t119 -52.5t84 -88q31 -54 31 -123v-1337h-74v1337q0 41 -20.5 81t-59 68.5t-93 46.5t-124.5 18q-47 0 -95.5 -8t-91 -24.5t-79.5 -42.5t-63 -59q22 -25 34.5 -64.5t12.5 -86.5v-806h157v-68h-233v871 q0 47 -15 85.5t-42 65.5z" />
<glyph unicode="&#xe25;" horiz-adv-x="1031" d="M121 310q0 23 2.5 58t17.5 72.5t44 74.5q29 38 79 66q28 16 67 30t83 28t90.5 28.5t89 29t79.5 29.5q37 17 61 33q21 14 33.5 29t17.5 34t7 43q1 23 1 56q0 67 -22.5 113t-61 73t-89 39.5t-104.5 12.5q-56 0 -104.5 -12.5t-86 -38.5t-62.5 -67t-34 -96h-76 q14 74 45.5 126t78 87t107 51.5t132.5 16.5q77 0 132.5 -15.5t94.5 -40.5t63 -57.5t38 -65.5t19.5 -66t5.5 -58v-923h-76v710q-29 -20 -56 -32t-52 -23q-45 -17 -91.5 -31t-93.5 -28.5t-92.5 -31t-92.5 -38.5q-63 -29 -91.5 -83t-28.5 -136q0 -125 56 -184.5t170 -59.5h68 v-71h-68q-77 0 -134 22t-94 62t-54.5 100t-17.5 134z" />
<glyph unicode="&#xe26;" horiz-adv-x="1054" d="M33 0v68h142v803q0 47 -15 85.5t-41 65.5q34 55 78 94t96 63t110.5 35.5t121.5 11.5q70 0 135.5 -17.5t117 -52.5t82.5 -88q30 -54 30 -123v-1337h-75v1337q0 41 -19 81t-56 68.5t-91 46.5t-124 18q-50 0 -97 -8t-88 -26t-77 -42.5t-59 -59.5q22 -24 34.5 -63t12.5 -86 v-874h-218z" />
<glyph unicode="&#xe27;" horiz-adv-x="894" d="M112 863q7 74 30.5 141t63 116.5t95.5 78.5q58 30 129 30q74 0 135.5 -31t107 -103t70 -193t24.5 -302q0 -63 -5.5 -134t-18.5 -139.5t-36 -131.5t-60 -111t-89 -76q-51 -27 -122 -27q-62 0 -110.5 17.5t-85 51.5t-61.5 81q-26 47 -39 103h79q22 -86 78 -135.5t139 -49.5 q71 0 120.5 42.5t79.5 118t43 175.5t13 215q0 63 -3.5 130t-13 129.5t-27.5 117.5t-46.5 96t-71 65t-100 24t-101.5 -26t-74 -68.5t-48 -96t-21 -108.5h-74z" />
<glyph unicode="&#xe28;" horiz-adv-x="1068" d="M164 0v925q0 74 27.5 129.5t77 93.5t116.5 59t148 21q64 0 121 -14t102 -39q26 2 51.5 11t47.5 22.5t37 32t20 39.5h84q-8 -26 -22.5 -51t-36.5 -46t-49 -38q-28 -16 -61 -27q35 -36 54.5 -85t19.5 -108v-925h-71v925q0 49 -20 92t-57.5 74.5t-93 49.5t-126.5 18 q-69 0 -123 -16.5t-92.5 -46.5t-58 -73t-19.5 -98v-402q30 47 70.5 77t85.5 48t92 25q46 7 90 7v-72q-77 3 -139 -21t-106.5 -70t-68.5 -111q-24 -64 -24 -146v-260h-76z" />
<glyph unicode="&#xe29;" horiz-adv-x="1057" d="M164 293v918h76v-918q0 -52 22.5 -94.5t61 -74t91 -48.5t112.5 -17q61 0 113.5 17t92.5 47t63 74t23 96v313h-329v201h72v-132h257v536h74v-536h145v-69h-145v-313q0 -71 -30.5 -127t-82 -96t-117.5 -60.5t-136 -20.5q-71 0 -136.5 20.5t-115.5 60.5t-80.5 96t-30.5 127z " />
<glyph unicode="&#xe2a;" horiz-adv-x="1031" d="M121 311q0 25 2.5 58.5t17.5 70.5t44 74t79 67q28 16 67 31t83 29t90.5 27.5t89 28t79.5 30.5t61 32q21 14 33.5 29t17.5 34t6.5 43.5t1.5 56.5q0 67 -22.5 112.5t-61 73.5t-89 39.5t-104.5 11.5q-56 0 -104.5 -12.5t-86 -38.5t-62.5 -66.5t-34 -96.5h-76q14 74 45.5 127 t78 88t107 51.5t132.5 16.5t126 -15.5t92 -37.5q25 3 49 12.5t45 23.5t35.5 31.5t20.5 37.5h83q-8 -26 -21.5 -51.5t-35.5 -46t-50 -37.5q-27 -16 -59 -27q20 -25 33 -51t21 -52t11 -49t3 -41v-925h-76v710q-29 -21 -56 -33.5t-52 -23.5q-44 -19 -90.5 -33l-93 -28t-93 -29 t-93.5 -36q-63 -28 -91.5 -82.5t-28.5 -136.5q0 -124 56 -184.5t170 -60.5h68v-71h-68q-77 0 -134 22t-94 63t-54.5 100t-17.5 134z" />
<glyph unicode="&#xe2b;" horiz-adv-x="1068" d="M167 0v1211h75v-547q137 137 274 275t274 272h98l-206 -208q72 -30 113.5 -74t64 -95.5t29.5 -107t7 -110.5v-616h-74v619q0 61 -9.5 113t-31.5 93t-59 72.5t-92 50.5q-98 -99 -194 -192t-194 -192v-564h-75z" />
<glyph unicode="&#xe2c;" horiz-adv-x="1234" d="M101 1211h74l154 -1090q53 215 107 431.5t108 429.5h82l222 -867q33 192 65 381t65 381q4 24 6 47.5t2 45.5q0 33 -6.5 63t-23 54.5t-45.5 44t-70 30.5v46q56 6 100.5 18t77.5 34t55 53.5t30 75.5h80q-20 -87 -69 -145t-133 -77q25 -16 40 -38t23.5 -48t11 -53.5 t2.5 -54.5q0 -30 -3 -56q-4 -27 -7 -48l-143 -869h-103l-217 849q-53 -211 -108 -425q-56 -214 -108 -424h-99z" />
<glyph unicode="&#xe2d;" horiz-adv-x="1071" d="M156 692h328v-70h-252q2 -129 19.5 -236t54 -182t93 -116t134.5 -41q57 0 100.5 17.5t75 49t53.5 74t36 90.5t21.5 98.5t11 100t4.5 94.5t1 81q0 145 -24 242.5t-64.5 155.5t-96 83.5t-118.5 25.5q-41 0 -81.5 -13t-75.5 -39.5t-63 -68t-47 -95.5h-80q22 65 56.5 118 t78 89t97 56t115.5 20q101 0 172.5 -39t117.5 -113t66.5 -181t20.5 -241q0 -130 -11 -230.5t-34.5 -175.5t-55.5 -126.5t-74 -83t-92.5 -45t-109.5 -13.5q-58 0 -108 16t-91 50.5t-74.5 91t-56 136t-35 183.5t-12.5 237z" />
<glyph unicode="&#xe2e;" horiz-adv-x="1071" d="M156 693h328v-71h-252q2 -129 19.5 -235t54 -182t93 -117t134.5 -41q57 0 100.5 17.5t75 50t53.5 74t36 89.5t21.5 99.5t11 100.5t4.5 93.5t1 80.5q0 145 -24 242.5t-64.5 156.5t-96 83.5t-118.5 24.5q-41 0 -81.5 -12.5t-75.5 -39.5t-63 -67.5t-47 -96.5h-80 q22 65 56.5 118.5t78 90t97 56.5t115.5 20q68 0 122.5 -19.5t98.5 -54.5q20 5 38.5 18.5t35 31t29 37t18.5 39.5h84q-8 -25 -22 -51t-33 -51.5t-43.5 -46.5t-54.5 -32q53 -73 78.5 -186t25.5 -261q0 -130 -11 -230t-34.5 -174.5t-55.5 -127t-74 -84t-92.5 -45t-109.5 -13.5 q-58 0 -108 16.5t-91 51.5t-74.5 91t-56 135t-34.5 184q-13 106 -13 237z" />
<glyph unicode="&#xe2f;" horiz-adv-x="1031" d="M140 956.5q0 68.5 24.5 117t63 79.5t85 44.5t88.5 13.5h103v-68h-103q-24 0 -57 -10t-62 -31.5t-48.5 -57.5t-19.5 -88q0 -44 13.5 -83.5t45 -69.5t82.5 -48.5t125 -18.5q65 0 122.5 15.5t100 48.5t66.5 83.5t24 122.5v205h76v-1211h-76v784q-35 -39 -75.5 -62t-81.5 -37 t-81 -18t-75 -4q-84 0 -147.5 20.5t-106 58.5t-64.5 92t-22 122.5z" />
<glyph unicode="&#xe30;" horiz-adv-x="650" d="M156 212v226h74v-150h313v-76h-387zM156 838v226h74v-152h313v-74h-387z" />
<glyph unicode="&#xe31;" d="M-606 1425v205h73v-134h573v-71h-646z" />
<glyph unicode="&#xe32;" horiz-adv-x="816" d="M37 981q14 60 43.5 105.5t70.5 77t91 47t103 15.5q58 0 114 -17.5t98.5 -54.5t68.5 -94t26 -137v-923h-75v923q0 55 -17 99t-48.5 74t-74 46.5t-92.5 16.5q-41 0 -78 -11.5t-67 -34t-53.5 -55.5t-34.5 -77h-75z" />
<glyph unicode="&#xe33;" horiz-adv-x="816" d="M-384 1548q0 33 14 62t36 50.5t50.5 34.5t61.5 13t63 -13t52.5 -34.5t35.5 -50.5t13 -62t-13 -60.5t-35.5 -49t-52.5 -34t-63 -12.5t-61.5 12.5t-50.5 34t-36 49t-14 60.5zM-315 1548q0 -19 7 -35.5t20 -29t30 -20t36 -7.5q21 0 38 7.5t30.5 20t21.5 29.5q7 16 7 35 t-7.5 37t-21 30.5t-30.5 20.5t-38 8q-19 0 -36 -8t-30 -20.5t-20 -30.5t-7 -37zM37 980q14 60 43.5 106t70.5 77.5t91 47t103 15.5q58 0 114 -17.5t98.5 -54.5t68.5 -94t26 -137v-923h-75v923q0 55 -17 99t-48.5 74t-74 46.5t-92.5 16.5q-41 0 -78 -11.5t-67 -34 t-53.5 -56.5t-34.5 -77h-75z" />
<glyph unicode="&#xe34;" d="M-904 1422l41 74h699v-74h-740z" />
<glyph unicode="&#xe35;" d="M-904 1422l41 74h625v182h74v-256h-740z" />
<glyph unicode="&#xe36;" d="M-904 1422l41 74h481q-11 22 -12.5 40t-1.5 20q0 28 11 52.5t29.5 43t43 29.5t52 11t52 -11t42.5 -29.5t29 -43t11 -52t-9.5 -52t-27.5 -42.5t-41 -29t-51 -11h-649zM-326 1554q0 -14 5.5 -25t14.5 -20t20.5 -13.5t25.5 -4.5q13 0 24 4.5t20 13.5t14 21q5 10 5 24 q0 13 -5 25t-14 20.5t-20 14.5q-11 5 -24 5q-14 0 -25.5 -5.5t-20.5 -14t-14.5 -20.5t-5.5 -25z" />
<glyph unicode="&#xe37;" d="M-904 1422l41 74h389v182h82v-182h145v182h83v-256h-740z" />
<glyph unicode="&#xe38;" d="M-385 -222h221v-362h-74v291h-147v71z" />
<glyph unicode="&#xe39;" d="M-710 -222h192v-174q0 -38 11.5 -65t31.5 -43.5t44.5 -24t52.5 -7.5q26 0 50.5 7.5t44.5 24t32.5 43.5t12.5 65v174h74v-175q-2 -41 -13.5 -77.5t-36 -64.5t-66 -44.5t-98.5 -16.5q-59 0 -99.5 16.5t-66 44.5t-36.5 65q-12 36 -12 77v104h-118v71z" />
<glyph unicode="&#xe3a;" d="M-285 -277q0 14 5.5 26.5t14.5 21t20.5 13.5t25.5 5q27 0 46.5 -19t19.5 -47q0 -13 -5 -25t-14 -21t-21.5 -14t-25.5 -5q-14 0 -25.5 5t-20.5 14t-14.5 21t-5.5 25z" />
<glyph unicode="&#xe3e;" />
<glyph unicode="&#xe3f;" horiz-adv-x="1135" d="M195 0v1430h298v147h80v-148q101 -4 170 -30t112.5 -70t61 -105t17.5 -135q0 -49 -8 -95t-28.5 -88.5t-55.5 -79.5t-88 -67q68 -19 110.5 -57.5t66 -88t31.5 -107t8 -111.5q3 -105 -20.5 -180t-73 -123t-125.5 -70q-77 -22 -178 -22v-163h-80v163h-298zM279 77h214v635 h-214v-635zM279 785h214v569h-214v-569zM573 77q82 0 142 15.5t98 52.5t55 97q17 62 17 150q0 71 -12.5 121t-34 85.5t-51 57t-64.5 33.5t-74 17q-38 6 -76 6v-635zM573 786q49 6 99.5 22.5t90.5 50.5t64.5 90.5t24.5 139.5q0 73 -22 122t-59.5 79.5t-88.5 44.5 q-52 16 -109 19v-568z" />
<glyph unicode="&#xe40;" horiz-adv-x="423" d="M175 0v1211h76v-1211h-76z" />
<glyph unicode="&#xe41;" horiz-adv-x="765" d="M175 0v1211h76v-1211h-76zM515 0v1211h75v-1211h-75z" />
<glyph unicode="&#xe42;" horiz-adv-x="509" d="M55 1617l16 52h466l34 -69h-361q27 -27 43 -60t25.5 -66t12 -63t2.5 -52v-1291h154v-68h-229v1359q0 52 -12.5 95t-33.5 75.5t-51.5 54.5t-65.5 33z" />
<glyph unicode="&#xe43;" horiz-adv-x="509" d="M-22 1496q10 55 35 93.5t59.5 64.5t77 37.5t88.5 11.5q48 0 91.5 -10.5t75 -32t50 -54.5t18.5 -77q0 -25 -5 -47t-17.5 -44.5t-33 -46.5t-50.5 -54q-41 -38 -57.5 -86t-16.5 -114v-1069h154v-68h-229v1134q0 41 5.5 77t17 66.5t30 59t47.5 54.5q15 13 29.5 27.5t25.5 31 t17.5 35.5t6.5 44q0 27 -13 46.5t-35 32.5t-50.5 19t-60.5 6q-22 0 -49 -4t-53 -18t-48 -41t-35 -74h-75z" />
<glyph unicode="&#xe44;" horiz-adv-x="509" d="M-60 1600l33 69h468l15 -52q-35 -11 -64.5 -33t-51.5 -54.5t-34.5 -74t-12.5 -96.5v-1291h154v-68h-229v1359q0 22 3.5 52t12 63t25.5 66q15 33 42 60h-361z" />
<glyph unicode="&#xe45;" horiz-adv-x="816" d="M37 981q14 60 43.5 105.5t70.5 77t91 47t103 15.5q58 0 114 -17.5t98.5 -54.5t68.5 -94t26 -137v-1315h-75v1315q0 55 -17 99t-48.5 73.5t-74 45t-92.5 15.5q-41 0 -78 -11t-67 -32.5t-53.5 -54.5t-34.5 -77h-75z" />
<glyph unicode="&#xe46;" horiz-adv-x="961" d="M114 940q-2 52 8.5 98.5t36 84t68.5 65t109 41.5l127 -130l118 131q74 -11 118 -42.5t65.5 -76.5t27 -100t5.5 -111v-1292h-74v1289q0 39 -3 80.5t-15 77.5t-36.5 63t-65.5 37l-140 -155l-148 155q-38 -17 -63.5 -39.5t-40 -51t-20 -60t-5.5 -64.5q0 -37 11 -66.5 t30.5 -53t44.5 -38.5q24 -15 54 -20v-66q-52 10 -91.5 32.5t-66.5 55.5t-40.5 72.5t-13.5 83.5z" />
<glyph unicode="&#xe47;" d="M-893 1630q0 63 22 105.5t54.5 69.5t72.5 38.5t75 11.5h546v-69h-546q-32 0 -61 -9.5t-49.5 -30t-31.5 -48.5t-11 -65q0 -33 9 -59t24.5 -46.5t39.5 -31.5t56 -11q63 0 96.5 34.5t41.5 102.5h54q4 -31 12.5 -56.5t24.5 -43.5t38.5 -27.5t55.5 -9.5q30 0 50.5 12.5 t34.5 33t20.5 46t6.5 51.5h70q0 -55 -15.5 -95t-41.5 -66t-59 -38t-66 -12q-22 0 -44 3t-42.5 12t-38 24t-32.5 37q-17 -22 -35 -37t-39 -24t-44.5 -12t-47.5 -3q-50 0 -87 17.5t-62 47t-38 68.5t-13 80z" />
<glyph unicode="&#xe48;" d="M-236 1837v251h72v-251h-72z" />
<glyph unicode="&#xe49;" d="M-621 2008v69h200v-171h25q60 0 106 13.5t79.5 37t53.5 54t28 66.5h74q-12 -48 -36.5 -91t-66 -76t-99.5 -53t-135 -20h-98v171h-131z" />
<glyph unicode="&#xe4a;" d="M-718 1840q0 52 11 88.5t30 58t45 32t54 10.5q40 0 69 -20t46 -50q8 14 22 27t29.5 22.5t32.5 15t37 5.5q21 0 42.5 -7.5t40 -22.5t33.5 -38.5t22 -53.5q46 14 79 51q32 39 43 94h68q-5 -35 -21.5 -71t-42.5 -64.5t-60.5 -49t-75.5 -27.5h-53q0 23 -5 45.5t-14 41 t-23 29.5t-33 11q-22 0 -38.5 -11t-27.5 -29.5t-18 -41t-10 -45.5h-53q-3 23 -10.5 45.5t-18.5 41t-26 29.5t-34 11q-22 0 -35.5 -12t-22 -30.5t-12 -41.5t-3.5 -43h-67z" />
<glyph unicode="&#xe4b;" d="M-396 1989v69h160v153h72v-153h159v-69h-159v-152h-72v152h-160z" />
<glyph unicode="&#xe4c;" d="M-332 1658q9 46 31.5 87t61.5 74t93 55t124 30v-71q-46 -3 -86.5 -17t-71.5 -37t-51 -53q-21 -31 -27 -68h-74z" />
<glyph unicode="&#xe4d;" d="M-382 1566q0 33 13 62.5t35 52t50.5 35.5t61.5 13t63 -13t52 -35.5t35.5 -52t13.5 -62.5t-13.5 -62t-35.5 -50.5t-52 -34.5t-63 -13t-61.5 13t-50.5 34.5t-35 50.5t-13 62zM-316 1566q0 -19 7.5 -36.5t20.5 -31t30 -20.5t36 -7q21 0 38.5 7t30.5 20.5t21.5 31t8.5 36.5 t-8.5 37.5t-21.5 31.5t-30.5 20.5t-38.5 7.5q-19 0 -36 -7.5t-30 -20.5t-20.5 -31.5t-7.5 -37.5z" />
<glyph unicode="&#xe4e;" d="M-436 1447q3 39 19.5 77t44.5 69.5t68.5 54.5t92.5 34q7 39 24.5 69.5t48.5 53.5t74 36.5t101 16.5v-66q-90 -3 -136 -47q-46 -46 -53 -123q-47 -5 -84.5 -19t-65.5 -37t-44.5 -53.5t-19.5 -65.5h-70z" />
<glyph unicode="&#xe4f;" horiz-adv-x="1391" d="M92 586q0 83 21 157.5t60 139.5t94 118.5t121.5 92t144 59t160.5 20.5q84 0 161.5 -20.5t143.5 -59t121 -92t94 -118.5t60.5 -139.5t21.5 -157.5q0 -82 -21.5 -156.5t-60.5 -139.5t-94 -118.5t-121 -92t-143.5 -59t-161.5 -20.5q-83 0 -160.5 20.5t-144 59t-121.5 92 t-94 118.5t-60 139.5t-21 156.5zM173 589q0 -70 18.5 -135t52 -121t81.5 -102.5t105.5 -79.5t124.5 -51.5t138 -18.5t137.5 18.5t125 51.5t105.5 79.5t80.5 102.5t53 121t19.5 135t-19.5 135t-53 121t-80.5 103t-105.5 79.5t-125 51t-137.5 18.5t-138 -18.5t-124.5 -51 t-105.5 -79.5t-81.5 -103t-52 -121t-18.5 -135zM378 589q0 63 24.5 119t67 98t100 66t123.5 24t123 -24t100 -66t67.5 -98t24.5 -119t-24.5 -119t-67.5 -98t-100 -66t-123 -24t-123.5 24t-100 66t-67 98t-24.5 119zM452 589q0 -49 19 -91.5t52 -74t77 -51t93 -19.5 q50 0 93.5 19.5t76.5 51t51.5 74t18.5 91.5q0 48 -18.5 91t-51.5 74.5t-76.5 50t-93.5 18.5q-49 0 -93 -18.5t-77 -50t-52 -74.5t-19 -91z" />
<glyph unicode="&#xe50;" horiz-adv-x="1226" d="M132 519q0 139 34 241.5t97 171t151 102.5q87 35 197 35t199 -34.5t152 -103t97 -172t34 -240.5t-38 -237.5t-104 -166.5t-153.5 -98.5t-186.5 -32.5q-96 0 -182.5 31.5t-153.5 97t-105 167t-38 239.5zM206 519q0 -107 28.5 -193t80.5 -147t127.5 -94t168.5 -33t168.5 33 t127.5 94t81 147t29 193q0 91 -15.5 161.5t-44 124t-66 90.5t-83 60t-95.5 34t-102 11q-79 0 -152 -24.5t-129 -81t-90 -149t-34 -226.5z" />
<glyph unicode="&#xe51;" horiz-adv-x="1215" d="M126 118l58 49q34 -33 78 -55t94 -35.5t103 -19t108 -5.5q102 0 181 34.5t134.5 100t85 163t29.5 224.5q0 101 -24.5 180t-74 134t-125.5 83.5t-178 28.5q-89 0 -159 -23t-118.5 -64.5t-75 -96t-26.5 -116.5q0 -37 15.5 -76.5t45.5 -72.5t78.5 -55t115.5 -22h58v-71h-58 q-71 0 -131.5 23t-104 63t-68.5 94.5t-25 116.5t18 113t49.5 92.5t74 72t93 50.5t105.5 30.5t113 10.5q106 0 194 -29t151 -89.5t98 -153.5t35 -223q0 -127 -29.5 -235.5t-91.5 -187t-157.5 -123t-227.5 -44.5q-55 0 -112.5 5.5t-113.5 19t-111 39.5t-104 70z" />
<glyph unicode="&#xe52;" horiz-adv-x="1394" d="M60 1164l8 64q35 -9 63 -25.5t48.5 -48t31.5 -79.5q11 -50 11 -124v-499q0 -82 26 -154t82 -126t145 -84t218 -30t219.5 30t145 84t80 126t25.5 154v326q0 41 -12.5 76.5t-35 64.5t-54 49.5t-69.5 31.5l-155 -159l-166 159q-33 -9 -60 -29t-49 -51.5t-35 -72.5 q-12 -41 -12 -91v-131q0 -47 6 -89.5t22 -74t43.5 -50.5t68.5 -22h33v-66h-35q-69 0 -111.5 26t-65.5 69.5t-30.5 97.5t-9.5 109v131q0 62 17.5 114.5t50.5 94t81 68.5t111 38l140 -134l128 133q61 -6 111.5 -29.5t86 -60.5t56 -88t20.5 -114v-326q0 -104 -32.5 -189.5 t-97 -146.5t-159 -94t-217.5 -33h-63q-129 0 -227 33t-163 94t-98 146.5t-33 189.5v496q0 55 -5.5 92t-16 60t-27.5 38.5t-39 25.5z" />
<glyph unicode="&#xe53;" horiz-adv-x="1245" d="M142 384v289q0 72 17.5 139.5t55 120.5t95 89t138.5 47l174 -161l175 161q81 -11 139.5 -47t95.5 -89t54.5 -120.5t17.5 -139.5v-673h-75v673q0 67 -16 123t-44 97t-65 68t-78 35l-204 -182l-200 182q-43 -8 -80.5 -33.5t-65 -67t-44 -98.5t-16.5 -124v-289 q0 -73 8.5 -133.5t31.5 -104t64.5 -67.5t106.5 -24h30.5t49.5 3v-66q-26 -3 -44.5 -4.5t-35.5 -1.5q-63 0 -108 15t-76.5 41t-51.5 63t-31 81t-14.5 95t-3.5 103z" />
<glyph unicode="&#xe54;" horiz-adv-x="1242" d="M134 433v194q0 209 115 312.5t348 103.5h220q49 0 86.5 13t64.5 36t42.5 54.5t19.5 71.5h77q-7 -44 -25.5 -88t-52.5 -78.5t-86.5 -55.5t-125.5 -21h-220q-198 0 -293.5 -86t-95.5 -262v-194q0 -85 23.5 -152t66 -115t105.5 -73.5t145 -25.5h190q-45 28 -75 58t-49 61.5 t-26.5 62t-7.5 61.5q0 16 2 38t8.5 44.5t20.5 45t36 42t54 33t77 21.5v-70q-44 -6 -69 -24t-38 -40.5t-16 -46.5t-3 -43q0 -36 14.5 -67.5t37 -58t52.5 -48.5t59.5 -37t57.5 -24q28 -8 48 -8h186v-67h-559q-82 0 -145 19t-109 50.5t-77 74t-49.5 91.5t-25.5 99q-8 50 -8 99z " />
<glyph unicode="&#xe55;" horiz-adv-x="1245" d="M134 434v195q0 371 372 409q-14 20 -21.5 43t-7.5 47q0 30 12 58t33 48.5t49.5 33t60.5 12.5q31 0 59 -12.5t49.5 -33t33.5 -48t12 -58.5q0 -47 -27 -84h58q49 0 86.5 12.5t64.5 35.5t42 55q16 34 20 72h77q-7 -44 -25.5 -87.5t-52.5 -78.5t-86.5 -56.5t-125.5 -21.5 h-220q-198 0 -293.5 -85.5t-95.5 -260.5v-195q0 -85 23.5 -152t66 -114t105.5 -73.5t145 -26.5h190q-45 28 -75 58t-49 61.5t-26.5 62.5t-7.5 61q0 16 2 37.5t8.5 44.5t20.5 45t36 41.5t54 33.5t77 21v-68q-44 -7 -69 -25.5t-38 -40.5t-16 -46.5t-3 -42.5q0 -36 14.5 -67.5 t37 -58t52.5 -48.5t59.5 -37t57.5 -23q28 -9 48 -9h186v-68h-559q-82 0 -145 19t-109 50.5t-77 75t-49.5 92t-26 99t-7.5 98.5zM545 1128q0 -18 7 -33t18.5 -26t27.5 -18t34 -7q17 0 33 7t27.5 18t18.5 26t7 33q0 16 -7 31.5t-18.5 26.5t-27.5 18t-33 7q-18 0 -34 -7 t-27.5 -18t-18.5 -26.5t-7 -31.5z" />
<glyph unicode="&#xe56;" horiz-adv-x="1261" d="M104 1099l65 38l116 -214q47 31 97.5 57t102.5 44.5t108 28.5q54 10 111 10q86 0 152.5 -19t114.5 -53.5t80.5 -81t51.5 -101t26.5 -113.5t7.5 -120v-142q-3 -95 -32.5 -177.5t-89 -143t-148.5 -94.5t-211 -32q-98 3 -173 29t-125.5 71.5t-76.5 105.5t-26 129 q0 60 18.5 106.5t54 78t86.5 47.5q52 14 116 14h26v-67h-24q-102 -5 -152.5 -51t-50.5 -128q0 -59 24.5 -108t68.5 -83.5t104 -54.5t130 -20q85 0 157 23t125.5 70t86.5 118t38 167v142q0 107 -25.5 186.5t-71 131.5t-111.5 77.5t-148 25.5q-59 0 -117 -14.5t-115 -38.5 t-111 -56t-105 -68z" />
<glyph unicode="&#xe57;" horiz-adv-x="1470" d="M159 447v148q0 104 16.5 186t52 140.5t90.5 94t134 47.5l148 -153q37 38 74.5 77t74.5 76q78 -12 133 -47.5t90.5 -94t52 -140.5t16.5 -186v-95v-52v-25v-11q0 -43 -1.5 -85t-5.5 -80.5t-10.5 -74t-22.5 -69.5q55 33 101 85.5t79 115.5t52 131.5t19 131.5v354 q0 78 11 132.5t31.5 89.5t49.5 55q29 21 64 30l15 -66q-27 -11 -45.5 -30.5t-29.5 -48.5t-15 -69.5t-4 -92.5v-354q0 -56 -12.5 -114t-35.5 -116t-57.5 -111t-79 -98.5t-98.5 -80.5q-54 -36 -117 -55l-49 42q31 44 49 90.5t26.5 95.5t10.5 99q1 48 1 100v176q0 97 -15 167 t-41.5 115.5t-61.5 71.5t-76 37q-21 -22 -42 -43.5t-44 -45t-44 -45.5q-24 -22 -43 -42l-173 176q-41 -8 -76 -32.5t-61.5 -71t-41.5 -116.5t-15 -171v-148q0 -36 2.5 -77t11 -84.5t22 -83.5t37 -71t57.5 -49.5t81 -18.5h55v-68h-55q-62 0 -107 19t-76.5 53t-51.5 78.5 t-31 94.5t-15 103.5t-4 103.5z" />
<glyph unicode="&#xe58;" horiz-adv-x="1250" d="M156 353v274q0 206 112.5 307.5t334.5 101.5h244q52 0 91.5 13.5t67 37t43.5 55.5q17 31 20 69h76q-8 -44 -26 -87t-52 -78t-87 -55q-54 -21 -131 -21h-246q-100 0 -170.5 -22.5t-116 -66t-65.5 -106.5q-21 -65 -21 -148v-274q0 -58 16.5 -108t45.5 -88.5t66.5 -63.5 t79.5 -33l191 184l201 -189q44 5 79.5 21.5t61 51t39 88t13.5 129.5q0 36 -4 73t-19.5 66.5t-47 48t-85.5 18.5h-45v67h45q52 0 89 -11.5t62.5 -32.5t41 -47.5t24.5 -57.5t12 -63q3 -33 3 -64q0 -84 -16.5 -150t-51.5 -111t-90.5 -68.5t-134.5 -26.5l-177 161l-169 -161 q-71 10 -127 42t-96 81.5t-60.5 112.5t-20.5 131z" />
<glyph unicode="&#xe59;" horiz-adv-x="1269" d="M156 425v137q0 122 12.5 214.5t45.5 154.5t89 94q59 31 146 31q41 0 77 -6t67.5 -22t57.5 -43q29 -27 50 -70q9 41 30 66t48 38t55.5 16t51.5 3h78q51 0 87.5 12.5t60.5 36t37 55t18 69.5h74q-5 -44 -22.5 -86.5t-49.5 -76.5t-81.5 -54.5t-123.5 -20.5h-78 q-27 0 -51.5 -5.5t-42.5 -25.5t-27 -58.5t-6 -103.5q71 -192 146 -391q76 -199 147 -389h-81l-289 775q-19 55 -41 95t-49.5 66t-63 38t-81.5 12q-52 0 -92.5 -17.5t-68 -64t-42 -129.5t-14.5 -213v-137q0 -39 3 -80.5t9.5 -82t20.5 -77.5t36 -65t56 -44.5t83 -16.5h28 l23 -67h-56q-66 0 -112 20t-76.5 53.5t-48.5 77t-26 91.5t-11 97.5t-3 93.5z" />
<glyph unicode="&#xe5a;" horiz-adv-x="1376" d="M140 956.5q0 68.5 24.5 117t63 79.5t85 44.5t88.5 13.5h103v-66h-103q-24 0 -57 -10t-62 -32t-48.5 -58.5t-19.5 -88.5q0 -44 13.5 -83.5t45 -69.5t82.5 -48.5t125 -18.5q65 0 122.5 14t100 45.5t66.5 82.5t24 122v211h76v-1211h-76v778q-35 -38 -75.5 -60t-81 -34.5 t-81 -15t-75.5 -2.5q-84 0 -147.5 19t-106 57.5t-64.5 92t-22 122zM1137 0v1211h77v-1211h-77z" />
<glyph unicode="&#xe5b;" horiz-adv-x="2538" d="M137 611q0 71 12.5 138.5t38.5 127t64 108t90.5 84t115.5 55t139 19.5q88 0 155 -27t114.5 -73.5t75 -109t35.5 -132.5h-84q-11 61 -33 108t-57.5 80.5t-87.5 53.5t-120 23q-91 -3 -161.5 -40t-118.5 -98.5t-73.5 -142.5t-25.5 -174q0 -90 33 -174.5t92.5 -149.5 t144.5 -104q87 -39 191 -39q90 0 164 29.5t133 80t103 120.5t72.5 149.5t43.5 165.5t18 173l74 48q67 -83 120 -161t94 -161q26 44 50 78.5t47 66t47 61.5q23 31 46 61q25 -33 47 -62t41.5 -55.5l39 -53t38.5 -54.5q16 22 30 40t27.5 35.5t28 34t30.5 35.5h374l50 -80h-387 q-41 -51 -80.5 -104t-75.5 -103q-35 52 -75.5 111t-87.5 116q-19 -26 -44.5 -61t-51.5 -74.5t-52 -82t-46 -83.5q-21 41 -44 86t-49.5 91t-53.5 92t-57 90q-7 -102 -31 -193t-64 -169.5t-93.5 -141.5t-119.5 -108.5t-143.5 -70t-162.5 -24.5q-87 0 -160.5 22t-133.5 60 t-106.5 89.5t-77 112.5t-46.5 127t-16 134z" />
<glyph unicode="&#x2000;" horiz-adv-x="1105" />
<glyph unicode="&#x2001;" horiz-adv-x="2211" />
<glyph unicode="&#x2002;" horiz-adv-x="1105" />
<glyph unicode="&#x2003;" horiz-adv-x="2211" />
<glyph unicode="&#x2004;" horiz-adv-x="737" />
<glyph unicode="&#x2005;" horiz-adv-x="552" />
<glyph unicode="&#x2006;" horiz-adv-x="368" />
<glyph unicode="&#x2007;" horiz-adv-x="368" />
<glyph unicode="&#x2008;" horiz-adv-x="276" />
<glyph unicode="&#x2009;" horiz-adv-x="442" />
<glyph unicode="&#x200a;" horiz-adv-x="122" />
<glyph unicode="&#x200b;" />
<glyph unicode="&#x2010;" horiz-adv-x="695" d="M105 443v80h485v-80h-485z" />
<glyph unicode="&#x2011;" horiz-adv-x="695" d="M105 443v80h485v-80h-485z" />
<glyph unicode="&#x2012;" horiz-adv-x="695" d="M105 443v80h485v-80h-485z" />
<glyph unicode="&#x2013;" horiz-adv-x="1001" d="M0 551v82h1000v-82h-1000z" />
<glyph unicode="&#x2014;" horiz-adv-x="2008" d="M0 551v82h2008v-82h-2008z" />
<glyph unicode="&#x2018;" horiz-adv-x="445" d="M148 1014v137q0 49 9 90t27.5 77t47 66t69.5 57v-76q-26 -20 -42.5 -43t-26 -49t-13.5 -54q-5 -27 -5 -55h82v-150h-148z" />
<glyph unicode="&#x2019;" horiz-adv-x="445" d="M148 1003v77q25 19 42 43.5t26.5 50.5t13.5 54q6 27 6 52h-83v150h148v-134q0 -49 -8.5 -90.5t-27 -77t-47.5 -67t-70 -58.5z" />
<glyph unicode="&#x201c;" horiz-adv-x="782" d="M167 1014v137q0 49 8.5 90t27.5 77t47.5 66t70.5 57v-76q-26 -20 -43.5 -43t-27 -49t-13.5 -53.5t-4 -55.5h82v-150h-148zM452 1014v137q0 49 9 90t27.5 77t47 66t70.5 57v-76q-26 -20 -42.5 -43t-26.5 -49t-14 -54q-5 -27 -5 -55h82v-150h-148z" />
<glyph unicode="&#x201d;" horiz-adv-x="782" d="M178 1003v77q25 19 41.5 43.5t26 50.5t13.5 53.5t5 52.5h-80v150h148v-134q0 -49 -10 -90.5t-27.5 -77t-47.5 -66.5q-28 -32 -69 -59zM463 1003v77q25 19 42 43.5t26.5 50.5t13.5 54q6 27 6 52h-82v150h147v-134q0 -49 -8.5 -90.5t-27 -77t-47.5 -67t-70 -58.5z" />
<glyph unicode="&#x2022;" horiz-adv-x="739" d="M77 559q0 55 23 105.5t63.5 87.5t93.5 59.5t113 22.5t113.5 -22.5t94.5 -59.5t64.5 -87.5t23.5 -105.5q0 -58 -23.5 -110t-64.5 -90t-94.5 -60t-113.5 -22t-113 22t-93.5 60t-63.5 90t-23 110z" />
<glyph unicode="&#x202f;" horiz-adv-x="442" />
<glyph unicode="&#x205f;" horiz-adv-x="552" />
<glyph unicode="&#x20ac;" horiz-adv-x="1149" d="M36 589v78h164l3 147h-167v79h172q6 71 18 139.5t34 132.5t55.5 118t79.5 94t106.5 61.5t138.5 21.5q90 0 159.5 -31.5t118.5 -86t78.5 -127t39.5 -155.5h-85q-6 63 -28.5 122t-61.5 104.5t-95 71.5t-129 26q-64 0 -113.5 -20.5t-86.5 -57.5t-63 -85t-43 -103 t-27.5 -112.5t-15.5 -112.5h386v-79h-389v-147h389v-78h-389q3 -62 9.5 -125.5t22 -122.5t40.5 -111t64 -91t92.5 -61.5t126.5 -22.5q57 0 101.5 16.5t78.5 44.5t57.5 67.5t39.5 87t23.5 99.5t10.5 108h82q-3 -100 -24 -190.5t-67 -159t-120.5 -109.5t-181.5 -41 q-91 0 -157.5 24t-113.5 66.5t-78 100.5t-50 125.5t-27 142.5t-13 152h-165z" />
<glyph unicode="&#x2122;" horiz-adv-x="1528" d="M49 1363v67h521v-67h-222v-697h-74v697h-225zM704 666v764h110l255 -653l257 653h110v-764h-71v679l-269 -679h-58l-265 682v-682h-69z" />
<glyph unicode="&#x25cc;" horiz-adv-x="1346" d="M329 575l89 44q-3 -22 -3 -46t3 -43zM423 332l35 91q26 -37 61 -64zM441 822l89 -33q-42 -25 -67 -60zM625 827l49 91l41 -88q-19 3 -38 3q-28 0 -52 -6zM632 315q23 -5 45 -5q19 0 35 5l-38 -85zM822 789l101 33l-37 -96q-26 38 -64 63zM825 356q34 23 59 56l26 -80z M934 536q3 13 3 37q0 22 -3 43l85 -43z" />
<glyph unicode="&#x25fc;" horiz-adv-x="1061" d="M0 0v1062h1062v-1062h-1062z" />
<glyph unicode="&#xf700;" horiz-adv-x="894" d="M100 929q11 63 39 117.5t72 96t103 63.5q61 23 135 23q48 0 99.5 -14.5t98.5 -44.5q38 12 67 37t42 60h88q-8 -20 -21 -42t-30.5 -42.5t-38.5 -37.5q-21 -19 -46 -30q33 -38 53.5 -93t20.5 -129q0 -66 -13 -141t-35 -156t-49 -164t-56 -160t-56.5 -147t-46.5 -125h-85 l-203 608h-135v72h192l190 -581q22 56 48 121.5t50.5 136t47 142.5t40 141.5t27.5 131.5t10 114q0 57 -17 106t-50 86t-82 59t-112 22q-44 0 -88 -13t-81 -41t-63 -71t-37 -105h-78z" />
<glyph unicode="&#xf701;" d="M-975 1422l41 74h559v-74h-600z" />
<glyph unicode="&#xf702;" d="M-975 1422l41 74h485v182h74v-256h-600z" />
<glyph unicode="&#xf703;" d="M-1030 1422l39 74h376q-11 22 -12.5 40t-1.5 20q0 28 11 52.5t29.5 43t43 29.5t52 11t52.5 -11t42.5 -29.5t28.5 -43t11 -52t-9.5 -52t-27.5 -42.5t-41 -29t-51 -11h-542zM-559 1554q0 -14 5.5 -25t14.5 -20t20.5 -13.5t25.5 -4.5q13 0 24 4.5t20 13.5t14 21q5 10 5 24 q0 13 -5 25t-14 20.5t-20 14.5q-11 5 -24 5q-14 0 -25.5 -5.5t-20.5 -14t-14.5 -20.5t-5.5 -25z" />
<glyph unicode="&#xf704;" d="M-1034 1422l41 74h308v182h82v-182h145v182h83v-256h-659z" />
<glyph unicode="&#xf705;" d="M-516 1411v299h72v-299h-72z" />
<glyph unicode="&#xf706;" d="M-974 1588v67h220v-175h28q60 0 106 13.5t79.5 37t52.5 53.5t28 65h74q-11 -47 -36 -90.5t-66 -76.5t-100 -52t-135 -19h-102v177h-149z" />
<glyph unicode="&#xf707;" d="M-1033 1408q0 52 11 88t29 58.5t42.5 32.5t51.5 10q39 0 66 -17.5t44 -49.5q16 30 45 48.5t67 18.5q22 0 44 -8t40.5 -23t31.5 -37.5t20 -54.5q44 15 73.5 53.5t37.5 91.5h68q-5 -37 -20 -72t-38.5 -63.5t-56.5 -48.5t-74 -27h-52q0 24 -4 46.5t-13.5 40t-23.5 28.5 t-33 11q-22 0 -37 -11t-24.5 -28.5t-15 -40t-8.5 -46.5h-52q-3 24 -9.5 46.5t-17.5 40t-25 28.5t-33 11q-20 0 -33 -11.5t-20 -30t-9.5 -40.5t-2.5 -44h-69z" />
<glyph unicode="&#xf708;" d="M-841 1565v68h156v160h71v-160h156v-68h-156v-157h-71v157h-156z" />
<glyph unicode="&#xf709;" d="M-726 1400q7 49 26.5 96t56.5 85t93.5 63t137.5 33v-66q-102 -7 -167 -60q-65 -52 -79 -151h-68z" />
<glyph unicode="&#xf70a;" d="M-238 1411v299h74v-299h-74z" />
<glyph unicode="&#xf70b;" d="M-649 1588v67h220v-175h28q60 0 106 13.5t79.5 37t53.5 53.5t28 65h74q-11 -47 -36.5 -90.5t-66.5 -76.5t-99.5 -52t-136.5 -19h-101v177h-149z" />
<glyph unicode="&#xf70c;" d="M-830 1411q0 64 12 109.5t34 73.5t49.5 40.5t57.5 12.5q45 0 78 -22t52 -62q22 39 57 61.5t80 22.5q26 0 51 -8.5t45.5 -28t35.5 -50.5t20 -74q28 10 51 28t42.5 42t32.5 54q14 30 20 66h70q-6 -44 -24.5 -87.5t-47 -80.5t-67 -63t-82.5 -34h-60q0 30 -4.5 59.5 t-14.5 53.5t-26.5 40t-41.5 16q-27 0 -45.5 -16t-31.5 -40t-20.5 -53.5t-10.5 -59.5h-59q-3 30 -11 59.5t-20.5 53.5t-29.5 40t-39 16q-24 0 -40 -14.5t-25.5 -38t-13 -54t-3.5 -62.5h-71z" />
<glyph unicode="&#xf70d;" d="M-411 1582v67h175v176h72v-176h172v-67h-172v-171h-72v171h-175z" />
<glyph unicode="&#xf70e;" d="M-370 1400q7 49 27 96t57 85t93 63t138 33v-66q-103 -7 -168 -60q-65 -52 -78 -151h-69z" />
<glyph unicode="&#xf70f;" horiz-adv-x="1633" d="M107 1022q34 55 78.5 94t96.5 63t110.5 35.5t121.5 11.5q70 0 136.5 -17.5t117.5 -52.5t83 -88q31 -54 31 -123v-659q0 -60 23.5 -103t59 -70.5t81.5 -39.5q47 -13 91 -13q43 0 88 12.5t82.5 40t61.5 70t24 103.5v925h76v-929q0 -79 -31.5 -134.5t-79.5 -90.5t-107 -50 t-114 -15t-114 15t-106.5 50.5t-78.5 92t-31 136.5v659q0 41 -20 81t-57 68.5t-91.5 46.5t-124.5 18q-50 0 -97 -8t-89 -26t-77 -42.5t-58 -59.5q22 -24 34.5 -64t12.5 -85v-807h157v-67h-233v871q0 47 -15 85.5t-42 65.5z" />
<glyph unicode="&#xf710;" d="M-721 1425v208h73v-137h730v-71h-803z" />
<glyph unicode="&#xf711;" d="M-745 1555q0 33 12 62.5t34 52t52 35.5q28 13 61 13t63 -13t52.5 -35.5t35.5 -52t13 -62.5t-13 -61.5t-35.5 -50.5t-52.5 -35t-63 -13t-62 13t-51 35t-34 50.5t-12 61.5zM-680 1555q0 -19 7 -36t21 -31t30 -21t36 -7t38.5 7t31.5 21t20.5 31t7.5 36t-7.5 37.5t-20.5 31.5 t-30.5 20.5t-39.5 7.5q-20 0 -36 -7.5t-30 -20.5t-21 -31.5t-7 -37.5z" />
<glyph unicode="&#xf712;" d="M-1052 1630q0 63 20.5 105.5t54 69.5t73.5 38.5t77 11.5h501v-69h-501q-35 0 -63 -9.5t-48.5 -30t-31.5 -48.5t-11 -65q0 -33 9 -59t25.5 -46.5t40.5 -31.5t54 -11q49 0 83.5 35.5t39.5 101.5h54q4 -30 14 -56t25 -44t35 -27.5t42 -9.5q30 0 51.5 12.5t35 33t19.5 46 t6 51.5h72q0 -55 -16.5 -95t-42.5 -66t-59 -38t-66 -12q-21 0 -40 3t-36.5 11.5t-34 23t-31.5 36.5q-16 -24 -33 -38.5t-36 -22.5t-39.5 -10.5t-42.5 -2.5q-49 0 -86 17.5t-63.5 47t-38.5 68.5t-12 80z" />
<glyph unicode="&#xf713;" d="M-447 1837v248h72v-248h-72z" />
<glyph unicode="&#xf714;" d="M-830 2008v69h200v-171h24q61 0 107 13.5t79.5 37t52.5 54t27 66.5h74q-12 -48 -36.5 -91t-66 -76t-99.5 -53t-135 -20h-98v171h-129z" />
<glyph unicode="&#xf715;" d="M-862 1840q0 52 12 88.5t31 58t44 32.5q27 10 54 10q39 0 67.5 -18.5t47.5 -45.5q20 28 52.5 46t68.5 18q22 0 42.5 -7.5t39.5 -22.5t34.5 -38.5t20.5 -53.5q47 14 79 51q33 39 44 94h69q-6 -35 -23 -71t-42.5 -64.5t-59.5 -49t-75 -27.5h-55q0 23 -4 45.5t-13.5 41 t-23.5 29.5t-33 11q-22 0 -38.5 -11t-27.5 -29.5t-17.5 -41t-9.5 -45.5h-55q-3 23 -9.5 45.5t-18.5 41t-27 29.5q-13 11 -33 11q-22 0 -35.5 -12t-21.5 -30.5t-12.5 -41.5t-4.5 -43h-67z" />
<glyph unicode="&#xf716;" d="M-606 1989v69h159v153h72v-153h159v-69h-159v-152h-72v152h-159z" />
<glyph unicode="&#xf717;" d="M-514 1658q8 46 31 87t61 74t93 55t125 30v-71q-47 -3 -87.5 -17t-71 -37t-50.5 -53.5t-25 -67.5h-76z" />
<glyph unicode="&#xf718;" d="M-385 -518h221v-364h-74v293h-147v71z" />
<glyph unicode="&#xf719;" d="M-710 -518h192v-175q0 -39 11.5 -65.5t31.5 -43t44.5 -24t52.5 -7.5q26 0 50.5 7.5t44.5 24t32.5 43t12.5 65.5v175h74v-175q-2 -41 -13.5 -78t-36 -65t-66 -45.5t-98.5 -17.5q-59 0 -99.5 17.5t-66 45.5t-37 65t-11.5 78v104h-118v71z" />
<glyph unicode="&#xf71a;" d="M-286 -570q0 11 5.5 23.5t15 22t21 15t25.5 5.5q11 0 23 -5.5t22 -15t15 -21.5q6 -13 6 -24q0 -14 -5.5 -25.5t-15.5 -21t-21 -15.5q-13 -5 -24 -5q-14 0 -25.5 5.5t-21 15t-15 21t-5.5 25.5z" />
<glyph unicode="&#xf71d;" horiz-adv-x="1234" d="M101 1211h74l154 -1090q53 215 107 431.5t108 429.5h82l222 -867q33 192 65 381t65 381q4 24 6 47.5t2 45.5q0 33 -6.5 63t-23 54.5t-45.5 44t-70 30.5v46q56 6 100.5 18t77.5 34t55 53.5t30 75.5h80q-20 -87 -69 -145t-133 -77q25 -16 40 -38t23.5 -48t11 -53.5 t2.5 -54.5q0 -30 -3 -56q-4 -27 -7 -48l-143 -869h-103l-217 849q-53 -211 -108 -425q-56 -214 -108 -424h-99z" />
<glyph unicode="&#xf881;" horiz-adv-x="1587" d="M107 1018q34 56 80 96t98 64.5t111.5 36t122.5 11.5q50 0 98.5 -9t91 -26t78 -43.5t60.5 -63.5q22 35 50.5 62t63.5 44.5t74.5 26.5t81.5 9q57 0 112.5 -18.5t98.5 -56t69 -96t26 -138.5v-1309h-75v1309q0 56 -17 99.5t-48 74.5t-73.5 47t-92.5 16q-40 0 -76.5 -10 t-66 -30.5t-51.5 -51.5q-24 -32 -35 -73q2 -11 3.5 -23t1.5 -26v-1332h-74v1332q0 44 -20.5 82t-59.5 68.5t-94.5 48t-125.5 17.5q-49 0 -97 -8t-91 -26t-79 -43q-36 -24 -59 -60q22 -24 34.5 -65.5t12.5 -87.5v-798h157v-68h-233v863q0 47 -15 86.5t-42 68.5z" />
<glyph unicode="&#xf882;" horiz-adv-x="1585" d="M33 0v68h142v795q0 47 -15 86.5t-41 68.5q34 56 78 96t96 64.5t110.5 36t121.5 11.5q49 0 97 -9t90 -26t76 -43.5t59 -63.5q22 33 50.5 59.5t63.5 44.5t74 28t79 10q57 0 112.5 -18.5t99 -56t69.5 -96t26 -138.5v-1309h-76v1309q0 56 -17 99.5t-48 74.5t-73.5 47 t-92.5 16q-40 0 -76.5 -10t-65.5 -30.5t-52 -51.5q-24 -32 -35 -73q3 -11 4 -23t1 -26v-1332h-75v1332q0 44 -19 82t-56 68.5t-91 48t-124 17.5q-50 0 -97 -8t-88 -26t-77 -43q-36 -24 -59 -60q22 -24 34.5 -65.5t12.5 -87.5v-866h-218z" />
<glyph d="M-700 1425q3 40 18.5 77.5t43.5 67.5t68 53.5t92 32.5q14 80 75 126t176 54v-66q-91 -3 -136 -48t-53 -122q-47 -5 -84.5 -19.5t-66 -37t-44.5 -53t-19 -65.5h-70z" />
<glyph horiz-adv-x="816" d="M-745 1555q0 33 12 62.5t34 52t52 35.5q28 13 61 13t63 -13t52.5 -35.5t35.5 -52t13 -62.5t-13 -61.5t-35.5 -50.5t-52.5 -35t-63 -13t-62 13t-51 35t-34 50.5t-12 61.5zM-680 1555q0 -19 7 -36t21 -31t30 -21t36 -7t38.5 7t31.5 21t20.5 31t7.5 36t-7.5 37.5t-20.5 31.5 t-30.5 20.5t-39.5 7.5q-20 0 -36 -7.5t-30 -20.5t-21 -31.5t-7 -37.5zM37 980q14 60 43.5 106t70.5 77.5t91 47t103 15.5q58 0 114 -17.5t98.5 -54.5t68.5 -94t26 -137v-923h-75v923q0 55 -17 99t-48.5 74t-74 46.5t-92.5 16.5q-41 0 -78 -11.5t-67 -34t-53.5 -56.5 t-34.5 -77h-75z" />
<glyph horiz-adv-x="816" d="M-745 1555q0 33 12 62.5t34 52t52 35.5q28 13 61 13t63 -13t52.5 -35.5t35.5 -52t13 -62.5t-13 -61.5t-35.5 -50.5t-52.5 -35t-63 -13t-62 13t-51 35t-34 50.5t-12 61.5zM-680 1555q0 -19 7 -36t21 -31t30 -21t36 -7t38.5 7t31.5 21t20.5 31t7.5 36t-7.5 37.5t-20.5 31.5 t-30.5 20.5t-39.5 7.5q-20 0 -36 -7.5t-30 -20.5t-21 -31.5t-7 -37.5zM37 980q14 60 43.5 106t70.5 77.5t91 47t103 15.5q58 0 114 -17.5t98.5 -54.5t68.5 -94t26 -137v-923h-75v923q0 55 -17 99t-48.5 74t-74 46.5t-92.5 16.5q-41 0 -78 -11.5t-67 -34t-53.5 -56.5 t-34.5 -77h-75z" />
<glyph d="M-792 1422l41 74h587v-74h-628z" />
<glyph d="M-792 1422l41 74h513v182h74v-256h-628z" />
<glyph d="M-792 1422l41 74h369q-11 22 -12.5 40t-1.5 20q0 28 11 52.5t29.5 43t43 29.5t52 11t52 -11t42.5 -29.5t29 -43t11 -52t-9.5 -52t-27.5 -42.5t-41 -29t-51 -11h-537zM-326 1554q0 -14 5.5 -25t14.5 -20t20.5 -13.5t25.5 -4.5q13 0 24 4.5t20 13.5t14 21q5 10 5 24 q0 13 -5 25t-14 20.5t-20 14.5q-11 5 -24 5q-14 0 -25.5 -5.5t-20.5 -14t-14.5 -20.5t-5.5 -25z" />
<glyph d="M-792 1422l41 74h277v182h82v-182h145v182h83v-256h-628z" />
<glyph d="M-1143 1422l42 74h782v-74h-824z" />
<glyph d="M-1143 1422l42 74h708v182h74v-256h-824z" />
<glyph d="M-1143 1422l42 74h542q-11 22 -12.5 40t-1.5 20q0 28 11 52.5t29.5 43t43.5 29.5q23 11 50.5 11t53 -11t44 -29.5t28.5 -43t10 -52t-10 -52t-27.5 -42.5t-41.5 -29t-51 -11h-710zM-501 1554q0 -14 4.5 -25t13.5 -20t21 -14q10 -4 24 -4q13 0 25 4.5t20.5 13.5t14.5 21 q5 10 5 24q0 13 -5.5 25t-14 20.5t-20.5 14t-25 5.5q-14 0 -25 -5.5t-20 -14t-13.5 -20.5t-4.5 -25z" />
<glyph d="M-1143 1422l42 74h472v182h82v-182h146v182h82v-256h-824z" />
<glyph d="M-390 1837v248h71v-248h-71z" />
<glyph d="M-762 2008v69h200v-171h26q61 0 106.5 13.5t78.5 37t53.5 54t27.5 66.5h75q-12 -48 -37.5 -91t-66.5 -76t-98.5 -53t-135.5 -20h-99v171h-130z" />
<glyph d="M-806 1840q0 52 11 88.5t31 58t45.5 32t52.5 10.5q39 0 69 -18.5t46 -45.5q19 28 52 46t69 18q22 0 44 -7.5t40.5 -22.5t32.5 -38.5t23 -53.5q46 14 78 51q31 39 42 94h69q-6 -35 -22.5 -71t-42.5 -64.5t-60 -49t-75 -27.5h-52q0 23 -5 45.5t-14 41t-24 29.5t-34 11 q-22 0 -38.5 -11t-27.5 -29.5t-18 -41t-9 -45.5h-52q-3 23 -11.5 45.5t-19 41t-26 29.5t-34.5 11q-22 0 -35.5 -12t-22 -30.5t-11 -41.5t-2.5 -43h-69z" />
<glyph d="M-551 1989v69h161v153h71v-153h160v-69h-160v-152h-71v152h-161z" />
<glyph d="M-1143 1422l42 74h937v-74h-979z" />
<glyph d="M-1143 1422l42 74h863v182h74v-256h-979z" />
<glyph d="M-1143 1422l42 74h719q-11 22 -12.5 40t-1.5 20q0 28 11 52.5t29.5 43t43 29.5t52 11t52 -11t42.5 -29.5t29 -43t11 -52t-9.5 -52t-27.5 -42.5t-41 -29t-51 -11h-888zM-326 1554q0 -14 5.5 -25t14.5 -20t20.5 -13.5t25.5 -4.5q13 0 24 4.5t20 13.5t14 21q5 10 5 24 q0 13 -5 25t-14 20.5t-20 14.5q-11 5 -24 5q-14 0 -25.5 -5.5t-20.5 -14t-14.5 -20.5t-5.5 -25z" />
<glyph d="M-1143 1422l42 74h627v182h82v-182h145v182h83v-256h-979z" />
<glyph d="M-236 1669v250h72v-250h-72z" />
<glyph d="M-621 1840v68h200v-171h25q60 0 106 14t79.5 37t53.5 54.5t28 65.5h74q-11 -48 -36 -91t-66.5 -76t-99.5 -52.5t-135 -19.5h-98v171h-131z" />
<glyph d="M-718 1671q0 52 11 88.5t30 59t45 32t54 9.5q40 0 69 -20.5t46 -48.5q19 30 50.5 49.5t70.5 19.5q21 0 42.5 -7.5t40 -22.5t33.5 -37.5t22 -55.5q46 14 78.5 52.5t43.5 92.5h68q-5 -35 -21.5 -69.5t-42.5 -64t-60.5 -49t-75.5 -28.5h-53q0 24 -5 46.5t-14 40.5t-23 28.5 t-33 10.5q-22 0 -38.5 -10.5t-27.5 -28.5t-18 -40t-10 -47h-53q-3 24 -10.5 46.5t-18.5 40.5t-26 28.5t-34 10.5q-22 0 -35.5 -10.5t-22 -30t-12 -41.5t-3.5 -44h-67z" />
<glyph d="M-396 1821v67h160v155h72v-155h159v-67h-159v-152h-72v152h-160z" />
<glyph d="M-447 1669v248h72v-248h-72z" />
<glyph d="M-873 1840v68h199v-171h26q60 0 106 14t79 37t53.5 54.5t27.5 65.5h75q-11 -48 -36.5 -91t-66.5 -76t-99 -52.5t-136 -19.5h-99v171h-129z" />
<glyph d="M-862 1671q0 52 12 88.5t31 59t44 32.5q27 9 54 9q39 0 68 -18q28 -20 47 -47q20 28 52.5 46.5t68.5 18.5q22 0 42.5 -7.5t39.5 -22.5t34.5 -37.5t20.5 -55.5q47 14 79.5 52.5t43.5 92.5h69q-6 -35 -23 -70t-42.5 -64t-59.5 -49q-34 -22 -75 -28h-55q0 24 -4 46.5 t-13.5 40.5t-23.5 28.5t-33 10.5q-22 0 -38.5 -10.5t-27.5 -28.5t-17.5 -40t-9.5 -47h-55q-3 24 -9.5 46.5t-18.5 40.5t-27 28q-13 11 -33 11q-22 0 -35.5 -10.5t-21.5 -30t-12.5 -41.5t-4.5 -44h-67z" />
<glyph d="M-606 1821v67h159v155h72v-155h159v-67h-159v-152h-72v152h-159z" />
<glyph d="M-525 -222h219v-362h-72v291h-147v71z" />
<glyph d="M-738 -222h191v-174q0 -38 12 -65t32.5 -43.5t45 -24t50.5 -7.5t50.5 7.5t45.5 24t32.5 43.5t11.5 65v174h74v-175q-2 -41 -12.5 -77.5t-36 -64.5t-66 -44.5t-99.5 -16.5t-99.5 16.5t-65.5 44.5t-36 65q-11 36 -13 77v104h-117v71z" />
<glyph d="M-460 -274q0 11 5.5 22.5t15 20.5t21.5 14.5t26 5.5q11 0 22.5 -5.5t20.5 -14.5t14.5 -20.5t5.5 -22.5q0 -14 -5.5 -26t-14.5 -22t-20.5 -15t-22.5 -5q-14 0 -26 5t-21.5 15t-15 22t-5.5 26z" />
<glyph d="M-519 -222h219v-362h-73v291h-146v71z" />
<glyph d="M-864 -222h190v-174q0 -38 12.5 -65t33 -43.5t45 -24t50.5 -7.5q25 0 50 7.5t45 24t32.5 43.5t12.5 65v174h74v-175q-2 -41 -13.5 -77.5t-37 -64.5t-65 -44.5t-98.5 -16.5t-99.5 16.5t-65.5 44.5t-36 65q-11 36 -13 77v104h-117v71z" />
<glyph d="M-452 -274q0 11 5.5 22.5t15 20.5t22 14.5t25.5 5.5t24.5 -5.5t20.5 -14.5t14.5 -20.5t5.5 -22.5q0 -14 -5.5 -26t-14.5 -22t-21.5 -15t-23.5 -5q-13 0 -25.5 5t-22 15t-15 22t-5.5 26z" />
<glyph d="M-721 1425v167h73v-96h785v-71h-858z" />
<glyph d="M-447 1837v248h72v-248h-72z" />
<glyph d="M-827 2008v69h200v-171h24q60 0 106 13.5t79.5 37t53 54t27.5 66.5h74q-12 -48 -37 -91t-66 -76t-99 -53t-135 -20h-99v171h-128z" />
<glyph d="M-778 1840q0 52 11.5 88.5t31.5 58t44.5 32t53.5 10.5q38 0 67.5 -18.5t47.5 -45.5q19 28 51.5 46t69.5 18q22 0 43 -7.5t40 -22.5t33.5 -38.5t21.5 -53.5q47 14 79 51q33 39 43 94h68q-5 -35 -22 -71t-42.5 -64.5t-60 -49t-75.5 -27.5h-53q0 23 -4 45.5t-13.5 41 t-24 29.5t-33.5 11q-22 0 -38.5 -11t-27.5 -29.5t-18 -41t-10 -45.5h-53q-3 23 -10.5 45.5t-19 41t-26.5 29.5t-33 11q-22 0 -35.5 -12t-22 -30.5t-12 -41.5t-3.5 -43h-68z" />
<glyph d="M-606 1989v69h159v153h72v-153h159v-69h-159v-152h-72v152h-159z" />
<glyph d="M-975 1422l41 74h770v-74h-811z" />
<glyph d="M-975 1422l41 74h696v182h74v-256h-811z" />
<glyph d="M-975 1422l41 74h552q-11 22 -12.5 40t-1.5 20q0 28 11 52.5t29.5 43t43 29.5t52 11t52 -11t42.5 -29.5t29 -43t11 -52t-9.5 -52t-27.5 -42.5t-41 -29t-51 -11h-720zM-326 1554q0 -14 5.5 -25t14.5 -20t20.5 -13.5t25.5 -4.5q13 0 24 4.5t20 13.5t14 21q5 10 5 24 q0 13 -5 25t-14 20.5t-20 14.5q-11 5 -24 5q-14 0 -25.5 -5.5t-20.5 -14t-14.5 -20.5t-5.5 -25z" />
<glyph d="M-975 1422l41 74h460v182h82v-182h145v182h83v-256h-811z" />
<glyph d="M-590 1837v248h71v-248h-71z" />
<glyph d="M-751 1989v69h161v153h71v-153h160v-69h-160v-152h-71v152h-161z" />
</font>
</defs>
</svg>
