<svg id="Layer_1" data-name="Layer 1" xmlns="http://www.w3.org/2000/svg" viewBox="0 0 100 100"><defs><style>.cls-1{fill:#fff;}</style></defs><title>Artboard 1</title><path class="cls-1" d="M88.76,67.31,74.14,52.68a4.24,4.24,0,0,0-6.21.25Q65.82,55.39,64,57.3l21.1,21.11c1.38-1.75,2.78-3.68,4.17-5.77a4.24,4.24,0,0,0-.53-5.34Z"/><path class="cls-1" d="M83.54,80.36c-6,7.06-11.17,10.29-15.58,9.54-8.78-1.5-22.49-11.58-34.39-23.48S11.6,40.81,10.1,32.05c-.75-4.42,2.47-9.65,9.54-15.59L40.91,37.72c-4.11,4.12-4.15,5.37-4.15,5.48.51,3,4,7.73,8.17,11.87s8.9,7.67,11.87,8.17c.06,0,1.26.06,5.48-4.14Z"/><path class="cls-1" d="M47.07,32.06a4.22,4.22,0,0,0,.24-6.2L32.7,11.24a4.24,4.24,0,0,0-5.34-.53c-2.09,1.39-4,2.79-5.77,4.16L42.69,36c1.27-1.2,2.74-2.51,4.38-3.92Z"/></svg>